<svg width="159" height="33" viewBox="0 0 159 33" fill="none" xmlns="http://www.w3.org/2000/svg">
<path d="M23.9229 25.574V32H0.318906V2.6H23.3769V9.026H8.55091V13.982H21.6129V20.198H8.55091V25.574H23.9229ZM52.2696 0.835998V32H44.6676V29.732C43.1836 31.496 40.9576 32.378 37.9896 32.378C35.9176 32.378 34.0276 31.902 32.3196 30.95C30.6116 29.97 29.2536 28.584 28.2456 26.792C27.2656 25 26.7756 22.928 26.7756 20.576C26.7756 18.224 27.2656 16.166 28.2456 14.402C29.2536 12.61 30.6116 11.238 32.3196 10.286C34.0276 9.334 35.9176 8.858 37.9896 8.858C40.7056 8.858 42.8056 9.642 44.2896 11.21V0.835998H52.2696ZM39.6696 26.036C41.0416 26.036 42.1756 25.56 43.0716 24.608C43.9676 23.628 44.4156 22.284 44.4156 20.576C44.4156 18.896 43.9676 17.58 43.0716 16.628C42.2036 15.676 41.0696 15.2 39.6696 15.2C38.2696 15.2 37.1216 15.676 36.2256 16.628C35.3296 17.58 34.8816 18.896 34.8816 20.576C34.8816 22.284 35.3296 23.628 36.2256 24.608C37.1216 25.56 38.2696 26.036 39.6696 26.036ZM64.0398 9.194H55.0098V2.6H81.3438V9.194H72.3558V32H64.0398V9.194ZM105.035 20.66C105.035 20.716 104.993 21.374 104.909 22.634H88.3611C88.6971 23.81 89.3411 24.72 90.2931 25.364C91.2731 25.98 92.4911 26.288 93.9471 26.288C95.0391 26.288 95.9771 26.134 96.7611 25.826C97.5731 25.518 98.3851 25.014 99.1971 24.314L103.397 28.682C101.185 31.146 97.9511 32.378 93.6951 32.378C91.0351 32.378 88.6971 31.874 86.6811 30.866C84.6651 29.858 83.0971 28.458 81.9771 26.666C80.8851 24.874 80.3391 22.844 80.3391 20.576C80.3391 18.336 80.8711 16.334 81.9351 14.57C83.0271 12.778 84.5251 11.378 86.4291 10.37C88.3331 9.362 90.4751 8.858 92.8551 8.858C95.1231 8.858 97.1811 9.334 99.0291 10.286C100.877 11.21 102.333 12.568 103.397 14.36C104.489 16.124 105.035 18.224 105.035 20.66ZM92.8971 14.528C91.6651 14.528 90.6291 14.878 89.7891 15.578C88.9771 16.278 88.4591 17.23 88.2351 18.434H97.5591C97.3351 17.23 96.8031 16.278 95.9631 15.578C95.1511 14.878 94.1291 14.528 92.8971 14.528ZM120.348 32.378C117.828 32.378 115.574 31.874 113.586 30.866C111.598 29.858 110.044 28.458 108.924 26.666C107.832 24.874 107.286 22.844 107.286 20.576C107.286 18.308 107.832 16.292 108.924 14.528C110.044 12.736 111.598 11.35 113.586 10.37C115.574 9.362 117.828 8.858 120.348 8.858C122.924 8.858 125.15 9.418 127.026 10.538C128.902 11.63 130.232 13.156 131.016 15.116L124.842 18.266C123.806 16.222 122.294 15.2 120.306 15.2C118.878 15.2 117.688 15.676 116.736 16.628C115.812 17.58 115.35 18.896 115.35 20.576C115.35 22.284 115.812 23.628 116.736 24.608C117.688 25.56 118.878 26.036 120.306 26.036C122.294 26.036 123.806 25.014 124.842 22.97L131.016 26.12C130.232 28.08 128.902 29.62 127.026 30.74C125.15 31.832 122.924 32.378 120.348 32.378ZM148.765 8.858C151.593 8.858 153.861 9.698 155.569 11.378C157.305 13.058 158.173 15.592 158.173 18.98V32H150.193V20.282C150.193 17.174 148.947 15.62 146.455 15.62C145.083 15.62 143.977 16.068 143.137 16.964C142.325 17.86 141.919 19.204 141.919 20.996V32H133.939V0.835998H141.919V11.336C142.787 10.524 143.809 9.908 144.985 9.488C146.161 9.068 147.421 8.858 148.765 8.858Z" fill="white"/>
</svg>
