<svg width="481" height="405" viewBox="0 0 481 405" fill="none" xmlns="http://www.w3.org/2000/svg">
<g clip-path="url(#clip0)">
<path opacity="0.2" d="M443.318 0H38.2362V405H443.318V0Z" fill="#414282" fill-opacity="0.85"/>
<path opacity="0.5" d="M381.808 37.813H99.1924V367.741H381.808V37.813Z" fill="#414282" fill-opacity="0.85"/>
<path d="M481 58.1738H329.718V349.043H481V58.1738Z" fill="url(#paint0_linear)"/>
<path d="M151.282 59.2817H0V350.15H151.282V59.2817Z" fill="url(#paint1_linear)"/>
<path d="M476.013 62.606H334.705V342.948H476.013V62.606Z" fill="#414282" fill-opacity="0.85"/>
<path d="M4.98732 342.948H146.295L146.295 62.606H4.98732L4.98732 342.948Z" fill="#414282" fill-opacity="0.85"/>
<path d="M123.021 88.0916H28.2615V105.267H123.021V88.0916Z" fill="url(#paint2_linear)"/>
<path d="M453.293 114.131H358.533V131.306H453.293V114.131Z" fill="url(#paint3_linear)"/>
<path d="M452.738 140.725H357.979V157.9H452.738V140.725Z" fill="url(#paint4_linear)"/>
<path d="M452.738 167.319H357.979V184.494H452.738V167.319Z" fill="url(#paint5_linear)"/>
<path d="M452.738 193.912H357.979V211.087H452.738V193.912Z" fill="url(#paint6_linear)"/>
<path d="M452.738 220.506H357.979V237.681H452.738V220.506Z" fill="url(#paint7_linear)"/>
<path d="M452.738 247.1H357.979V264.275H452.738V247.1Z" fill="url(#paint8_linear)"/>
<path d="M452.738 273.694H357.979V290.869H452.738V273.694Z" fill="url(#paint9_linear)"/>
<path d="M452.738 300.287H357.979V317.462H452.738V300.287Z" fill="url(#paint10_linear)"/>
<path d="M452.738 88.0916H357.979V105.267H452.738V88.0916Z" fill="url(#paint11_linear)"/>
<path d="M123.021 115.24H28.2615V132.415H123.021V115.24Z" fill="url(#paint12_linear)"/>
<path d="M123.021 141.279H28.2615V158.454H123.021V141.279Z" fill="url(#paint13_linear)"/>
<path d="M123.021 167.319H28.2615V184.494H123.021V167.319Z" fill="url(#paint14_linear)"/>
<path d="M123.021 193.912H28.2615V211.087H123.021V193.912Z" fill="url(#paint15_linear)"/>
<path d="M123.021 220.506H28.2615V237.681H123.021V220.506Z" fill="url(#paint16_linear)"/>
<path d="M121.358 90.3079H30.4781V103.605H121.358V90.3079Z" fill="white"/>
<path d="M121.081 116.347H30.201V129.644H121.081V116.347Z" fill="white"/>
<path d="M121.081 142.941H30.201V156.238H121.081V142.941Z" fill="white"/>
<path d="M121.081 169.535H30.201V182.832H121.081V169.535Z" fill="white"/>
<path d="M121.081 196.129H30.201V209.426H121.081V196.129Z" fill="white"/>
<path d="M121.081 222.722H30.201V236.019H121.081V222.722Z" fill="white"/>
<path d="M123.021 247.1H28.2615V264.275H123.021V247.1Z" fill="url(#paint17_linear)"/>
<path d="M121.081 249.316H30.201V262.613H121.081V249.316Z" fill="white"/>
<path d="M121.081 249.316H30.201V262.613H121.081V249.316Z" fill="white"/>
<path d="M121.081 275.91H30.201V289.207H121.081V275.91Z" fill="white"/>
<path d="M121.081 302.503H30.201V315.8H121.081V302.503Z" fill="white"/>
<path d="M451.076 89.7537H360.196V103.051H451.076V89.7537Z" fill="white"/>
<path d="M451.076 116.347H360.196V129.644H451.076V116.347Z" fill="white"/>
<path d="M451.076 142.941H360.196V156.238H451.076V142.941Z" fill="white"/>
<path d="M451.076 169.535H360.196V182.832H451.076V169.535Z" fill="white"/>
<path d="M451.076 196.129H360.196V209.426H451.076V196.129Z" fill="white"/>
<path d="M451.076 222.722H360.196V236.019H451.076V222.722Z" fill="white"/>
<path d="M451.076 249.316H360.196V262.613H451.076V249.316Z" fill="white"/>
<path d="M451.076 275.91H360.196V289.207H451.076V275.91Z" fill="white"/>
<path d="M451.076 302.503H360.196V315.8H451.076V302.503Z" fill="white"/>
<path d="M407.298 357.353H73.1475V378.406H407.298V357.353Z" fill="url(#paint18_linear)"/>
<path d="M405.082 359.569H75.9182V376.19H405.082V359.569Z" fill="#414282" fill-opacity="0.85"/>
<path d="M407.852 27.7017H74.2557V49.3091H407.852V27.7017Z" fill="url(#paint19_linear)"/>
<path d="M405.082 29.3638H75.9182V45.9848H405.082V29.3638Z" fill="#414282" fill-opacity="0.85"/>
<path opacity="0.5" d="M321.96 62.606H160.149V342.948H321.96V62.606Z" fill="#263238"/>
<path d="M365.549 184.521C369.428 189.718 363.621 195.857 363.621 195.857L364.596 196.195C363.161 197.785 357.492 204.96 335.636 237.415C307.652 278.968 269.942 289.334 269.942 289.334C265.36 285.755 260.148 283.066 254.575 281.406V277.483C261.696 275.383 268.202 271.592 273.538 266.432C278.875 261.272 282.883 254.898 285.22 247.853C288.556 241.25 290.291 233.954 290.285 226.556C290.285 199.962 268.246 178.388 241.065 178.388C213.884 178.388 191.846 199.957 191.846 226.556C191.839 233.954 193.574 241.25 196.911 247.853C199.248 254.898 203.256 261.272 208.592 266.432C213.929 271.592 220.435 275.383 227.555 277.483V281.406C221.983 283.066 216.771 285.755 212.189 289.334C212.189 289.334 174.462 278.957 146.478 237.404C124.622 204.949 118.953 197.768 117.518 196.184L118.493 195.846C118.493 195.846 112.703 189.707 116.565 184.51C120.427 179.314 90.991 173.175 94.3658 184.51C97.7406 195.846 102.085 201.514 102.085 201.514C102.085 201.514 163.706 298.681 195.875 314.736C195.115 318.029 194.732 321.397 194.733 324.776V343.668H287.375V324.776C287.377 321.397 286.994 318.029 286.234 314.736C318.374 298.669 380.023 201.519 380.023 201.519C380.023 201.519 384.368 195.852 387.743 184.516C391.117 173.18 361.687 179.325 365.549 184.521Z" fill="url(#paint20_linear)"/>
<path d="M241.054 276.203C267.087 276.203 288.19 255.104 288.19 229.077C288.19 203.05 267.087 181.951 241.054 181.951C215.022 181.951 193.918 203.05 193.918 229.077C193.918 255.104 215.022 276.203 241.054 276.203Z" fill="#263238"/>
<path d="M241.054 280.83C265.556 280.83 285.419 260.971 285.419 236.474C285.419 211.976 265.556 192.117 241.054 192.117C216.552 192.117 196.689 211.976 196.689 236.474C196.689 260.971 216.552 280.83 241.054 280.83Z" fill="#F8C198"/>
<path d="M223.493 232.313C226.557 232.313 229.04 229.83 229.04 226.767C229.04 223.704 226.557 221.221 223.493 221.221C220.43 221.221 217.946 223.704 217.946 226.767C217.946 229.83 220.43 232.313 223.493 232.313Z" fill="#263238"/>
<path d="M259.54 232.313C262.604 232.313 265.088 229.83 265.088 226.767C265.088 223.704 262.604 221.221 259.54 221.221C256.477 221.221 253.993 223.704 253.993 226.767C253.993 229.83 256.477 232.313 259.54 232.313Z" fill="#263238"/>
<path d="M253.994 256.795C253.994 260.12 248.203 265.577 241.054 265.577C233.906 265.577 228.115 260.12 228.115 256.795C228.115 253.471 233.906 253.56 241.054 253.56C248.203 253.56 253.994 253.471 253.994 256.795Z" fill="white"/>
<path d="M224.879 228.617C225.901 228.617 226.729 227.789 226.729 226.767C226.729 225.745 225.901 224.916 224.879 224.916C223.856 224.916 223.028 225.745 223.028 226.767C223.028 227.789 223.856 228.617 224.879 228.617Z" fill="white"/>
<path d="M261.386 228.617C262.408 228.617 263.237 227.789 263.237 226.767C263.237 225.745 262.408 224.916 261.386 224.916C260.364 224.916 259.535 225.745 259.535 226.767C259.535 227.789 260.364 228.617 261.386 228.617Z" fill="white"/>
<path d="M245.487 211.852C242.783 211.852 240.356 209.503 240.068 206.816C239.974 205.465 240.296 204.118 240.989 202.954C241.682 201.791 242.714 200.867 243.947 200.306C244.199 200.176 244.477 200.104 244.761 200.096C245.692 200.096 246.152 201.204 246.451 202.084C247.382 204.81 249.034 207.47 251.627 208.733C254.221 209.996 257.845 209.348 259.214 206.81C255.545 205.176 253.977 200.046 256.11 196.644C256.936 195.331 258.222 194.217 258.482 192.688C258.959 189.918 255.922 187.901 253.234 187.07C245.476 184.671 218.434 184.405 216.943 195.979C215.38 208.19 236.97 213.47 245.487 211.852Z" fill="#263238"/>
<path d="M201.414 244.255C202.837 243.693 202.7 239.966 201.108 235.93C199.515 231.894 197.07 229.077 195.646 229.639C194.223 230.2 194.36 233.927 195.953 237.963C197.545 241.999 199.99 244.816 201.414 244.255Z" fill="#F8C198"/>
<path d="M286.142 237.934C287.735 233.898 287.872 230.171 286.449 229.609C285.025 229.048 282.58 231.865 280.988 235.901C279.395 239.937 279.258 243.664 280.681 244.225C282.105 244.787 284.55 241.97 286.142 237.934Z" fill="#F8C198"/>
<path d="M268.712 290.503C268.712 290.503 304.825 280.364 331.63 239.703C358.434 199.043 359.819 198.932 359.819 198.932L374.144 204.589C374.144 204.589 307.602 311.783 278.952 317.329C250.303 322.875 268.712 290.503 268.712 290.503Z" fill="#FF9800"/>
<path d="M358.439 199.048C358.439 199.048 363.981 193.042 360.29 187.968C356.599 182.893 384.783 176.887 381.547 187.968C378.311 199.048 374.155 204.589 374.155 204.589L358.439 199.048Z" fill="#F8C198"/>
<path d="M213.397 290.503C213.397 290.503 177.283 280.364 150.479 239.703C123.675 199.043 122.289 198.932 122.289 198.932L107.965 204.589C107.965 204.589 174.512 311.783 203.167 317.329C231.822 322.875 213.397 290.503 213.397 290.503Z" fill="#FF9800"/>
<path d="M123.669 199.048C123.669 199.048 118.128 193.042 121.818 187.968C125.509 182.893 97.3249 176.887 100.561 187.968C103.797 199.048 107.953 204.589 107.953 204.589L123.669 199.048Z" fill="#F8C198"/>
<g opacity="0.2">
<path opacity="0.2" d="M256.177 189.907C255.911 191.436 254.625 192.544 253.805 193.863C251.938 196.843 252.907 201.154 255.645 203.281C255.251 202.284 255.089 201.21 255.171 200.141C255.252 199.072 255.575 198.035 256.116 197.109C256.942 195.796 258.227 194.683 258.488 193.154C258.787 191.419 257.706 189.979 256.199 188.943C256.239 189.264 256.231 189.588 256.177 189.907Z" fill="white"/>
<path opacity="0.2" d="M244.634 200.566C244.457 200.151 244.29 199.73 244.146 199.309C243.847 198.428 243.387 197.348 242.456 197.32C242.172 197.328 241.894 197.4 241.642 197.53C240.409 198.091 239.377 199.015 238.684 200.179C237.99 201.342 237.669 202.689 237.763 204.04C237.865 204.855 238.139 205.639 238.566 206.341C238.993 207.043 239.563 207.646 240.24 208.112C240.161 207.839 240.106 207.559 240.073 207.276C239.98 205.925 240.301 204.578 240.994 203.414C241.688 202.251 242.72 201.327 243.952 200.766C244.167 200.662 244.397 200.595 244.634 200.566Z" fill="white"/>
<path opacity="0.2" d="M240.727 209.342C233.989 209.625 223.116 207.054 217.758 201.586C221.759 210.096 238.289 213.658 245.465 212.29C244.486 212.257 243.533 211.967 242.702 211.45C241.87 210.933 241.189 210.206 240.727 209.342Z" fill="white"/>
<path opacity="0.2" d="M256.393 204.777C254.775 206.677 251.638 207.076 249.328 205.952C248.573 205.58 247.881 205.092 247.277 204.506C248.173 206.504 249.707 208.149 251.638 209.182C254.232 210.439 257.856 209.797 259.225 207.259C258.059 206.725 257.075 205.862 256.393 204.777Z" fill="white"/>
</g>
<path opacity="0.2" d="M372.304 204.589C372.304 204.589 305.756 311.783 277.074 317.329C275.416 317.661 273.736 317.867 272.048 317.944C274.356 318.01 276.664 317.804 278.925 317.329C307.58 311.789 374.127 204.589 374.127 204.589L372.642 204.062C372.437 204.411 372.304 204.589 372.304 204.589Z" fill="white"/>
<path opacity="0.2" d="M109.804 204.589C109.804 204.589 176.352 311.783 205.035 317.329C206.692 317.661 208.372 317.867 210.061 317.944C207.752 318.01 205.444 317.804 203.184 317.329C174.529 311.789 107.981 204.589 107.981 204.589L109.466 204.062C109.671 204.411 109.804 204.589 109.804 204.589Z" fill="white"/>
<path d="M241.054 280.83C246.88 280.83 252.649 281.977 258.032 284.206C263.415 286.435 268.305 289.702 272.425 293.821C276.545 297.94 279.813 302.83 282.042 308.211C284.272 313.593 285.419 319.361 285.419 325.186V343.668H196.689V325.186C196.689 319.361 197.837 313.593 200.066 308.211C202.296 302.83 205.564 297.94 209.683 293.821C213.803 289.702 218.694 286.435 224.076 284.206C229.459 281.977 235.228 280.83 241.054 280.83Z" fill="#FF9800"/>
<path opacity="0.2" d="M241.514 281.062C239.9 281.062 238.287 281.149 236.682 281.323C237.236 281.323 237.74 281.289 238.278 281.289C250.044 281.289 261.329 285.963 269.649 294.281C277.969 302.599 282.643 313.882 282.643 325.646V343.895H285.879V325.418C285.879 313.654 281.205 302.372 272.885 294.054C264.565 285.735 253.281 281.062 241.514 281.062Z" fill="white"/>
<path opacity="0.2" d="M240.594 281.062C242.208 281.062 243.822 281.149 245.426 281.323C244.872 281.323 244.368 281.289 243.83 281.289C232.064 281.289 220.78 285.963 212.46 294.281C204.14 302.599 199.465 313.882 199.465 325.646V343.895H196.229V325.418C196.229 313.654 200.903 302.372 209.223 294.054C217.543 285.735 228.828 281.062 240.594 281.062Z" fill="white"/>
<path d="M253.994 281.522C253.994 274.377 248.2 268.585 241.054 268.585C233.908 268.585 228.115 274.377 228.115 281.522V286.835C228.115 293.98 233.908 299.772 241.054 299.772C248.2 299.772 253.994 293.98 253.994 286.835V281.522Z" fill="#F8C198"/>
</g>
<defs>
<linearGradient id="paint0_linear" x1="405.359" y1="349.043" x2="405.359" y2="58.1738" gradientUnits="userSpaceOnUse">
<stop stop-color="#808080" stop-opacity="0.25"/>
<stop offset="0.54" stop-color="#808080" stop-opacity="0.12"/>
<stop offset="1" stop-color="#808080" stop-opacity="0.1"/>
</linearGradient>
<linearGradient id="paint1_linear" x1="20650" y1="183888" x2="20650" y2="31182.2" gradientUnits="userSpaceOnUse">
<stop stop-color="#808080" stop-opacity="0.25"/>
<stop offset="0.54" stop-color="#808080" stop-opacity="0.12"/>
<stop offset="1" stop-color="#808080" stop-opacity="0.1"/>
</linearGradient>
<linearGradient id="paint2_linear" x1="75.6411" y1="105.267" x2="75.6411" y2="88.0916" gradientUnits="userSpaceOnUse">
<stop stop-opacity="0.12"/>
<stop offset="0.55" stop-opacity="0.09"/>
<stop offset="1" stop-opacity="0.02"/>
</linearGradient>
<linearGradient id="paint3_linear" x1="69769.7" y1="4184.63" x2="69769.7" y2="3652.2" gradientUnits="userSpaceOnUse">
<stop stop-opacity="0.12"/>
<stop offset="0.55" stop-opacity="0.09"/>
<stop offset="1" stop-opacity="0.02"/>
</linearGradient>
<linearGradient id="paint4_linear" x1="69674.4" y1="5035.63" x2="69674.4" y2="4503.2" gradientUnits="userSpaceOnUse">
<stop stop-opacity="0.12"/>
<stop offset="0.55" stop-opacity="0.09"/>
<stop offset="1" stop-opacity="0.02"/>
</linearGradient>
<linearGradient id="paint5_linear" x1="69674.4" y1="5886.63" x2="69674.4" y2="5354.2" gradientUnits="userSpaceOnUse">
<stop stop-opacity="0.12"/>
<stop offset="0.55" stop-opacity="0.09"/>
<stop offset="1" stop-opacity="0.02"/>
</linearGradient>
<linearGradient id="paint6_linear" x1="69674.4" y1="6737.62" x2="69674.4" y2="6205.2" gradientUnits="userSpaceOnUse">
<stop stop-opacity="0.12"/>
<stop offset="0.55" stop-opacity="0.09"/>
<stop offset="1" stop-opacity="0.02"/>
</linearGradient>
<linearGradient id="paint7_linear" x1="69674.4" y1="7588.62" x2="69674.4" y2="7056.19" gradientUnits="userSpaceOnUse">
<stop stop-opacity="0.12"/>
<stop offset="0.55" stop-opacity="0.09"/>
<stop offset="1" stop-opacity="0.02"/>
</linearGradient>
<linearGradient id="paint8_linear" x1="69674.4" y1="8439.62" x2="69674.4" y2="7907.19" gradientUnits="userSpaceOnUse">
<stop stop-opacity="0.12"/>
<stop offset="0.55" stop-opacity="0.09"/>
<stop offset="1" stop-opacity="0.02"/>
</linearGradient>
<linearGradient id="paint9_linear" x1="69674.4" y1="9290.63" x2="69674.4" y2="8758.2" gradientUnits="userSpaceOnUse">
<stop stop-opacity="0.12"/>
<stop offset="0.55" stop-opacity="0.09"/>
<stop offset="1" stop-opacity="0.02"/>
</linearGradient>
<linearGradient id="paint10_linear" x1="69674.4" y1="10141.6" x2="69674.4" y2="9609.18" gradientUnits="userSpaceOnUse">
<stop stop-opacity="0.12"/>
<stop offset="0.55" stop-opacity="0.09"/>
<stop offset="1" stop-opacity="0.02"/>
</linearGradient>
<linearGradient id="paint11_linear" x1="69674.4" y1="88.0916" x2="69674.4" y2="88.0916" gradientUnits="userSpaceOnUse">
<stop stop-opacity="0.12"/>
<stop offset="0.55" stop-opacity="0.09"/>
<stop offset="1" stop-opacity="0.02"/>
</linearGradient>
<linearGradient id="paint12_linear" x1="4860.98" y1="3953.87" x2="21064.8" y2="3953.87" gradientUnits="userSpaceOnUse">
<stop stop-opacity="0.12"/>
<stop offset="0.55" stop-opacity="0.09"/>
<stop offset="1" stop-opacity="0.02"/>
</linearGradient>
<linearGradient id="paint13_linear" x1="4860.98" y1="4787.14" x2="21064.8" y2="4787.14" gradientUnits="userSpaceOnUse">
<stop stop-opacity="0.12"/>
<stop offset="0.55" stop-opacity="0.09"/>
<stop offset="1" stop-opacity="0.02"/>
</linearGradient>
<linearGradient id="paint14_linear" x1="4860.98" y1="5620.41" x2="21064.8" y2="5620.41" gradientUnits="userSpaceOnUse">
<stop stop-opacity="0.12"/>
<stop offset="0.55" stop-opacity="0.09"/>
<stop offset="1" stop-opacity="0.02"/>
</linearGradient>
<linearGradient id="paint15_linear" x1="4860.98" y1="6471.41" x2="21064.8" y2="6471.41" gradientUnits="userSpaceOnUse">
<stop stop-opacity="0.12"/>
<stop offset="0.55" stop-opacity="0.09"/>
<stop offset="1" stop-opacity="0.02"/>
</linearGradient>
<linearGradient id="paint16_linear" x1="4860.98" y1="7322.41" x2="21064.8" y2="7322.41" gradientUnits="userSpaceOnUse">
<stop stop-opacity="0.12"/>
<stop offset="0.55" stop-opacity="0.09"/>
<stop offset="1" stop-opacity="0.02"/>
</linearGradient>
<linearGradient id="paint17_linear" x1="4860.98" y1="8173.41" x2="21064.8" y2="8173.41" gradientUnits="userSpaceOnUse">
<stop stop-opacity="0.12"/>
<stop offset="0.55" stop-opacity="0.09"/>
<stop offset="1" stop-opacity="0.02"/>
</linearGradient>
<linearGradient id="paint18_linear" x1="44181.1" y1="14336.8" x2="245674" y2="14336.8" gradientUnits="userSpaceOnUse">
<stop stop-color="#808080" stop-opacity="0.25"/>
<stop offset="0.54" stop-color="#808080" stop-opacity="0.12"/>
<stop offset="1" stop-color="#808080" stop-opacity="0.1"/>
</linearGradient>
<linearGradient id="paint19_linear" x1="145189" y1="1950.76" x2="145189" y2="1108.07" gradientUnits="userSpaceOnUse">
<stop stop-color="#808080" stop-opacity="0.25"/>
<stop offset="0.54" stop-color="#808080" stop-opacity="0.12"/>
<stop offset="1" stop-color="#808080" stop-opacity="0.1"/>
</linearGradient>
<linearGradient id="paint20_linear" x1="176738" y1="116864" x2="176738" y2="67394.8" gradientUnits="userSpaceOnUse">
<stop stop-color="#808080" stop-opacity="0.25"/>
<stop offset="0.54" stop-color="#808080" stop-opacity="0.12"/>
<stop offset="1" stop-color="#808080" stop-opacity="0.1"/>
</linearGradient>
<clipPath id="clip0">
<rect width="481" height="405" fill="white"/>
</clipPath>
</defs>
</svg>
