<svg width="257" height="205" viewBox="0 0 257 205" fill="none" xmlns="http://www.w3.org/2000/svg">
<g clip-path="url(#clip0)">
<path opacity="0.1" d="M73.8289 35.1583H54.5505C53.4385 35.1583 52.5371 36.058 52.5371 37.1677V40.1805C52.5371 41.2903 53.4385 42.19 54.5505 42.19H73.8289C74.9409 42.19 75.8423 41.2903 75.8423 40.1805V37.1677C75.8423 36.058 74.9409 35.1583 73.8289 35.1583Z" fill="#6062C3"/>
<path opacity="0.1" d="M98.2181 42.19H78.9398C77.8278 42.19 76.9263 43.0896 76.9263 44.1994V47.2122C76.9263 48.322 77.8278 49.2216 78.9398 49.2216H98.2181C99.3301 49.2216 100.232 48.322 100.232 47.2122V44.1994C100.232 43.0896 99.3301 42.19 98.2181 42.19Z" fill="#6062C3"/>
<path opacity="0.1" d="M122.607 49.2216H103.329C102.217 49.2216 101.316 50.1213 101.316 51.2311V54.2439C101.316 55.3536 102.217 56.2533 103.329 56.2533H122.607C123.719 56.2533 124.621 55.3536 124.621 54.2439V51.2311C124.621 50.1213 123.719 49.2216 122.607 49.2216Z" fill="#6062C3"/>
<path opacity="0.1" d="M73.8289 24.6108H54.5505C53.4385 24.6108 52.5371 25.5105 52.5371 26.6203V29.6331C52.5371 30.7428 53.4385 31.6425 54.5505 31.6425H73.8289C74.9409 31.6425 75.8423 30.7428 75.8423 29.6331V26.6203C75.8423 25.5105 74.9409 24.6108 73.8289 24.6108Z" fill="#6062C3"/>
<path opacity="0.1" d="M98.2181 31.6425H78.9398C77.8278 31.6425 76.9263 32.5421 76.9263 33.6519V36.6647C76.9263 37.7745 77.8278 38.6742 78.9398 38.6742H98.2181C99.3301 38.6742 100.232 37.7745 100.232 36.6647V33.6519C100.232 32.5421 99.3301 31.6425 98.2181 31.6425Z" fill="#6062C3"/>
<path opacity="0.1" d="M122.607 38.6741H103.329C102.217 38.6741 101.316 39.5738 101.316 40.6836V43.6964C101.316 44.8062 102.217 45.7058 103.329 45.7058H122.607C123.719 45.7058 124.621 44.8062 124.621 43.6964V40.6836C124.621 39.5738 123.719 38.6741 122.607 38.6741Z" fill="#6062C3"/>
<path opacity="0.1" d="M149.706 35.1583H130.428C129.316 35.1583 128.415 36.058 128.415 37.1677V40.1805C128.415 41.2903 129.316 42.19 130.428 42.19H149.706C150.818 42.19 151.72 41.2903 151.72 40.1805V37.1677C151.72 36.058 150.818 35.1583 149.706 35.1583Z" fill="#6062C3"/>
<path opacity="0.1" d="M174.096 42.19H154.817C153.705 42.19 152.804 43.0896 152.804 44.1994V47.2122C152.804 48.322 153.705 49.2216 154.817 49.2216H174.096C175.208 49.2216 176.109 48.322 176.109 47.2122V44.1994C176.109 43.0896 175.208 42.19 174.096 42.19Z" fill="#6062C3"/>
<path opacity="0.1" d="M198.485 49.2216H179.207C178.095 49.2216 177.193 50.1213 177.193 51.2311V54.2439C177.193 55.3536 178.095 56.2533 179.207 56.2533H198.485C199.597 56.2533 200.498 55.3536 200.498 54.2439V51.2311C200.498 50.1213 199.597 49.2216 198.485 49.2216Z" fill="#6062C3"/>
<path opacity="0.1" d="M149.706 24.6108H130.428C129.316 24.6108 128.415 25.5105 128.415 26.6203V29.6331C128.415 30.7428 129.316 31.6425 130.428 31.6425H149.706C150.818 31.6425 151.72 30.7428 151.72 29.6331V26.6203C151.72 25.5105 150.818 24.6108 149.706 24.6108Z" fill="#6062C3"/>
<path opacity="0.1" d="M174.096 31.6425H154.817C153.705 31.6425 152.804 32.5421 152.804 33.6519V36.6647C152.804 37.7745 153.705 38.6742 154.817 38.6742H174.096C175.208 38.6742 176.109 37.7745 176.109 36.6647V33.6519C176.109 32.5421 175.208 31.6425 174.096 31.6425Z" fill="#6062C3"/>
<path opacity="0.1" d="M198.485 38.6741H179.207C178.095 38.6741 177.193 39.5738 177.193 40.6836V43.6964C177.193 44.8062 178.095 45.7058 179.207 45.7058H198.485C199.597 45.7058 200.498 44.8062 200.498 43.6964V40.6836C200.498 39.5738 199.597 38.6741 198.485 38.6741Z" fill="#6062C3"/>
<path opacity="0.1" d="M73.8289 10.5475H54.5505C53.4385 10.5475 52.5371 11.4471 52.5371 12.5569V15.5697C52.5371 16.6795 53.4385 17.5792 54.5505 17.5792H73.8289C74.9409 17.5792 75.8423 16.6795 75.8423 15.5697V12.5569C75.8423 11.4471 74.9409 10.5475 73.8289 10.5475Z" fill="#6062C3"/>
<path opacity="0.1" d="M98.2181 17.5792H78.9398C77.8278 17.5792 76.9263 18.4788 76.9263 19.5886V22.6014C76.9263 23.7112 77.8278 24.6108 78.9398 24.6108H98.2181C99.3301 24.6108 100.232 23.7112 100.232 22.6014V19.5886C100.232 18.4788 99.3301 17.5792 98.2181 17.5792Z" fill="#6062C3"/>
<path opacity="0.1" d="M122.607 24.6108H103.329C102.217 24.6108 101.316 25.5105 101.316 26.6203V29.6331C101.316 30.7428 102.217 31.6425 103.329 31.6425H122.607C123.719 31.6425 124.621 30.7428 124.621 29.6331V26.6203C124.621 25.5105 123.719 24.6108 122.607 24.6108Z" fill="#6062C3"/>
<path opacity="0.1" d="M73.8289 0H54.5505C53.4385 0 52.5371 0.899654 52.5371 2.00943V5.02223C52.5371 6.13201 53.4385 7.03166 54.5505 7.03166H73.8289C74.9409 7.03166 75.8423 6.13201 75.8423 5.02223V2.00943C75.8423 0.899654 74.9409 0 73.8289 0Z" fill="#6062C3"/>
<path opacity="0.1" d="M98.2181 7.03166H78.9398C77.8278 7.03166 76.9263 7.93132 76.9263 9.04109V12.0539C76.9263 13.1637 77.8278 14.0633 78.9398 14.0633H98.2181C99.3301 14.0633 100.232 13.1637 100.232 12.0539V9.04109C100.232 7.93132 99.3301 7.03166 98.2181 7.03166Z" fill="#6062C3"/>
<path opacity="0.1" d="M122.607 14.0633H103.329C102.217 14.0633 101.316 14.963 101.316 16.0728V19.0856C101.316 20.1953 102.217 21.095 103.329 21.095H122.607C123.719 21.095 124.621 20.1953 124.621 19.0856V16.0728C124.621 14.963 123.719 14.0633 122.607 14.0633Z" fill="#6062C3"/>
<path opacity="0.1" d="M149.706 10.5475H130.428C129.316 10.5475 128.415 11.4471 128.415 12.5569V15.5697C128.415 16.6795 129.316 17.5792 130.428 17.5792H149.706C150.818 17.5792 151.72 16.6795 151.72 15.5697V12.5569C151.72 11.4471 150.818 10.5475 149.706 10.5475Z" fill="#6062C3"/>
<path opacity="0.1" d="M174.096 17.5792H154.817C153.705 17.5792 152.804 18.4788 152.804 19.5886V22.6014C152.804 23.7112 153.705 24.6108 154.817 24.6108H174.096C175.208 24.6108 176.109 23.7112 176.109 22.6014V19.5886C176.109 18.4788 175.208 17.5792 174.096 17.5792Z" fill="#6062C3"/>
<path opacity="0.1" d="M198.485 24.6108H179.207C178.095 24.6108 177.193 25.5105 177.193 26.6203V29.6331C177.193 30.7428 178.095 31.6425 179.207 31.6425H198.485C199.597 31.6425 200.498 30.7428 200.498 29.6331V26.6203C200.498 25.5105 199.597 24.6108 198.485 24.6108Z" fill="#6062C3"/>
<path opacity="0.1" d="M149.706 0H130.428C129.316 0 128.415 0.899654 128.415 2.00943V5.02223C128.415 6.13201 129.316 7.03166 130.428 7.03166H149.706C150.818 7.03166 151.72 6.13201 151.72 5.02223V2.00943C151.72 0.899654 150.818 0 149.706 0Z" fill="#6062C3"/>
<path opacity="0.1" d="M174.096 7.03166H154.817C153.705 7.03166 152.804 7.93132 152.804 9.04109V12.0539C152.804 13.1637 153.705 14.0633 154.817 14.0633H174.096C175.208 14.0633 176.109 13.1637 176.109 12.0539V9.04109C176.109 7.93132 175.208 7.03166 174.096 7.03166Z" fill="#6062C3"/>
<path opacity="0.1" d="M198.485 14.0633H179.207C178.095 14.0633 177.193 14.963 177.193 16.0728V19.0856C177.193 20.1953 178.095 21.095 179.207 21.095H198.485C199.597 21.095 200.498 20.1953 200.498 19.0856V16.0728C200.498 14.963 199.597 14.0633 198.485 14.0633Z" fill="#6062C3"/>
<path opacity="0.1" d="M73.8289 160.376H54.5505C53.4385 160.376 52.5371 161.276 52.5371 162.385V165.398C52.5371 166.508 53.4385 167.408 54.5505 167.408H73.8289C74.9409 167.408 75.8423 166.508 75.8423 165.398V162.385C75.8423 161.276 74.9409 160.376 73.8289 160.376Z" fill="#6062C3"/>
<path opacity="0.1" d="M98.2181 167.408H78.9398C77.8278 167.408 76.9263 168.307 76.9263 169.417V172.43C76.9263 173.54 77.8278 174.439 78.9398 174.439H98.2181C99.3301 174.439 100.232 173.54 100.232 172.43V169.417C100.232 168.307 99.3301 167.408 98.2181 167.408Z" fill="#6062C3"/>
<path opacity="0.1" d="M122.607 174.439H103.329C102.217 174.439 101.316 175.339 101.316 176.449V179.462C101.316 180.571 102.217 181.471 103.329 181.471H122.607C123.719 181.471 124.621 180.571 124.621 179.462V176.449C124.621 175.339 123.719 174.439 122.607 174.439Z" fill="#6062C3"/>
<path opacity="0.1" d="M73.8289 149.828H54.5505C53.4385 149.828 52.5371 150.728 52.5371 151.838V154.851C52.5371 155.961 53.4385 156.86 54.5505 156.86H73.8289C74.9409 156.86 75.8423 155.961 75.8423 154.851V151.838C75.8423 150.728 74.9409 149.828 73.8289 149.828Z" fill="#6062C3"/>
<path opacity="0.1" d="M98.2181 156.86H78.9398C77.8278 156.86 76.9263 157.76 76.9263 158.87V161.882C76.9263 162.992 77.8278 163.892 78.9398 163.892H98.2181C99.3301 163.892 100.232 162.992 100.232 161.882V158.87C100.232 157.76 99.3301 156.86 98.2181 156.86Z" fill="#6062C3"/>
<path opacity="0.1" d="M122.607 163.892H103.329C102.217 163.892 101.316 164.791 101.316 165.901V168.914C101.316 170.024 102.217 170.923 103.329 170.923H122.607C123.719 170.923 124.621 170.024 124.621 168.914V165.901C124.621 164.791 123.719 163.892 122.607 163.892Z" fill="#6062C3"/>
<path opacity="0.1" d="M149.706 160.376H130.428C129.316 160.376 128.415 161.276 128.415 162.385V165.398C128.415 166.508 129.316 167.408 130.428 167.408H149.706C150.818 167.408 151.72 166.508 151.72 165.398V162.385C151.72 161.276 150.818 160.376 149.706 160.376Z" fill="#6062C3"/>
<path opacity="0.1" d="M174.096 167.408H154.817C153.705 167.408 152.804 168.307 152.804 169.417V172.43C152.804 173.54 153.705 174.439 154.817 174.439H174.096C175.208 174.439 176.109 173.54 176.109 172.43V169.417C176.109 168.307 175.208 167.408 174.096 167.408Z" fill="#6062C3"/>
<path opacity="0.1" d="M198.485 174.439H179.207C178.095 174.439 177.193 175.339 177.193 176.449V179.462C177.193 180.571 178.095 181.471 179.207 181.471H198.485C199.597 181.471 200.498 180.571 200.498 179.462V176.449C200.498 175.339 199.597 174.439 198.485 174.439Z" fill="#6062C3"/>
<path opacity="0.1" d="M149.706 149.828H130.428C129.316 149.828 128.415 150.728 128.415 151.838V154.851C128.415 155.961 129.316 156.86 130.428 156.86H149.706C150.818 156.86 151.72 155.961 151.72 154.851V151.838C151.72 150.728 150.818 149.828 149.706 149.828Z" fill="#6062C3"/>
<path opacity="0.1" d="M174.096 156.86H154.817C153.705 156.86 152.804 157.76 152.804 158.87V161.882C152.804 162.992 153.705 163.892 154.817 163.892H174.096C175.208 163.892 176.109 162.992 176.109 161.882V158.87C176.109 157.76 175.208 156.86 174.096 156.86Z" fill="#6062C3"/>
<path opacity="0.1" d="M198.485 163.892H179.207C178.095 163.892 177.193 164.791 177.193 165.901V168.914C177.193 170.024 178.095 170.923 179.207 170.923H198.485C199.597 170.923 200.498 170.024 200.498 168.914V165.901C200.498 164.791 199.597 163.892 198.485 163.892Z" fill="#6062C3"/>
<path opacity="0.1" d="M73.8289 135.765H54.5505C53.4385 135.765 52.5371 136.665 52.5371 137.775V140.787C52.5371 141.897 53.4385 142.797 54.5505 142.797H73.8289C74.9409 142.797 75.8423 141.897 75.8423 140.787V137.775C75.8423 136.665 74.9409 135.765 73.8289 135.765Z" fill="#6062C3"/>
<path opacity="0.1" d="M98.2181 142.797H78.9398C77.8278 142.797 76.9263 143.696 76.9263 144.806V147.819C76.9263 148.929 77.8278 149.828 78.9398 149.828H98.2181C99.3301 149.828 100.232 148.929 100.232 147.819V144.806C100.232 143.696 99.3301 142.797 98.2181 142.797Z" fill="#6062C3"/>
<path opacity="0.1" d="M122.607 149.828H103.329C102.217 149.828 101.316 150.728 101.316 151.838V154.851C101.316 155.961 102.217 156.86 103.329 156.86H122.607C123.719 156.86 124.621 155.961 124.621 154.851V151.838C124.621 150.728 123.719 149.828 122.607 149.828Z" fill="#6062C3"/>
<path opacity="0.1" d="M73.8289 125.218H54.5505C53.4385 125.218 52.5371 126.117 52.5371 127.227V130.24C52.5371 131.35 53.4385 132.249 54.5505 132.249H73.8289C74.9409 132.249 75.8423 131.35 75.8423 130.24V127.227C75.8423 126.117 74.9409 125.218 73.8289 125.218Z" fill="#6062C3"/>
<path opacity="0.1" d="M98.2181 132.249H78.9398C77.8278 132.249 76.9263 133.149 76.9263 134.259V137.272C76.9263 138.381 77.8278 139.281 78.9398 139.281H98.2181C99.3301 139.281 100.232 138.381 100.232 137.272V134.259C100.232 133.149 99.3301 132.249 98.2181 132.249Z" fill="#6062C3"/>
<path opacity="0.1" d="M122.607 139.281H103.329C102.217 139.281 101.316 140.181 101.316 141.29V144.303C101.316 145.413 102.217 146.313 103.329 146.313H122.607C123.719 146.313 124.621 145.413 124.621 144.303V141.29C124.621 140.181 123.719 139.281 122.607 139.281Z" fill="#6062C3"/>
<path opacity="0.1" d="M149.706 135.765H130.428C129.316 135.765 128.415 136.665 128.415 137.775V140.787C128.415 141.897 129.316 142.797 130.428 142.797H149.706C150.818 142.797 151.72 141.897 151.72 140.787V137.775C151.72 136.665 150.818 135.765 149.706 135.765Z" fill="#6062C3"/>
<path opacity="0.1" d="M174.096 142.797H154.817C153.705 142.797 152.804 143.696 152.804 144.806V147.819C152.804 148.929 153.705 149.828 154.817 149.828H174.096C175.208 149.828 176.109 148.929 176.109 147.819V144.806C176.109 143.696 175.208 142.797 174.096 142.797Z" fill="#6062C3"/>
<path opacity="0.1" d="M198.485 149.828H179.207C178.095 149.828 177.193 150.728 177.193 151.838V154.851C177.193 155.961 178.095 156.86 179.207 156.86H198.485C199.597 156.86 200.498 155.961 200.498 154.851V151.838C200.498 150.728 199.597 149.828 198.485 149.828Z" fill="#6062C3"/>
<path opacity="0.1" d="M149.706 125.218H130.428C129.316 125.218 128.415 126.117 128.415 127.227V130.24C128.415 131.35 129.316 132.249 130.428 132.249H149.706C150.818 132.249 151.72 131.35 151.72 130.24V127.227C151.72 126.117 150.818 125.218 149.706 125.218Z" fill="#6062C3"/>
<path opacity="0.1" d="M174.096 132.249H154.817C153.705 132.249 152.804 133.149 152.804 134.259V137.272C152.804 138.381 153.705 139.281 154.817 139.281H174.096C175.208 139.281 176.109 138.381 176.109 137.272V134.259C176.109 133.149 175.208 132.249 174.096 132.249Z" fill="#6062C3"/>
<path opacity="0.1" d="M198.485 139.281H179.207C178.095 139.281 177.193 140.181 177.193 141.29V144.303C177.193 145.413 178.095 146.313 179.207 146.313H198.485C199.597 146.313 200.498 145.413 200.498 144.303V141.29C200.498 140.181 199.597 139.281 198.485 139.281Z" fill="#6062C3"/>
<path opacity="0.1" d="M130.718 205C196.346 205 249.548 200.641 249.548 195.264C249.548 189.887 196.346 185.528 130.718 185.528C65.0903 185.528 11.8884 189.887 11.8884 195.264C11.8884 200.641 65.0903 205 130.718 205Z" fill="#6062C3"/>
<path d="M22.9394 50.5198C34.1449 55.3662 40.5837 65.3944 40.5837 65.3944C40.5837 65.3944 28.8524 67.558 17.6442 62.7143C6.43604 57.8706 0 47.8396 0 47.8396C0 47.8396 11.7312 45.6734 22.9394 50.5198Z" fill="#6062C3"/>
<path d="M57.3282 31.9129C60.7942 26.2335 66.6964 23.529 66.6964 23.529C66.6964 23.529 66.9674 30.0036 63.5122 35.6668C60.0571 41.3299 54.1413 44.0317 54.1413 44.0317C54.1413 44.0317 53.8595 37.5599 57.3282 31.9129Z" fill="#6062C3"/>
<path d="M31.8496 37.9899C34.3292 46.8228 41.1636 52.6374 41.1636 52.6374C41.1636 52.6374 43.9792 44.1264 41.4996 35.2908C39.02 26.4553 32.1829 20.6433 32.1829 20.6433C32.1829 20.6433 29.3673 29.1544 31.8496 37.9899Z" fill="#46455B"/>
<path d="M227.812 37.5923H34.1666C33.0875 37.5923 32.2127 38.4654 32.2127 39.5423V134.356C32.2127 135.433 33.0875 136.306 34.1666 136.306H227.812C228.891 136.306 229.765 135.433 229.765 134.356V39.5423C229.765 38.4654 228.891 37.5923 227.812 37.5923Z" fill="#3F3D56"/>
<path opacity="0.1" d="M32.2127 130.356H229.765V134.356C229.765 134.873 229.56 135.369 229.193 135.735C228.827 136.101 228.33 136.306 227.812 136.306H34.1666C33.6484 136.306 33.1514 136.101 32.785 135.735C32.4186 135.369 32.2127 134.873 32.2127 134.356V130.356Z" fill="black"/>
<path d="M65.4092 123.054H52.1306C51.7564 123.054 51.4531 123.357 51.4531 123.73V129.68C51.4531 130.053 51.7564 130.356 52.1306 130.356H65.4092C65.7833 130.356 66.0866 130.053 66.0866 129.68V123.73C66.0866 123.357 65.7833 123.054 65.4092 123.054Z" fill="#6062C3"/>
<path d="M79.6362 129.274H70.6935C70.3942 129.274 70.1515 129.517 70.1515 129.815C70.1515 130.114 70.3942 130.356 70.6935 130.356H79.6362C79.9355 130.356 80.1782 130.114 80.1782 129.815C80.1782 129.517 79.9355 129.274 79.6362 129.274Z" fill="#6062C3"/>
<path d="M61.2495 56.897C68.4009 58.2141 75.696 56.897 82.8177 56.0045L104.462 53.3C105.337 53.1891 106.611 52.6672 107.126 53.7354C107.416 54.3331 107.22 55.6286 107.242 56.3155C107.299 58.2087 107.294 60.1018 107.242 61.9949C107.145 65.6135 106.879 69.224 106.54 72.8264C105.882 79.877 104.95 86.8897 104.483 93.9674C104.245 97.5697 104.126 101.183 104.231 104.785C104.256 105.645 104.291 106.505 104.342 107.363C104.399 108.323 104.83 109.748 103.782 110.389C103.183 110.757 102.004 110.738 101.318 110.846C100.234 111.016 99.1503 111.152 98.0447 111.263C90.7577 111.99 83.3759 111.687 76.0618 111.644L53.976 111.53L48.5887 111.501C48.101 111.501 46.3422 111.793 46.0414 111.214C45.9141 110.968 46.2528 109.816 46.3124 109.507C46.3955 108.999 46.4858 108.491 46.5834 107.985C47.2121 104.428 47.9546 100.894 48.7026 97.3615C50.3095 89.7889 51.9545 82.1785 52.6157 74.4437C52.9436 70.5627 52.7268 66.6466 53.1278 62.7738C53.3148 60.9753 53.537 56.9619 55.9353 56.8023C57.9678 56.6671 60.0598 56.8023 62.0977 56.8023C62.2055 56.8023 62.3089 56.7596 62.3851 56.6835C62.4613 56.6074 62.5041 56.5042 62.5041 56.3966C62.5041 56.2891 62.4613 56.1859 62.3851 56.1098C62.3089 56.0337 62.2055 55.991 62.0977 55.991C60.1736 55.991 58.2469 55.9396 56.3228 55.9775C55.0438 56.0018 54.1549 56.3047 53.5452 57.4784C51.987 60.4912 52.1469 64.5101 52.0981 67.7988C51.9816 75.6715 50.7702 83.3766 49.1931 91.0763C48.399 94.9518 47.5427 98.8138 46.7541 102.692C46.3829 104.545 46.0279 106.403 45.7027 108.266C45.5509 109.153 44.784 111.108 45.4588 111.922C46.1336 112.736 48.2094 112.298 49.1389 112.304L55.6047 112.342L67.9944 112.412C75.9995 112.458 84.0317 112.682 92.0341 112.447C95.855 112.334 99.8928 112.177 103.614 111.265C104.722 110.995 105.256 110.486 105.299 109.307C105.364 107.479 105.066 105.594 105.028 103.758C104.757 88.0445 108.456 72.5505 108.077 56.8321C108.052 55.7638 108.456 53.0701 107.285 52.4238C106.76 52.1317 106.077 52.2912 105.524 52.3561C104.467 52.4778 103.413 52.6266 102.356 52.751L88.6304 54.4602C84.2431 55.0011 79.8584 55.5853 75.463 56.0829C70.81 56.6238 66.111 56.9457 61.4744 56.0829C60.9622 55.9883 60.7427 56.7699 61.2576 56.8645L61.2495 56.897Z" fill="#6062C3"/>
<path d="M52.6211 66.4573L106.771 63.8069C107.294 63.7799 107.296 62.9685 106.771 62.9956L52.6211 65.646C52.1008 65.6703 52.0981 66.4817 52.6211 66.4573Z" fill="#6062C3"/>
<path d="M69.3033 59.7691C69.1519 59.9293 69.0419 60.124 68.983 60.3362C68.9241 60.5484 68.918 60.7718 68.9653 60.9869C69.0126 61.202 69.1118 61.4023 69.2543 61.5704C69.3968 61.7386 69.5783 61.8694 69.783 61.9517C70.5119 62.2843 71.3683 62.0057 72.0918 61.8245C73.1758 61.5541 74.2597 61.3134 75.3735 61.116C77.7976 60.6877 80.253 60.4597 82.7147 60.4344C83.8366 60.4209 84.9503 60.4723 86.0723 60.521C86.8852 60.5534 87.7605 60.6183 88.4488 60.1153C89.2347 59.542 89.4895 58.4223 88.7198 57.7245C87.6359 56.7374 85.2999 57.3108 84.0479 57.4135C79.505 57.7902 74.9915 58.4623 70.5363 59.4257C70.0269 59.5338 70.2409 60.3181 70.7531 60.2073C73.6925 59.5744 76.6544 59.066 79.6389 58.6819C81.1059 58.5016 82.5756 58.3493 84.0479 58.2249C84.7417 58.1681 85.4354 58.1167 86.1292 58.0761C86.4002 58.0599 86.6874 58.0302 86.9638 58.0383C87.8229 58.0572 87.9231 57.903 87.4082 58.9389C86.9503 59.8557 87.0966 59.7502 86.3026 59.7205C85.9666 59.7205 85.6305 59.6826 85.2945 59.6664C84.6062 59.6375 83.9179 59.6222 83.2296 59.6204C81.7644 59.6204 80.3028 59.6907 78.8449 59.8313C77.6092 59.9503 76.3762 60.118 75.154 60.3344C74.3898 60.4696 73.631 60.6265 72.875 60.7995C72.5417 60.878 72.2056 60.9591 71.8723 61.0429C71.7124 61.0862 71.5498 61.1241 71.3899 61.1647C70.7974 61.3702 70.2924 61.0997 69.8751 60.3533C70.2382 59.9774 69.6664 59.4013 69.3006 59.78L69.3033 59.7691Z" fill="#6062C3"/>
<path d="M79.1186 71.3119C75.1974 71.1604 70.9618 72.2179 68.3792 75.3686C66.3576 77.8324 65.2059 82.0595 67.3468 84.8343C69.6475 87.8092 74.6933 87.2846 77.7366 86.0162C80.9559 84.6639 84.4788 81.8756 85.4463 78.3868C86.6522 74.0299 82.7363 70.7358 78.6579 70.6871C78.1349 70.6871 78.1349 71.4985 78.6579 71.4985C80.983 71.5255 83.2648 72.5208 84.3487 74.6817C85.4842 76.9588 84.5059 79.3496 82.9938 81.1724C80.5711 84.0743 76.7827 86.2623 72.9238 86.2001C70.6068 86.1649 68.0459 85.3725 67.3278 82.933C66.737 80.9561 67.1869 78.7952 68.2166 77.0427C70.4442 73.2564 74.9779 71.9745 79.1349 72.1367C79.6579 72.1557 79.6579 71.3443 79.1349 71.3254L79.1186 71.3119Z" fill="#6062C3"/>
<path d="M75.2245 77.3212C75.0573 77.2594 74.8771 77.2408 74.7008 77.2671C74.5245 77.2935 74.3577 77.3639 74.216 77.4719C74.0742 77.5798 73.9622 77.7218 73.8902 77.8846C73.8183 78.0475 73.7888 78.2258 73.8045 78.403C73.8858 79.4578 75.051 79.7553 75.9263 79.6931C76.6824 79.6282 77.5658 79.3496 77.3003 78.4057C77.2514 78.2387 77.167 78.0841 77.0529 77.9525C76.9388 77.8209 76.7977 77.7153 76.639 77.6431C76.3965 77.5471 76.1335 77.5145 75.8748 77.5484C75.7746 77.5484 74.8559 77.8838 75.2461 77.4808L74.6066 77.397C74.6776 77.4668 74.732 77.5517 74.7657 77.6453C74.7995 77.7389 74.8118 77.8389 74.8017 77.9379C74.8029 78.0085 74.8225 78.0777 74.8586 78.1386C74.8946 78.1994 74.9459 78.2499 75.0073 78.2851C75.0688 78.3202 75.1383 78.3389 75.2092 78.3392C75.28 78.3395 75.3497 78.3214 75.4115 78.2867C75.5044 78.2479 75.6064 78.2357 75.706 78.2515C75.8055 78.2673 75.8986 78.3105 75.9749 78.3763C76.0512 78.442 76.1076 78.5277 76.1378 78.6237C76.168 78.7196 76.1708 78.8221 76.1458 78.9196C76.124 79.0133 76.136 79.1116 76.1797 79.1974C76.2235 79.2831 76.2961 79.3506 76.3849 79.3881C76.4736 79.4256 76.5728 79.4307 76.6649 79.4023C76.757 79.374 76.8361 79.3142 76.8883 79.2333C77.1593 78.7465 77.4872 77.7783 77.0808 77.2698C76.8098 76.9264 76.2868 77.0291 75.9616 77.2293C75.7609 77.371 75.574 77.5313 75.4033 77.708C75.0754 77.9973 74.8613 78.1326 74.9833 77.5782C75.1865 76.5694 76.1513 75.7662 77.032 75.3632L76.4358 74.9061C76.1232 76.0784 75.5644 77.1708 74.7963 78.1109L75.49 78.3976C75.4704 78.0263 75.566 77.6579 75.7639 77.3428C75.9617 77.0277 76.2522 76.7812 76.5957 76.637H76.1973L76.4087 76.9832C76.3301 77.4943 77.1133 77.7134 77.1919 77.1968C77.2948 76.5288 76.8721 75.6607 76.0889 75.9879C75.154 76.3774 74.6689 77.4456 74.6879 78.3976C74.6879 78.7222 75.1486 78.9737 75.3844 78.687C76.2462 77.6421 76.8753 76.4261 77.2298 75.1198C77.2486 75.0423 77.2445 74.961 77.2178 74.8858C77.1912 74.8106 77.1432 74.7448 77.0797 74.6963C77.0162 74.6479 76.94 74.6189 76.8603 74.6129C76.7806 74.607 76.7009 74.6243 76.6309 74.6627C75.8191 75.0289 75.1331 75.6252 74.6581 76.3774C74.3275 76.9183 73.9129 77.7621 74.2489 78.3841C74.304 78.4836 74.3783 78.5712 74.4675 78.6419C74.5568 78.7126 74.6591 78.7649 74.7688 78.7959C74.8784 78.8268 74.9931 78.8357 75.1062 78.8222C75.2193 78.8086 75.3286 78.7727 75.4277 78.7167C75.6783 78.5685 75.9071 78.3865 76.1079 78.1758C76.2082 78.0866 76.3193 77.9324 76.4521 77.9054C76.5713 77.8243 76.5659 77.8702 76.4331 78.0487C76.4313 78.329 76.3495 78.6029 76.1973 78.8385L76.9398 79.1495C77.0067 78.8969 76.9989 78.6305 76.9173 78.3823C76.8358 78.1341 76.6839 77.9148 76.4801 77.7509C76.2763 77.587 76.0294 77.4855 75.769 77.4587C75.5087 77.4319 75.2461 77.4809 75.0131 77.5998L75.6255 77.9514C75.6384 77.6072 75.53 77.2694 75.3193 76.9967C75.2873 76.9441 75.2439 76.8993 75.1923 76.8657C75.1407 76.8321 75.0822 76.8104 75.021 76.8024C74.9599 76.7944 74.8978 76.8001 74.8392 76.8192C74.7806 76.8383 74.727 76.8703 74.6825 76.9129C74.2706 77.3429 74.192 78.0866 74.7096 78.4842C75.0971 78.779 75.2868 78.4842 75.7122 78.4166C77.1566 78.2299 76.3138 78.879 75.8044 78.9006C75.5766 78.925 75.3462 78.9085 75.1242 78.852C74.5587 78.6609 74.5235 78.4147 75.0185 78.1136C75.5036 78.3111 75.7123 77.5268 75.2353 77.332L75.2245 77.3212Z" fill="#6062C3"/>
<path d="M74.5714 78.8033C74.9047 79.8851 73.5281 80.2421 72.875 80.6153C72.4167 80.8718 72.017 81.2209 71.7016 81.6403C71.0187 82.5544 70.764 83.7173 70.539 84.8127C70.4361 85.3238 71.2192 85.5402 71.3249 85.029C71.4489 84.2242 71.6794 83.4393 72.0105 82.695C72.4983 81.7268 73.1975 81.4023 74.108 80.9047C75.0185 80.4071 75.677 79.6363 75.3545 78.5869C75.2028 78.0893 74.4169 78.303 74.5714 78.8033Z" fill="#6062C3"/>
<path d="M75.9263 78.2597C75.7325 78.2865 75.5556 78.3845 75.4303 78.5345C75.305 78.6846 75.2403 78.8759 75.2489 79.071C75.2489 79.3929 75.4629 79.5984 75.6093 79.8553C75.9566 80.381 76.2217 80.9565 76.3952 81.5619C76.5252 82.1433 76.6526 83.1846 76.3491 83.7255C75.7881 84.7288 74.7746 84.5368 73.9102 84.5368C73.0972 84.5368 72.4685 84.8073 72.4956 83.6768C72.5119 83.0412 72.9563 82.3976 73.3086 81.8972L72.5661 81.7999C72.7227 82.6257 72.8052 83.4638 72.8127 84.3042C72.8127 84.6801 73.3899 84.8884 73.5687 84.5071C74.0044 83.5924 74.3502 82.6378 74.6012 81.6565L73.8018 81.5484L73.9427 83.6038C73.945 83.6915 73.9756 83.7761 74.0299 83.8451C74.0842 83.9141 74.1594 83.9639 74.2442 83.9869C74.329 84.01 74.419 84.0052 74.5009 83.9732C74.5828 83.9412 74.6522 83.8837 74.6988 83.8093C74.7937 83.7048 74.8632 83.5799 74.902 83.4442C74.9291 83.3171 74.6798 82.4598 74.5795 82.7654L75.3762 82.8736L75.4331 80.9209L74.6202 81.0291C74.792 81.5797 74.8438 82.1607 74.7719 82.7329C74.7204 83.1846 75.4819 83.2873 75.5849 82.8411L76.0944 80.2177L75.3518 80.3124C75.5283 80.6753 75.577 81.0869 75.4901 81.4807C75.4304 82 76.2434 81.9946 76.303 81.4807C76.3721 80.9422 76.2856 80.3952 76.0537 79.904C76.0125 79.8363 75.9525 79.782 75.8809 79.7478C75.8093 79.7135 75.7293 79.7008 75.6506 79.7111C75.572 79.7214 75.498 79.7544 75.4377 79.8059C75.3774 79.8574 75.3335 79.9254 75.3112 80.0014L74.799 82.6247L75.5984 82.7329C75.6797 82.0882 75.6178 81.4335 75.4169 80.8154C75.3897 80.7223 75.33 80.642 75.2486 80.589C75.1672 80.536 75.0695 80.5139 74.9731 80.5266C74.8768 80.5394 74.7882 80.5862 74.7234 80.6585C74.6587 80.7308 74.622 80.8239 74.6202 80.9209L74.5633 82.8736C74.5633 83.3468 75.2218 83.4144 75.3627 82.9817L75.406 82.8492C75.4248 82.7801 75.4252 82.7074 75.4071 82.6381C75.389 82.5689 75.3532 82.5055 75.3031 82.4544C74.4603 81.5402 74.2896 82.9953 73.9969 83.3982L74.7557 83.6038L74.6147 81.5484C74.5849 81.1102 73.9346 80.975 73.8153 81.4402C73.5863 82.3549 73.2686 83.2453 72.8668 84.0987L73.6256 84.3042C73.6169 83.3911 73.5262 82.4805 73.3546 81.5835C73.2842 81.2103 72.7937 81.2265 72.6121 81.4862C72.0701 82.265 71.1325 83.9662 71.8561 84.8992C72.4875 85.7106 74.4738 85.3968 75.322 85.3455C76.6607 85.2697 77.1458 84.4232 77.2921 83.1629C77.3619 82.5594 77.328 81.9485 77.1919 81.3563C77.1187 81.0372 76.3789 79.0143 76.1567 79.0548C76.6716 78.9602 76.4521 78.1759 75.9399 78.2705L75.9263 78.2597Z" fill="#6062C3"/>
<path d="M74.3519 80.0825L72.1325 83.0061L72.8343 83.4144L74.4603 81.067L73.7178 80.7532L72.9075 83.8391C72.8857 83.9327 72.8977 84.0311 72.9414 84.1168C72.9851 84.2026 73.0578 84.2701 73.1465 84.3076C73.2353 84.3451 73.3344 84.3501 73.4266 84.3218C73.5187 84.2935 73.5978 84.2336 73.65 84.1528C74.0187 83.5431 74.4327 82.9618 74.8884 82.4138L74.211 82.0189C74.029 82.7176 73.6782 83.3611 73.1893 83.8931L73.8695 84.288C73.9111 83.9143 74.0108 83.5493 74.1649 83.2062C74.3736 82.7383 73.7123 82.3245 73.463 82.7951C73.2337 83.2237 72.9719 83.6342 72.6799 84.023L73.4224 84.1203L73.5877 83.3495L72.8452 83.2522L72.9644 83.9283C72.984 83.9963 73.0209 84.0581 73.0716 84.1076C73.1223 84.1571 73.1851 84.1926 73.2536 84.2106C73.3222 84.2285 73.3943 84.2285 73.4629 84.2103C73.5314 84.1921 73.594 84.1564 73.6446 84.1068C74.3319 83.397 74.883 82.5674 75.2705 81.6592H74.5714C74.7552 81.9974 74.8842 82.3626 74.9535 82.741C75.051 83.2278 75.6987 83.0466 75.7502 82.6329C75.8666 81.7269 75.9263 80.8147 75.929 79.9013H75.1161V81.6024C75.1161 82.0433 75.8396 82.1731 75.9155 81.7106C75.9692 81.3003 76.1046 80.9049 76.3139 80.5477H75.6011C75.7729 80.8242 75.8665 81.1419 75.8721 81.4672C75.8721 81.5748 75.915 81.678 75.9912 81.7541C76.0674 81.8302 76.1708 81.8729 76.2786 81.8729C76.3864 81.8729 76.4898 81.8302 76.5661 81.7541C76.6423 81.678 76.6851 81.5748 76.6851 81.4672L76.7881 80.9263H76.0049C76.0835 81.405 76.3816 84.1014 75.322 83.785C75.1432 83.7417 75.0917 83.7525 75.1676 83.8147L75.4087 83.3009L75.9751 82.1028L75.2163 81.8972C75.2651 82.4544 75.3166 83.2495 74.9806 83.7255C74.7096 84.1122 73.8749 84.2664 73.4495 84.0392C73.1686 83.8394 72.9285 83.5878 72.7422 83.2982L72.1867 83.8391C72.6365 84.1663 73.3655 84.9695 73.9454 85.0155C74.3871 85.0507 74.7584 84.6856 75.0483 84.3935C75.4931 83.9348 75.8399 83.3907 76.0677 82.7943C76.2955 82.1978 76.3995 81.5614 76.3735 80.9236C76.3735 80.816 76.3306 80.7128 76.2544 80.6368C76.1782 80.5607 76.0748 80.5179 75.967 80.5179C75.8592 80.5179 75.7558 80.5607 75.6796 80.6368C75.6033 80.7128 75.5605 80.816 75.5605 80.9236V81.8486C75.5605 81.9562 75.6033 82.0593 75.6796 82.1354C75.7558 82.2115 75.8592 82.2542 75.967 82.2542C76.0748 82.2542 76.1782 82.2115 76.2544 82.1354C76.3306 82.0593 76.3735 81.9562 76.3735 81.8486V79.5795C76.3735 79.4719 76.3306 79.3687 76.2544 79.2926C76.1782 79.2166 76.0748 79.1738 75.967 79.1738C75.8592 79.1738 75.7558 79.2166 75.6796 79.2926C75.6033 79.3687 75.5605 79.4719 75.5605 79.5795C75.559 80.1234 75.5119 80.6662 75.4196 81.2022L76.219 81.3104C76.1554 80.6642 76.1255 80.0151 76.1296 79.3658C76.1283 79.2686 76.0921 79.1751 76.0276 79.1023C75.963 79.0295 75.8744 78.9823 75.7779 78.9692C75.6814 78.9561 75.5834 78.978 75.5017 79.0309C75.42 79.0839 75.3601 79.1643 75.3329 79.2577C75.2109 79.7742 75.0619 80.2827 74.9182 80.7884L75.6608 80.691L75.6039 80.4747C75.5659 79.9581 74.7529 79.9554 74.7909 80.4747C74.7998 80.6936 74.8572 80.9079 74.9589 81.1021C75.1161 81.4321 75.6066 81.3158 75.7014 81.0048C75.8559 80.4963 75.9941 79.9879 76.116 79.474L75.3166 79.3658C75.3125 80.0151 75.3424 80.6642 75.406 81.3104C75.4467 81.7269 76.1187 81.9053 76.2027 81.4185C76.311 80.8077 76.3681 80.189 76.3735 79.5687H75.5605V81.8377H76.3735V80.9128H75.5605C75.6083 81.933 75.2532 82.9313 74.5714 83.693C74.4658 83.8128 74.3517 83.9249 74.2299 84.0284C74.0375 84.2123 73.8614 84.1852 73.7069 83.9445C73.3221 83.785 72.9237 83.3739 72.5877 83.1332C72.2517 82.8925 71.791 83.3685 72.0295 83.6876C72.6528 84.5152 73.5823 85.4374 74.7394 85.0398C75.9561 84.6098 76.1215 82.9655 76.0293 81.8837C75.9995 81.524 75.4602 81.2806 75.2732 81.6809C75.0023 82.2515 74.7313 82.8195 74.4603 83.3928C74.3654 83.5929 74.1893 83.8688 74.2164 84.1068C74.3058 84.7153 75.0456 84.6152 75.5009 84.5801C77.265 84.4476 76.9859 81.9513 76.7827 80.6964C76.7149 80.28 76.1079 80.3449 75.9995 80.6964C75.9134 80.9435 75.8685 81.203 75.8667 81.4645H76.6797C76.6502 80.9995 76.5199 80.5464 76.2976 80.1366C76.2612 80.0761 76.2098 80.0261 76.1483 79.9913C76.0868 79.9565 76.0173 79.9383 75.9467 79.9383C75.876 79.9383 75.8065 79.9565 75.745 79.9913C75.6835 80.0261 75.6321 80.0761 75.5957 80.1366C75.3534 80.5541 75.1899 81.0125 75.1134 81.4889L75.9263 81.597V79.8959C75.9263 79.7883 75.8835 79.6851 75.8073 79.6091C75.7311 79.533 75.6277 79.4902 75.5198 79.4902C75.412 79.4902 75.3086 79.533 75.2324 79.6091C75.1562 79.6851 75.1134 79.7883 75.1134 79.8959C75.1106 80.8093 75.0509 81.7215 74.9345 82.6274L75.7339 82.5193C75.642 82.0771 75.4858 81.6507 75.2705 81.2536C75.2342 81.1931 75.1828 81.143 75.1213 81.1083C75.0598 81.0735 74.9903 81.0552 74.9196 81.0552C74.8489 81.0552 74.7794 81.0735 74.7179 81.1083C74.6564 81.143 74.605 81.1931 74.5687 81.2536C74.2153 82.1006 73.7071 82.8746 73.0701 83.5362L73.7503 83.7147L73.631 83.0385C73.5687 82.6788 73.0592 82.668 72.8885 82.9412C72.7538 83.1445 72.6625 83.3733 72.62 83.6134C72.5776 83.8534 72.5851 84.0996 72.6419 84.3367C72.7097 84.7207 73.1975 84.6802 73.3844 84.434C73.6765 84.0462 73.9383 83.6367 74.1676 83.2089L73.4657 82.7978C73.2783 83.2019 73.1506 83.631 73.0863 84.0716C73.0376 84.4286 73.463 84.8019 73.7665 84.4665C74.3491 83.8303 74.7709 83.0644 74.9968 82.2326C75.0971 81.8648 74.5876 81.5159 74.3166 81.8377C73.8181 82.434 73.3652 83.0668 72.9617 83.7309L73.7042 84.0446L74.5307 80.9696C74.5526 80.8759 74.5406 80.7775 74.4968 80.6918C74.4531 80.6061 74.3805 80.5385 74.2917 80.501C74.2029 80.4635 74.1038 80.4585 74.0117 80.4868C73.9196 80.5152 73.8404 80.575 73.7882 80.6559L72.1623 83.0061C71.8588 83.4415 72.5552 83.8174 72.8641 83.4144L75.0754 80.4936C75.3898 80.0771 74.6852 79.6823 74.3736 80.0825H74.3519Z" fill="#6062C3"/>
<path d="M108.925 89.843C112.177 87.8579 114.762 84.8965 117.635 82.4192C120.751 79.7336 124.022 77.232 127.39 74.8629C133.932 70.2652 140.802 66.1517 147.666 62.049C147.755 61.9929 147.818 61.9044 147.843 61.8024C147.868 61.7003 147.853 61.5926 147.8 61.5019C147.747 61.4111 147.66 61.3444 147.559 61.3158C147.458 61.2872 147.349 61.299 147.257 61.3485C140.392 65.4513 133.52 69.5567 126.978 74.1624C123.892 76.326 120.878 78.6194 117.99 81.0534C114.846 83.7038 112.047 87.0033 108.505 89.1426C108.058 89.413 108.467 90.1162 108.914 89.843H108.925Z" fill="#6062C3"/>
<path d="M158.161 49.4515C154.638 49.8085 150.845 50.7037 148.677 53.7787C146.804 56.4237 146.845 61.0375 148.604 63.7528C150.601 66.8387 154.682 66.9495 157.852 65.9516C161.023 64.9536 164.305 63.2038 164.275 59.423C164.259 57.3946 163.524 55.2824 162.714 53.4433C162.015 51.8558 160.776 50.4684 158.901 50.6442C158.384 50.6929 158.378 51.5042 158.901 51.4555C161.413 51.223 162.221 54.2006 162.817 56.0802C163.359 57.8354 163.86 59.9125 163.009 61.6569C162.158 63.4013 160.107 64.291 158.354 64.9293C156.457 65.6162 154.373 66.0354 152.392 65.4702C148.468 64.3749 147.384 59.4121 148.514 55.8909C149.815 51.8342 154.422 50.6415 158.175 50.2629C158.69 50.2115 158.695 49.4001 158.175 49.4515H158.161Z" fill="#6062C3"/>
<path d="M163.581 80.8235C160.058 81.1805 156.264 82.0757 154.096 85.1507C152.224 87.7957 152.265 92.4096 154.023 95.1249C156.021 98.2107 160.102 98.3216 163.272 97.3236C166.443 96.3257 169.725 94.5759 169.695 90.795C169.678 88.7666 168.944 86.6544 168.134 84.8154C167.435 83.2278 166.196 81.8404 164.321 82.0162C163.803 82.0649 163.798 82.8762 164.321 82.8276C166.833 82.595 167.641 85.5726 168.237 87.4522C168.779 89.2074 169.28 91.2845 168.429 93.0289C167.578 94.7733 165.527 95.6631 163.774 96.3013C161.877 96.9883 159.793 97.4075 157.812 96.8422C153.888 95.7469 152.804 90.7842 153.934 87.2629C155.235 83.2062 159.842 82.0135 163.595 81.6349C164.11 81.5835 164.115 80.7722 163.595 80.8235H163.581Z" fill="#6062C3"/>
<path d="M152.847 57.3513L155.413 60.2721C155.464 60.3211 155.527 60.3561 155.595 60.3737C155.664 60.3913 155.735 60.391 155.804 60.3728C155.872 60.3545 155.934 60.319 155.984 60.2696C156.035 60.2202 156.071 60.1587 156.091 60.091C156.633 58.6684 156.53 57.1945 156.657 55.6989C156.798 54.1531 157.187 52.6399 157.809 51.2175C159.059 48.3325 161.179 45.9078 163.874 44.2805C164.321 44.0101 163.912 43.3069 163.465 43.5801C160.808 45.1768 158.676 47.5137 157.332 50.3034C156.674 51.6609 156.218 53.1067 155.977 54.5954C155.706 56.3506 155.953 58.1897 155.302 59.8746L155.983 59.6934L153.43 56.778C153.083 56.3858 152.511 56.9619 152.855 57.3513H152.847Z" fill="#6062C3"/>
<path d="M110.234 93.0045C124.212 92.579 138.193 92.4889 152.178 92.7341C152.701 92.7341 152.701 91.9228 152.178 91.9228C138.197 91.674 124.215 91.7641 110.234 92.1932C109.711 92.2094 109.708 93.0208 110.234 93.0045Z" fill="#6062C3"/>
<path d="M155.099 85.0047C159.877 86.8763 164.474 89.1811 168.83 91.8903C169.275 92.1607 169.684 91.4657 169.239 91.1898C164.826 88.4472 160.168 86.1152 155.327 84.2231C154.842 84.0311 154.63 84.8154 155.113 85.0047H155.099Z" fill="#6062C3"/>
<path d="M163.776 81.3293C158.931 86.9666 156.124 94.0653 155.806 101.486C155.785 102.008 156.598 102.008 156.619 101.486C156.927 94.2784 159.65 87.3826 164.351 81.9026C164.689 81.5078 164.118 80.9317 163.776 81.3293Z" fill="#6062C3"/>
<path d="M55.3933 90.0594L85.682 89.6645L89.1643 89.6185C89.7903 89.6185 90.4163 89.5969 91.0422 89.5942C91.923 89.5942 92.5164 90.3244 92.5002 91.2169C92.4595 93.11 91.2672 93.0424 89.7063 93.11L85.9422 93.2804L70.6149 93.9538C67.8698 94.0755 65.1219 94.2243 62.3768 94.3189C59.8999 94.3947 55.1901 93.5887 56.2903 89.9918C56.4421 89.4914 55.6589 89.2778 55.5044 89.7754C54.9625 91.5441 55.9218 93.3399 57.4664 94.2676C59.6587 95.5819 62.5475 95.1357 64.9675 95.0275L83.7851 94.1756L88.354 93.9728C89.5247 93.9187 91.1533 94.1567 92.2292 93.6131C93.492 92.9775 93.7142 90.4542 92.9175 89.3914C92.5083 88.8505 91.9338 88.8018 91.2916 88.7774C89.606 88.7125 87.8906 88.8234 86.2023 88.8451L76.8206 88.9695L55.3825 89.2399C54.8595 89.2399 54.8595 90.0513 55.3825 90.0513L55.3933 90.0594Z" fill="#6062C3"/>
<path d="M177.768 189.449C177.085 189.877 176.304 190.117 175.6 190.493C174.895 190.869 174.209 191.434 174.009 192.213C173.934 192.455 173.947 192.715 174.044 192.949C174.219 193.231 174.488 193.443 174.803 193.549C176.234 194.184 177.78 194.52 179.346 194.538C180.912 194.555 182.466 194.254 183.911 193.652C184.42 193.408 184.945 193.2 185.483 193.03C186.145 192.895 186.82 192.826 187.496 192.824C188.207 192.783 188.914 192.693 189.613 192.554C189.964 192.515 190.296 192.377 190.572 192.156C190.823 191.867 190.974 191.505 191.003 191.123C191.324 189.016 190.84 186.866 189.648 185.098C189.498 184.85 189.296 184.637 189.057 184.473C188.765 184.323 188.445 184.237 188.117 184.221C186.762 184.056 185.342 183.754 183.973 183.721C182.992 183.699 182.499 184.165 181.805 184.838C180.372 186.269 179.534 188.348 177.768 189.449Z" fill="#323444"/>
<path d="M197.737 189.249C197.737 190.574 197.897 191.978 198.702 193.035C199.07 193.493 199.515 193.882 200.019 194.185C201.72 195.267 203.975 195.664 205.769 194.747C206.059 194.618 206.307 194.41 206.484 194.147C206.755 193.676 206.612 193.089 206.46 192.57L203.864 183.591C202.187 183.848 199.721 184.029 198.23 184.879C197.149 185.493 197.737 188.065 197.737 189.249Z" fill="#323444"/>
<path d="M176.245 133.961C176.087 134.456 175.518 134.686 175.207 135.103C174.841 135.592 174.879 136.271 175.012 136.866C175.176 137.743 175.589 138.555 176.201 139.205C176.512 139.527 176.896 139.77 177.32 139.914C177.744 140.058 178.197 140.099 178.64 140.033C179.513 139.868 180.266 139.097 180.296 138.213C180.28 137.811 180.194 137.414 180.041 137.042L178.193 131.708C178.185 131.671 178.17 131.635 178.148 131.604C178.125 131.573 178.096 131.546 178.063 131.527C177.993 131.512 177.92 131.524 177.86 131.562C177.423 131.768 176.548 131.984 176.293 132.436C176.039 132.888 176.429 133.472 176.245 133.961Z" fill="#FBB3B2"/>
<path d="M175.38 133.694C176.055 133.588 176.646 133.193 177.277 132.934C177.908 132.674 178.7 132.574 179.231 133.007C179.383 133.131 179.529 133.301 179.727 133.299C179.458 131.976 179.051 130.686 178.513 129.448C178.494 129.388 178.457 129.336 178.407 129.299C178.333 129.269 178.251 129.269 178.177 129.299L176.353 129.775C175.678 129.951 175.6 129.896 175.651 130.559C175.665 130.854 175.816 133.694 175.38 133.694Z" fill="#323444"/>
<path d="M175.18 95.1816C174.909 95.5981 174.909 96.1174 174.909 96.6069C174.909 99.0004 174.933 101.407 175.288 103.777C175.372 104.344 175.478 104.912 175.532 105.486C175.593 106.284 175.606 107.085 175.57 107.885L175.299 118.297C175.266 119.571 175.201 120.939 174.413 121.94C174.174 122.275 174.061 122.684 174.096 123.095C174.302 125.707 174.735 128.298 175.166 130.881C175.86 130.569 176.618 130.425 177.378 130.461C178.138 130.497 178.879 130.712 179.54 131.089C180.907 126.799 181.663 122.338 181.786 117.837C181.849 115.622 181.754 113.394 182.095 111.206C182.667 107.522 182.434 103.744 182.014 100.039C181.881 98.8652 181.599 97.6563 180.846 96.7475C180.133 95.9525 179.183 95.4065 178.136 95.1898C177.133 94.9274 176.236 95.1979 175.18 95.1816Z" fill="#5B5583"/>
<path opacity="0.1" d="M175.18 95.1816C174.909 95.5981 174.909 96.1174 174.909 96.6069C174.909 99.0004 174.933 101.407 175.288 103.777C175.372 104.344 175.478 104.912 175.532 105.486C175.593 106.284 175.606 107.085 175.57 107.885L175.299 118.297C175.266 119.571 175.201 120.939 174.413 121.94C174.174 122.275 174.061 122.684 174.096 123.095C174.302 125.707 174.735 128.298 175.166 130.881C175.86 130.569 176.618 130.425 177.378 130.461C178.138 130.497 178.879 130.712 179.54 131.089C180.907 126.799 181.663 122.338 181.786 117.837C181.849 115.622 181.754 113.394 182.095 111.206C182.667 107.522 182.434 103.744 182.014 100.039C181.881 98.8652 181.599 97.6563 180.846 96.7475C180.133 95.9525 179.183 95.4065 178.136 95.1898C177.133 94.9274 176.236 95.1979 175.18 95.1816Z" fill="black"/>
<path d="M178.491 125.377C176.674 134.672 177.666 144.297 181.342 153.028C181.66 153.674 181.882 154.363 182.003 155.072C182.152 156.398 181.54 157.672 181.19 158.953C180.377 161.869 180.846 164.974 181.366 167.957C181.583 169.201 181.806 170.444 182.036 171.686C182.261 172.898 182.477 174.215 181.914 175.313C182.399 177.33 182.686 179.329 183.171 181.347C183.223 181.506 183.238 181.675 183.217 181.841C183.119 182.106 182.947 182.336 182.721 182.504C182.36 182.87 182.1 183.323 181.967 183.82C181.835 184.316 181.834 184.839 181.965 185.336C183.204 184.449 184.93 184.76 186.344 185.336C187.759 185.912 189.152 186.688 190.68 186.688C190.458 184.898 190.244 183.018 190.905 181.338C191.29 180.365 191.968 179.445 191.949 178.404C191.93 177.471 191.358 176.638 191.22 175.716C191.168 175.142 191.19 174.564 191.285 173.996C191.648 170.685 191.236 167.343 190.824 164.038C190.777 163.386 190.624 162.747 190.369 162.145C190.176 161.755 189.889 161.382 189.894 160.947C189.894 160.441 190.304 160.03 190.455 159.548C190.726 158.661 190.228 157.455 190.978 156.906C192.957 155.457 192.198 151.995 192.155 149.547C192.12 147.436 192.03 145.326 191.884 143.219C193.129 146.714 193.638 150.428 193.379 154.129C193.293 155.34 193.133 156.614 193.607 157.734C193.97 158.594 194.691 159.302 194.886 160.214C195.008 160.776 194.921 161.358 194.948 161.931C194.976 162.504 195.171 163.129 195.667 163.419C195.704 166.026 195.938 168.814 195.978 171.421C195.952 172.754 196.061 174.086 196.303 175.397C196.425 175.814 196.492 176.245 196.504 176.679C196.443 177.223 196.298 177.755 196.076 178.255C195.603 179.651 195.48 181.141 195.716 182.595C195.952 184.049 196.541 185.423 197.431 186.599C198.07 185.466 199.404 184.865 200.704 184.77C202.005 184.676 203.29 185.003 204.55 185.333C204.357 183.753 204.672 182.152 205.449 180.762C205.658 180.449 205.818 180.106 205.924 179.746C206.07 179.059 205.728 178.374 205.544 177.696C205.243 176.614 205.349 175.448 205.42 174.318C205.656 170.531 205.488 166.731 204.918 162.98C204.83 162.242 204.657 161.516 204.401 160.817C204.303 160.568 204.184 160.33 204.103 160.079C203.975 159.627 203.902 159.162 203.886 158.694L203.574 154.367C203.355 151.335 204.352 148.341 205.048 145.382C205.36 144.057 205.699 142.735 205.907 141.388C206.192 139.554 206.238 137.68 206.655 135.871C207.029 134.248 207.704 132.666 207.845 131.003C208.062 128.425 206.989 125.934 205.948 123.571C205.514 122.597 203.875 122.694 202.821 122.521C195.344 121.296 187.469 121.288 180.418 124.049C179.689 124.351 179.032 124.803 178.491 125.377Z" fill="#3C354C"/>
<path d="M183.881 77.3753L184.71 80.5937C184.936 81.3318 185.061 82.0968 185.082 82.8682C185.09 83.1495 185.028 83.4285 184.9 83.6795C184.764 83.8856 184.589 84.0637 184.385 84.2042C183.819 84.6342 183.426 85.6375 182.778 85.935C183.112 86.5138 183.572 86.1379 184.174 86.4273C185.233 86.9411 186.204 87.6794 187.353 87.9337C188.437 88.1717 189.575 87.9472 190.65 87.6632C192.176 87.2494 193.694 86.6788 194.921 85.6808C196.149 84.6829 196.848 83.8012 196.843 82.2245C195.488 82.384 194.282 81.0183 193.683 79.7904C193.475 79.3237 193.322 78.8345 193.228 78.3327L192.501 75.1441C191.71 75.3172 191.065 75.8825 190.309 76.1773C189.553 76.472 188.659 76.4991 187.819 76.5369C186.327 76.6046 184.844 76.7964 183.385 77.1103C183.185 77.1509 182.933 77.278 182.981 77.4727" fill="#FBB3B2"/>
<path opacity="0.1" d="M183.881 77.3753L184.71 80.5937C184.936 81.3318 185.061 82.0968 185.082 82.8682C185.09 83.1495 185.028 83.4285 184.9 83.6795C184.764 83.8856 184.589 84.0637 184.385 84.2042C183.819 84.6342 183.426 85.6375 182.778 85.935C183.112 86.5138 183.572 86.1379 184.174 86.4273C185.233 86.9411 186.204 87.6794 187.353 87.9337C188.437 88.1717 189.575 87.9472 190.65 87.6632C192.176 87.2494 193.694 86.6788 194.921 85.6808C196.149 84.6829 196.848 83.8012 196.843 82.2245C195.488 82.384 194.282 81.0183 193.683 79.7904C193.475 79.3237 193.322 78.8345 193.228 78.3327L192.501 75.1441C191.71 75.3172 191.065 75.8825 190.309 76.1773C189.553 76.472 188.659 76.4991 187.819 76.5369C186.327 76.6046 184.844 76.7964 183.385 77.1103C183.185 77.1509 182.933 77.278 182.981 77.4727" fill="black"/>
<path d="M187.442 79.1495C191.405 79.1495 194.618 75.9432 194.618 71.988C194.618 68.0328 191.405 64.8265 187.442 64.8265C183.479 64.8265 180.266 68.0328 180.266 71.988C180.266 75.9432 183.479 79.1495 187.442 79.1495Z" fill="#FBB3B2"/>
<path d="M189.417 83.7931C189.801 82.9659 190.355 82.2288 191.043 81.6295C192.054 80.7451 193.436 80.0284 193.675 78.7086L195.864 81.2536C195.983 81.3716 196.076 81.5136 196.135 81.6701C196.163 81.8168 196.159 81.9678 196.123 82.1128C196.088 82.2578 196.022 82.3937 195.929 82.5112C195.387 83.3739 194.534 83.9905 193.726 84.6152C191.875 86.0785 190.103 87.6384 188.417 89.2886C188.343 89.3747 188.244 89.4352 188.133 89.4617C188.028 89.4646 187.925 89.4353 187.838 89.3779C186.383 88.6157 185.096 87.5712 184.052 86.3056C183.973 86.2109 183.876 86.1027 183.748 86.1108C183.672 86.1249 183.601 86.1616 183.545 86.2163C182.816 86.8113 182.019 87.5226 181.084 87.4306C182.296 86.5625 182.981 85.1129 183.236 83.6443C183.287 83.1417 183.39 82.6458 183.545 82.165C183.625 81.9244 183.764 81.7073 183.948 81.5328C184.132 81.3582 184.357 81.2317 184.602 81.1643C184.011 82.0649 184.415 83.3414 185.209 84.0689C185.98 84.7224 186.905 85.17 187.897 85.3698C188.819 85.5429 189.09 84.5017 189.417 83.7931Z" fill="#323444"/>
<path d="M180.082 126.113C181.103 126.364 182.071 126.792 183.063 127.108C184.87 127.673 186.773 127.873 188.659 127.695C189.239 127.682 189.804 127.503 190.285 127.178C190.412 127.076 190.529 126.954 190.664 126.859C190.891 126.724 191.136 126.622 191.393 126.559C193.878 125.783 195.959 124.109 197.978 122.47C198.043 122.416 198.116 122.348 198.111 122.262C198.102 122.203 198.073 122.149 198.03 122.108L196.967 120.891C194.181 121.364 191.328 121.185 188.502 121.115C187.921 121.089 187.34 121.105 186.762 121.161C186.204 121.226 185.653 121.366 185.103 121.485C183.014 121.94 180.879 122.113 178.762 122.41C178.614 122.421 178.47 122.466 178.342 122.54C178.253 122.609 178.177 122.693 178.117 122.789L177.375 123.83C177.086 124.181 176.874 124.587 176.751 125.023C176.578 125.834 176.941 126.105 177.632 125.999C178.448 125.88 179.28 125.919 180.082 126.113Z" fill="#323444"/>
<path d="M188.388 88.0499C187.559 87.2022 186.619 86.4699 185.594 85.8728C185.18 85.6103 184.72 85.4269 184.239 85.3319C183.997 85.2842 183.747 85.29 183.507 85.3489C183.268 85.4077 183.044 85.5183 182.851 85.6727C182.61 85.8863 182.458 86.1838 182.225 86.4083C181.932 86.6542 181.596 86.844 181.234 86.9681C180 87.4942 178.831 88.1593 177.749 88.9505C177.159 89.3623 176.627 89.8518 176.169 90.4055C174.941 91.9741 174.757 94.108 174.789 96.0985C174.814 97.4832 176.144 98.5109 177.06 99.5467C177.919 100.566 178.697 101.651 179.385 102.792C179.879 103.571 180.393 104.415 180.331 105.342C180.28 106.102 179.835 106.816 179.906 107.574C179.93 107.844 180.017 108.093 180.041 108.355C180.09 108.896 179.876 109.437 179.822 109.978C179.748 110.743 179.998 111.503 180.011 112.274C180.001 112.802 179.934 113.327 179.811 113.84C179.291 116.312 178.637 118.797 178.77 121.321L177.269 121.591C177.411 121.73 177.519 121.901 177.582 122.089C177.646 122.277 177.665 122.478 177.637 122.674C177.608 122.871 177.534 123.058 177.42 123.221C177.306 123.384 177.155 123.518 176.979 123.611C179.323 124.393 181.857 123.998 184.342 123.995C186.399 123.995 188.447 124.266 190.501 124.228C192.556 124.19 194.675 123.819 196.368 122.659C196.829 122.346 197.252 121.978 197.737 121.705C198.387 121.369 199.087 121.14 199.81 121.028C201.15 120.773 202.511 120.652 203.875 120.666C204.541 120.666 205.268 120.693 205.799 120.293C206.384 119.849 206.533 119.046 206.612 118.319C206.69 117.55 206.739 116.78 206.753 116.009C206.775 115.409 206.744 114.808 206.658 114.213C206.577 113.778 206.471 113.349 206.341 112.926L205.319 109.334C204.896 107.852 205.485 106.227 205.609 104.691C205.639 104.328 205.644 103.906 205.365 103.674C205.265 103.59 205.127 103.533 205.094 103.403C205.08 103.342 205.078 103.278 205.089 103.215C205.1 103.153 205.124 103.094 205.159 103.041C205.701 101.959 206.514 101.004 207.257 100.028C208.504 98.3156 209.662 96.54 210.725 94.7084C210.392 90.8757 208.775 87.2668 206.135 84.4638C205.593 83.8769 204.972 83.3144 204.214 83.0493C203.718 82.8982 203.203 82.8154 202.685 82.8032C200.561 82.6599 198.349 82.5328 196.498 81.4672C196.366 81.3754 196.215 81.3119 196.057 81.2806C195.648 81.2346 195.349 81.6376 195.084 81.9567C194.401 82.7681 193.396 83.2333 192.512 83.8309C190.865 84.9479 189.577 86.484 188.388 88.0499Z" fill="#5B5583"/>
<path d="M210.91 95.8145C211.333 97.1505 211.292 98.5785 211.43 99.9713C211.512 100.812 211.66 101.645 211.872 102.462C211.969 102.911 212.143 103.341 212.387 103.731C212.631 104.088 212.98 104.377 213.135 104.78C213.219 105.053 213.257 105.338 213.246 105.624L213.278 107.49C213.348 108.479 213.197 109.471 212.837 110.394L211.669 113.94C211.037 115.86 210.39 117.81 209.251 119.481C209.091 119.764 208.848 119.992 208.555 120.133C208.325 120.194 208.09 120.23 207.853 120.241C207.44 120.315 207.065 120.53 206.794 120.849C206.522 121.169 206.371 121.572 206.365 121.991C206.094 121.596 205.756 121.251 205.365 120.972L202.989 119.078C202.176 118.419 201.328 117.748 200.341 117.367C201.668 116.953 202.846 116.164 203.732 115.095C204.618 114.027 205.174 112.724 205.333 111.346C205.332 110.936 205.425 110.531 205.604 110.162C205.802 109.843 206.167 109.599 206.195 109.223C206.227 108.75 205.691 108.393 205.691 107.92C205.691 107.606 205.924 107.346 206.027 107.052C206.123 106.687 206.123 106.304 206.027 105.94L205.699 104.123C205.679 103.941 205.624 103.764 205.536 103.603C205.413 103.449 205.277 103.306 205.13 103.176C204.566 102.546 204.815 101.553 205.13 100.777C205.851 99.0543 206.781 97.4259 207.899 95.9281C208.297 95.4251 208.665 94.8996 209.002 94.3541C209.289 93.8565 209.354 93.1668 209.658 92.7314C210.048 93.7537 210.576 94.7625 210.91 95.8145Z" fill="#5B5583"/>
<path d="M200.257 117.477C200.136 117.567 200.032 117.677 199.948 117.802C199.629 118.202 199.204 118.505 198.721 118.676C198.992 118.87 199.238 119.062 199.493 119.26C201.378 120.712 203.103 122.36 204.642 124.174C204.812 123.565 205.834 123.609 206.083 123.027C206.142 122.861 206.161 122.683 206.138 122.508C206.086 121.597 205.955 120.692 205.747 119.803C205.665 119.346 205.48 118.913 205.205 118.538C204.826 118.081 204.235 117.861 203.672 117.672C202.818 117.375 201.124 116.955 200.257 117.477Z" fill="#323444"/>
<path d="M196.87 119.603C196.057 120.204 195.344 120.955 194.431 121.366C193.786 121.659 193.051 121.786 192.488 122.221C192.794 122.895 193.591 123.243 194.331 123.216C195.071 123.144 195.781 122.884 196.393 122.462C196.878 122.164 197.447 121.818 197.975 122.026C198.057 122.437 197.704 122.824 197.704 123.241C197.704 123.657 198.051 123.96 198.393 124.179C200.019 125.226 202.111 125.139 204.048 125.018C204.159 125.022 204.269 124.989 204.36 124.926C204.402 124.877 204.434 124.82 204.454 124.759C204.474 124.697 204.482 124.633 204.476 124.569C204.501 124.141 204.512 123.717 204.514 123.289C204.569 122.945 204.524 122.592 204.385 122.272C204.246 121.952 204.018 121.678 203.729 121.483C202.677 120.581 201.543 119.779 200.341 119.089C199.149 118.4 197.94 118.808 196.87 119.603Z" fill="#FBB3B2"/>
<path d="M189.962 68.9941C188.759 69.1375 187.884 70.0759 188.006 71.0955C188.128 72.1151 189.201 72.8183 190.404 72.6722C191.607 72.5262 192.482 71.5905 192.36 70.5736C192.239 69.5567 191.165 68.8508 189.962 68.9941ZM190.371 72.391C189.352 72.5127 188.445 71.915 188.339 71.055C188.233 70.1949 188.978 69.3998 189.995 69.2781C191.011 69.1564 191.921 69.7541 192.027 70.6141C192.133 71.4742 191.388 72.2693 190.371 72.391Z" fill="#3C354C"/>
<path d="M184.098 69.6973C182.895 69.8406 182.019 70.7791 182.141 71.796C182.263 72.8129 183.336 73.5187 184.54 73.3754C185.743 73.232 186.618 72.2936 186.496 71.274C186.374 70.2544 185.301 69.554 184.098 69.6973ZM184.507 73.0914C183.488 73.2131 182.58 72.6154 182.477 71.7581C182.374 70.9008 183.114 70.103 184.133 69.9786C185.152 69.8542 186.06 70.4545 186.163 71.3146C186.266 72.1746 185.523 72.9697 184.507 73.0914Z" fill="#3C354C"/>
<path d="M179.743 70.2193L182.358 70.7764L182.101 71.4633L179.635 70.7412L179.743 70.2193Z" fill="#3C354C"/>
<path d="M194.32 68.4722L191.908 69.6324L192.322 70.2382L194.547 68.9536L194.32 68.4722Z" fill="#3C354C"/>
<path d="M186.255 70.6033L188.09 70.3842L187.995 70.8386L186.42 70.9441L186.255 70.6033Z" fill="#3C354C"/>
<path d="M182.697 69.9894C182.87 69.6188 182.962 69.2161 182.968 68.8075C182.974 68.563 183.016 68.3206 183.093 68.0881C183.226 67.7928 183.428 67.534 183.683 67.3336C184.529 66.6196 185.74 66.2518 186.935 66.2004C188.238 66.1406 189.535 66.4202 190.697 67.0117C191.052 67.1777 191.369 67.4132 191.631 67.7041C192.011 68.1666 192.092 68.7643 192.474 69.2213C192.735 69.4986 193.063 69.7041 193.427 69.8178C193.79 69.9315 194.177 69.9496 194.55 69.8704C194.683 69.3998 194.509 68.9022 194.577 68.4208C194.684 68.0083 194.828 67.6064 195.008 67.22C195.428 65.984 194.816 64.5507 193.553 63.8123C193.111 63.5419 192.588 63.3661 192.257 63.001C191.927 62.6359 191.848 62.2573 191.621 61.8922C191.016 60.9267 189.453 60.475 188.263 60.9213C187.889 61.0619 187.558 61.2755 187.179 61.427C186.474 61.7164 185.672 61.7678 184.897 61.8651C184.133 61.9356 183.386 62.1311 182.686 62.4439C182.017 62.7738 181.456 63.3039 181.301 63.9368C181.228 64.2288 181.244 64.5317 181.171 64.8211C180.797 66.2896 178.383 67.0036 178.247 68.5019C178.198 69.0428 178.494 69.5621 178.862 70.0029C179.117 70.3031 179.727 71.1063 180.158 71.2226C180.589 71.3389 180.916 70.9305 181.328 70.7899C181.979 70.5871 182.372 70.5438 182.697 69.9894Z" fill="#CBCEDA"/>
<path d="M213.267 165.244C213.267 178.831 221.809 189.828 232.364 189.828L213.267 165.244Z" fill="#46455B"/>
<path d="M232.364 189.831C232.364 176.089 241.898 164.971 253.678 164.971L232.364 189.831Z" fill="#6062C3"/>
<path d="M220.189 166.477C220.189 179.386 225.635 189.831 232.364 189.831L220.189 166.477Z" fill="#6062C3"/>
<path d="M232.364 189.831C232.364 172.273 243.383 158.064 256.997 158.064L232.364 189.831Z" fill="#46455B"/>
<path opacity="0.1" d="M231.538 194.526C234.16 194.526 236.285 194.167 236.285 193.725C236.285 193.283 234.16 192.924 231.538 192.924C228.916 192.924 226.79 193.283 226.79 193.725C226.79 194.167 228.916 194.526 231.538 194.526Z" fill="#6062C3"/>
<path d="M228.348 190.004C228.348 190.004 231.058 189.92 231.871 189.341C232.684 188.762 236.036 188.067 236.239 188.998C236.443 189.928 240.304 193.625 237.25 193.649C234.196 193.674 230.145 193.173 229.332 192.678C228.519 192.183 228.348 190.004 228.348 190.004Z" fill="#A8A8A8"/>
<path opacity="0.2" d="M237.307 193.325C234.25 193.349 230.204 192.849 229.389 192.354C228.768 191.978 228.522 190.623 228.437 190.001H228.348C228.348 190.001 228.519 192.181 229.334 192.676C230.15 193.171 234.196 193.671 237.253 193.647C238.136 193.647 238.44 193.325 238.424 192.862C238.302 193.144 237.979 193.319 237.307 193.325Z" fill="black"/>
<path d="M6.0946 173.184C6.0946 184.002 12.8883 192.743 21.2864 192.743L6.0946 173.184Z" fill="#46455B"/>
<path d="M21.2864 192.743C21.2864 181.812 28.8741 172.965 38.2423 172.965L21.2864 192.743Z" fill="#6062C3"/>
<path d="M11.5984 174.169C11.5984 184.446 15.9343 192.749 21.2864 192.749L11.5984 174.169Z" fill="#6062C3"/>
<path d="M21.2864 192.743C21.2864 178.775 30.0529 167.47 40.8845 167.47L21.2864 192.743Z" fill="#46455B"/>
<path opacity="0.1" d="M20.6279 196.481C22.7142 196.481 24.4055 196.195 24.4055 195.843C24.4055 195.49 22.7142 195.204 20.6279 195.204C18.5415 195.204 16.8502 195.49 16.8502 195.843C16.8502 196.195 18.5415 196.481 20.6279 196.481Z" fill="#6062C3"/>
<path d="M18.0914 192.881C18.0914 192.881 20.2458 192.814 20.8934 192.34C21.5411 191.867 24.2104 191.326 24.3702 192.07C24.5301 192.814 27.6086 195.751 25.1832 195.77C22.7578 195.788 19.5303 195.391 18.8827 194.999C18.235 194.607 18.0914 192.881 18.0914 192.881Z" fill="#A8A8A8"/>
<path opacity="0.2" d="M25.2184 195.534C22.7795 195.553 19.5656 195.156 18.9179 194.761C18.4247 194.463 18.2296 193.384 18.1618 192.889H18.0914C18.0914 192.889 18.2269 194.623 18.8745 195.018C19.5222 195.413 22.7443 195.807 25.1751 195.789C25.877 195.789 26.1208 195.534 26.1073 195.164C26.0097 195.38 25.7415 195.518 25.2184 195.534Z" fill="black"/>
</g>
<defs>
<clipPath id="clip0">
<rect width="257" height="205" fill="white"/>
</clipPath>
</defs>
</svg>
