<svg width="388" height="340" viewBox="0 0 388 340" fill="none" xmlns="http://www.w3.org/2000/svg">
<g clip-path="url(#clip0)">
<path d="M57.5575 113.66C63.5044 108.518 67.7 103.627 66.9287 102.735C66.1574 101.843 60.7113 105.288 54.7644 110.43C48.8176 115.572 44.622 120.463 45.3933 121.356C46.1645 122.248 51.6107 118.802 57.5575 113.66Z" fill="#E0E0E0"/>
<path d="M186.945 263.417C192.892 258.275 197.288 253.616 196.764 253.009C196.24 252.403 190.994 256.08 185.048 261.222C179.101 266.364 174.705 271.024 175.229 271.63C175.753 272.236 180.999 268.559 186.945 263.417Z" fill="#E0E0E0"/>
<path d="M112.887 193.735L108.919 186.172L83.7098 199.401L87.6787 206.964L112.887 193.735Z" fill="#F55F44"/>
<path opacity="0.05" d="M89.751 209.733L97.5261 215.38L114.257 192.346L106.482 186.699L89.751 209.733Z" fill="black"/>
<path d="M90.6158 210.361L97.5261 215.38L114.257 192.346L107.347 187.327L90.6158 210.361Z" fill="#F55F44"/>
<path d="M67.467 102.269L44.8548 121.821L174.734 272.031L197.346 252.479L67.467 102.269Z" fill="url(#paint0_linear)"/>
<path d="M175.272 271.565C172.708 268.678 43.5312 119.202 45.3933 121.356C60.2495 111.333 66.9287 102.735 66.9287 102.735L196.808 252.945C196.808 252.945 186.805 260.637 175.272 271.565Z" fill="#F5F5F5"/>
<path opacity="0.05" d="M134.428 180.801L123.722 168.418L102.186 187.039L112.893 199.422L134.428 180.801Z" fill="black"/>
<path d="M133.963 180.263L124.187 168.956L102.652 187.577L112.428 198.883L133.963 180.263Z" fill="#F55F44"/>
<path opacity="0.05" d="M132.101 178.109L125.584 170.572L104.048 189.192L110.565 196.73L132.101 178.109Z" fill="black"/>
<path d="M131.635 177.571L126.049 171.11L104.514 189.731L110.1 196.191L131.635 177.571Z" fill="#F55F44"/>
<path d="M98.8605 253.019C99.4649 253.273 100.16 252.989 100.414 252.384C100.668 251.78 100.383 251.084 99.7788 250.831C99.1745 250.577 98.479 250.862 98.2254 251.466C97.9718 252.07 98.2562 252.766 98.8605 253.019Z" fill="#DBDBDB"/>
<g opacity="0.5">
<path opacity="0.5" d="M26.5599 185.36L25.4378 184.889L22.7699 191.247L23.892 191.718L26.5599 185.36Z" fill="#47E6B1"/>
<path opacity="0.5" d="M27.6086 190.199L28.0794 189.076L21.7211 186.409L21.2503 187.531L27.6086 190.199Z" fill="#47E6B1"/>
</g>
<g opacity="0.5">
<path opacity="0.5" d="M342.586 224.71L341.464 224.239L338.797 230.598L339.919 231.068L342.586 224.71Z" fill="#47E6B1"/>
<path opacity="0.5" d="M343.635 229.549L344.106 228.427L337.748 225.759L337.277 226.881L343.635 229.549Z" fill="#47E6B1"/>
</g>
<g opacity="0.5">
<path opacity="0.5" d="M99.6752 29.9756L98.5531 29.5048L95.8852 35.863L97.0073 36.3338L99.6752 29.9756Z" fill="#47E6B1"/>
<path opacity="0.5" d="M100.724 34.8143L101.195 33.6923L94.8365 31.0244L94.3657 32.1464L100.724 34.8143Z" fill="#47E6B1"/>
</g>
<g opacity="0.5">
<path opacity="0.5" d="M346.118 121.944L344.996 121.473L342.328 127.832L343.45 128.303L346.118 121.944Z" fill="#47E6B1"/>
<path opacity="0.5" d="M347.167 126.783L347.638 125.661L341.28 122.993L340.809 124.115L347.167 126.783Z" fill="#47E6B1"/>
</g>
<path opacity="0.5" d="M54.9066 96.7255C54.6539 96.4611 54.5072 96.113 54.4945 95.7475C54.4818 95.382 54.604 95.0245 54.8377 94.7432C54.8744 94.7005 54.9059 94.6535 54.9316 94.6033C55.0026 94.4593 55.0253 94.2963 54.9964 94.1383C54.9675 93.9803 54.8885 93.8359 54.7711 93.7264C54.6536 93.6168 54.5041 93.548 54.3445 93.5301C54.1849 93.5123 54.0238 93.5463 53.8851 93.6271C53.8368 93.6562 53.7921 93.6908 53.752 93.7304C53.4876 93.9831 53.1395 94.1298 52.774 94.1425C52.4084 94.1552 52.051 94.033 51.7697 93.7992C51.7269 93.7626 51.68 93.7311 51.6298 93.7054C51.4858 93.6344 51.3227 93.6117 51.1648 93.6406C51.0068 93.6695 50.8624 93.7485 50.7528 93.8659C50.6433 93.9833 50.5745 94.1329 50.5566 94.2925C50.5387 94.4521 50.5727 94.6132 50.6535 94.7519C50.6826 94.8002 50.7173 94.8448 50.7569 94.885C51.0096 95.1494 51.1562 95.4975 51.1689 95.863C51.1816 96.2285 51.0595 96.586 50.8257 96.8673C50.789 96.91 50.7575 96.957 50.7319 97.0072C50.6609 97.1512 50.6381 97.3142 50.667 97.4722C50.6959 97.6302 50.775 97.7746 50.8924 97.8841C51.0098 97.9937 51.1594 98.0625 51.319 98.0804C51.4785 98.0982 51.6396 98.0643 51.7784 97.9834C51.8266 97.9543 51.8713 97.9197 51.9114 97.8801C52.1758 97.6274 52.5239 97.4807 52.8895 97.468C53.255 97.4553 53.6124 97.5775 53.8938 97.8113C53.9365 97.8479 53.9835 97.8794 54.0336 97.9051C54.1777 97.9761 54.3407 97.9988 54.4987 97.9699C54.6567 97.941 54.8011 97.862 54.9106 97.7446C55.0202 97.6272 55.089 97.4776 55.1069 97.318C55.1247 97.1584 55.0907 96.9973 55.0099 96.8586C54.9808 96.8103 54.9461 96.7657 54.9066 96.7255Z" fill="#4D8AF0"/>
<path opacity="0.5" d="M150.153 50.0369C149.901 49.7724 149.754 49.4243 149.741 49.0588C149.729 48.6933 149.851 48.3358 150.085 48.0545C150.121 48.0118 150.153 47.9648 150.178 47.9146C150.249 47.7706 150.272 47.6075 150.243 47.4496C150.214 47.2916 150.135 47.1472 150.018 47.0376C149.901 46.9281 149.751 46.8593 149.591 46.8414C149.432 46.8235 149.271 46.8575 149.132 46.9384C149.084 46.9675 149.039 47.0021 148.999 47.0417C148.734 47.2944 148.386 47.4411 148.021 47.4538C147.655 47.4664 147.298 47.3443 147.017 47.1105C146.974 47.0739 146.927 47.0424 146.877 47.0167C146.733 46.9457 146.57 46.923 146.412 46.9519C146.254 46.9808 146.109 47.0598 146 47.1772C145.89 47.2946 145.821 47.4442 145.803 47.6038C145.786 47.7634 145.82 47.9245 145.9 48.0632C145.929 48.1115 145.964 48.1561 146.004 48.1963C146.256 48.4607 146.403 48.8088 146.416 49.1743C146.428 49.5398 146.306 49.8973 146.073 50.1786C146.036 50.2214 146.004 50.2683 145.979 50.3185C145.908 50.4625 145.885 50.6256 145.914 50.7835C145.943 50.9415 146.022 51.0859 146.139 51.1955C146.257 51.305 146.406 51.3738 146.566 51.3917C146.725 51.4096 146.886 51.3756 147.025 51.2947C147.074 51.2656 147.118 51.231 147.158 51.1914C147.423 50.9387 147.771 50.792 148.136 50.7793C148.502 50.7667 148.859 50.8888 149.141 51.1226C149.183 51.1592 149.23 51.1907 149.28 51.2164C149.425 51.2874 149.588 51.3102 149.746 51.2812C149.904 51.2523 150.048 51.1733 150.157 51.0559C150.267 50.9385 150.336 50.7889 150.354 50.6293C150.372 50.4697 150.338 50.3086 150.257 50.1699C150.228 50.1216 150.193 50.077 150.153 50.0369Z" fill="#4D8AF0"/>
<path opacity="0.5" d="M148.504 274.116C148.251 273.851 148.104 273.503 148.092 273.137C148.079 272.772 148.201 272.414 148.435 272.133C148.472 272.09 148.503 272.043 148.529 271.993C148.6 271.849 148.623 271.686 148.594 271.528C148.565 271.37 148.486 271.226 148.368 271.116C148.251 271.007 148.101 270.938 147.942 270.92C147.782 270.902 147.621 270.936 147.482 271.017C147.434 271.046 147.389 271.081 147.349 271.12C147.085 271.373 146.737 271.52 146.371 271.532C146.006 271.545 145.648 271.423 145.367 271.189C145.324 271.153 145.277 271.121 145.227 271.095C145.083 271.024 144.92 271.002 144.762 271.031C144.604 271.059 144.46 271.138 144.35 271.256C144.24 271.373 144.172 271.523 144.154 271.682C144.136 271.842 144.17 272.003 144.251 272.142C144.28 272.19 144.314 272.235 144.354 272.275C144.607 272.539 144.753 272.887 144.766 273.253C144.779 273.619 144.657 273.976 144.423 274.257C144.386 274.3 144.355 274.347 144.329 274.397C144.258 274.541 144.235 274.704 144.264 274.862C144.293 275.02 144.372 275.165 144.49 275.274C144.607 275.384 144.757 275.453 144.916 275.47C145.076 275.488 145.237 275.454 145.376 275.373C145.424 275.344 145.468 275.31 145.509 275.27C145.773 275.017 146.121 274.871 146.487 274.858C146.852 274.845 147.21 274.967 147.491 275.201C147.534 275.238 147.581 275.269 147.631 275.295C147.775 275.366 147.938 275.389 148.096 275.36C148.254 275.331 148.398 275.252 148.508 275.135C148.617 275.017 148.686 274.868 148.704 274.708C148.722 274.548 148.688 274.387 148.607 274.249C148.578 274.2 148.543 274.156 148.504 274.116Z" fill="#4D8AF0"/>
<path opacity="0.5" d="M303.492 287.482C304.731 288.002 306.158 287.419 306.678 286.18C307.198 284.94 306.614 283.514 305.375 282.994C304.136 282.474 302.709 283.057 302.189 284.296C301.669 285.536 302.252 286.962 303.492 287.482Z" fill="#F55F44"/>
<path opacity="0.5" d="M248.158 280.98C249.398 281.5 250.824 280.916 251.344 279.677C251.864 278.438 251.281 277.011 250.041 276.491C248.802 275.971 247.376 276.554 246.856 277.794C246.336 279.033 246.919 280.459 248.158 280.98Z" fill="#4D8AF0"/>
<path opacity="0.5" d="M42.9144 220.813C44.1537 221.333 45.58 220.75 46.1001 219.511C46.6201 218.271 46.0369 216.845 44.7976 216.325C43.5582 215.805 42.1319 216.388 41.6119 217.628C41.0918 218.867 41.675 220.293 42.9144 220.813Z" fill="#47E6B1"/>
<path opacity="0.5" d="M242.071 69.0499C243.31 69.5699 244.737 68.9868 245.257 67.7474C245.777 66.508 245.194 65.0817 243.954 64.5617C242.715 64.0416 241.289 64.6248 240.769 65.8642C240.249 67.1035 240.832 68.5298 242.071 69.0499Z" fill="#F55F44"/>
<path d="M110.616 165.866L95.99 175.564C95.99 175.564 93.1756 190.658 159.533 218.061C225.891 245.465 236.62 234.571 236.62 234.571L231.811 211.44L204.863 169.782L110.616 165.866Z" fill="#6062C4"/>
<path opacity="0.15" d="M110.616 165.866L95.99 175.564C95.99 175.564 93.1756 190.658 159.533 218.061C225.891 245.465 236.62 234.571 236.62 234.571L231.811 211.44L204.863 169.782L110.616 165.866Z" fill="black"/>
<path d="M322.502 196.049L182.873 198.603L61.0644 86.3525L217.828 81.7505L269.951 138.665L271.817 140.706L322.502 196.049Z" fill="#6062C4"/>
<path opacity="0.15" d="M322.502 196.049L182.873 198.603L61.0644 86.3525L217.828 81.7505L269.951 138.665L271.817 140.706L322.502 196.049Z" fill="black"/>
<path d="M256.869 183.167L254.569 182.36L269.951 138.665L271.817 140.706L256.869 183.167Z" fill="#F5F5F5"/>
<path d="M133.141 116.375L95.99 175.564C95.99 175.564 181.368 182.797 236.62 234.571L255.144 163.168C255.144 163.168 171.801 115.442 133.141 116.375Z" fill="#6062C4"/>
<path d="M251.24 196.059C257.23 198.573 263.492 197.261 265.225 193.13C266.959 188.999 263.508 183.612 257.517 181.098C251.527 178.585 245.266 179.896 243.532 184.028C241.799 188.159 245.25 193.546 251.24 196.059Z" fill="#F5F5F5"/>
</g>
<defs>
<linearGradient id="paint0_linear" x1="109.794" y1="196.926" x2="132.406" y2="177.374" gradientUnits="userSpaceOnUse">
<stop stop-color="#808080" stop-opacity="0.25"/>
<stop offset="0.53514" stop-color="#808080" stop-opacity="0.12"/>
<stop offset="1" stop-color="#808080" stop-opacity="0.1"/>
</linearGradient>
<clipPath id="clip0">
<rect x="90.0859" width="322.617" height="232.834" transform="rotate(22.7624 90.0859 0)" fill="white"/>
</clipPath>
</defs>
</svg>
