<svg width="302" height="254" viewBox="0 0 302 254" fill="none" xmlns="http://www.w3.org/2000/svg">
<g clip-path="url(#clip0)">
<g opacity="0.5">
<path opacity="0.5" d="M0.255662 231.63L0 48.0593C0 46.2228 0.728004 44.4615 2.02386 43.1629C3.31971 41.8643 5.07727 41.1348 6.90988 41.1348L294.848 40.7505C296.681 40.7505 298.438 41.48 299.734 42.7786C301.03 44.0772 301.758 45.8385 301.758 47.675L302.01 231.246C302.01 232.155 301.832 233.056 301.484 233.896C301.137 234.736 300.628 235.5 299.986 236.143C299.345 236.786 298.583 237.296 297.745 237.644C296.906 237.992 296.008 238.171 295.1 238.171L7.16209 238.555C5.33008 238.554 3.57341 237.824 2.2783 236.526C0.983195 235.227 0.255662 233.466 0.255662 231.63Z" fill="url(#paint0_linear)"/>
</g>
<path d="M278.429 54.5703L22.3074 54.9287L22.545 225.409L278.666 225.051L278.429 54.5703Z" fill="url(#paint1_linear)"/>
<path d="M292.746 46.7396L10.2008 47.135C7.78133 47.1384 5.82268 49.1066 5.82606 51.5312L6.07215 228.15C6.07553 230.575 8.03965 232.537 10.4591 232.534L293.004 232.139C295.424 232.135 297.382 230.167 297.379 227.742L297.133 51.1236C297.129 48.699 295.165 46.7363 292.746 46.7396Z" fill="white"/>
<path opacity="0.2" d="M274.709 219.79V59.6821H30.3793V219.79H274.709Z" fill="#6062C3"/>
<path d="M18.3008 147.287C22.0255 147.287 25.0449 144.332 25.0449 140.688C25.0449 137.043 22.0255 134.089 18.3008 134.089C14.5762 134.089 11.5568 137.043 11.5568 140.688C11.5568 144.332 14.5762 147.287 18.3008 147.287Z" fill="#DBDBDB"/>
<path d="M285.333 114.756C286.576 114.756 287.583 113.772 287.583 112.557C287.583 111.343 286.576 110.359 285.333 110.359C284.091 110.359 283.084 111.343 283.084 112.557C283.084 113.772 284.091 114.756 285.333 114.756Z" fill="#DBDBDB"/>
<path d="M286.936 151.409L286.897 123.344C286.897 123.198 286.779 123.081 286.634 123.081L284.91 123.083C284.765 123.084 284.648 123.202 284.648 123.347L284.687 151.412C284.687 151.557 284.805 151.675 284.95 151.674L286.674 151.672C286.819 151.672 286.937 151.554 286.936 151.409Z" fill="#DBDBDB"/>
<g opacity="0.5">
<path opacity="0.5" d="M269.665 36.634C269.665 30.309 268.03 24.0919 264.92 18.5877C261.811 13.0836 257.332 8.47996 251.921 5.22483C246.509 1.9697 240.348 0.17398 234.039 0.0124415C227.729 -0.149098 221.485 1.32905 215.915 4.30301C210.344 7.27697 205.637 11.6454 202.251 16.9833C198.865 22.3211 196.916 28.4465 196.593 34.7632C196.27 41.0799 197.584 47.3729 200.408 53.0295C203.232 58.6862 207.469 63.5139 212.707 67.0428L212.731 67.2055C213.925 68.3532 215.334 69.2523 216.877 69.8507L216.926 69.688C218.653 71.1594 225.843 73.5137 234.128 73.4964H234.307C239.552 73.4964 245.246 72.5685 250.255 69.8541C250.255 69.8541 250.3 69.7572 250.369 69.5772C251.641 68.9806 252.807 68.1821 253.824 67.2125C253.845 67.0717 253.865 66.9332 253.883 66.797C258.757 63.428 262.74 58.922 265.489 53.6674C268.238 48.4128 269.672 42.5671 269.665 36.634Z" fill="url(#paint2_linear)"/>
</g>
<path d="M233.105 72.1773C252.69 72.1773 268.567 56.2671 268.567 36.6409C268.567 17.0147 252.69 1.10449 233.105 1.10449C213.52 1.10449 197.643 17.0147 197.643 36.6409C197.643 56.2671 213.52 72.1773 233.105 72.1773Z" fill="#F5F5F5"/>
<path d="M219.558 51.2515C219.558 51.2515 211.107 51.9439 213.339 67.3716C214.497 68.4848 215.864 69.3568 217.361 69.9372L222.115 53.817L219.558 51.2515Z" fill="#FDA57D"/>
<path d="M246.977 51.2515C246.977 51.2515 255.427 51.9439 253.195 67.3716C252.037 68.4848 250.67 69.3568 249.174 69.9372L244.42 53.817L246.977 51.2515Z" fill="#FDA57D"/>
<path d="M219.924 25.9702C219.924 25.9702 215.903 37.6933 213.705 36.5958C213.705 36.5958 234.87 54.9145 253.555 36.5958C253.555 36.5958 250.266 30.7343 245.512 25.9702H219.924Z" fill="#333333"/>
<path d="M233.488 40.626C242.17 40.626 249.208 33.573 249.208 24.8728C249.208 16.1726 242.17 9.11963 233.488 9.11963C224.807 9.11963 217.768 16.1726 217.768 24.8728C217.768 33.573 224.807 40.626 233.488 40.626Z" fill="#333333"/>
<path opacity="0.1" d="M246.814 51.2515H219.41L216.836 62.2545C216.836 62.2545 215.333 67.3439 217.202 69.5806C219.071 71.8172 236.55 76.9066 249.374 69.9475C250.493 67.0174 250.622 63.8004 249.74 60.7899C248.279 55.6624 249.374 60.4229 249.374 60.4229L246.814 51.2515Z" fill="black"/>
<path opacity="0.1" d="M247.18 51.2515H219.755L217.202 62.2545C217.202 62.2545 215.699 67.3439 217.568 69.5806C219.437 71.8172 236.916 76.9066 249.74 69.9475C250.859 67.0174 250.988 63.8004 250.107 60.7899C248.645 55.6624 249.74 60.4229 249.74 60.4229L247.18 51.2515Z" fill="black"/>
<path d="M246.977 51.2515H219.558L216.991 62.2545C216.991 62.2545 215.488 67.3439 217.357 69.5806C219.227 71.8172 236.705 76.9066 249.53 69.9475C250.649 67.0174 250.777 63.8004 249.896 60.7899C248.435 55.6624 249.53 60.4229 249.53 60.4229L246.977 51.2515Z" fill="#6062C3"/>
<path opacity="0.1" d="M227.964 42.1353H238.933V51.1371C238.933 51.8327 238.797 52.5215 238.531 53.1642C238.265 53.8069 237.876 54.3909 237.385 54.8828C236.894 55.3747 236.312 55.7649 235.67 56.0311C235.029 56.2973 234.342 56.4343 233.647 56.4343H233.25C232.556 56.4343 231.869 56.2973 231.227 56.0311C230.586 55.7649 230.003 55.3747 229.512 54.8828C229.021 54.3909 228.632 53.8069 228.366 53.1642C228.101 52.5215 227.964 51.8327 227.964 51.1371V42.1353Z" fill="black"/>
<path d="M227.964 41.7271H238.933V50.7289C238.933 52.1338 238.377 53.4812 237.385 54.4746C236.394 55.468 235.049 56.0261 233.647 56.0261H233.25C231.848 56.0261 230.504 55.468 229.512 54.4746C228.521 53.4812 227.964 52.1338 227.964 50.7289V41.7271Z" fill="#FDA57D"/>
<path opacity="0.1" d="M227.988 43.3093C231.523 44.6335 235.415 44.6445 238.958 43.3405V41.9902H227.988V43.3093Z" fill="black"/>
<path d="M233.488 44.0464C242.17 44.0464 249.208 36.9935 249.208 28.2932C249.208 19.593 242.17 12.54 233.488 12.54C224.807 12.54 217.768 19.593 217.768 28.2932C217.768 36.9935 224.807 44.0464 233.488 44.0464Z" fill="#FDA57D"/>
<path d="M218.459 22.3071H248.431C248.431 22.3071 245.871 10.1893 234.539 10.951C223.207 11.7127 218.459 22.3071 218.459 22.3071Z" fill="#333333"/>
<path d="M218.093 30.3706C218.9 30.3706 219.555 29.1398 219.555 27.6216C219.555 26.1033 218.9 24.8726 218.093 24.8726C217.286 24.8726 216.632 26.1033 216.632 27.6216C216.632 29.1398 217.286 30.3706 218.093 30.3706Z" fill="#FDA57D"/>
<path d="M248.804 30.3706C249.611 30.3706 250.266 29.1398 250.266 27.6216C250.266 26.1033 249.611 24.8726 248.804 24.8726C247.997 24.8726 247.343 26.1033 247.343 27.6216C247.343 29.1398 247.997 30.3706 248.804 30.3706Z" fill="#FDA57D"/>
<path opacity="0.1" d="M218.459 22.7158H248.431C248.431 22.7158 245.871 10.598 234.539 11.3597C223.207 12.1213 218.459 22.7158 218.459 22.7158Z" fill="black"/>
<g opacity="0.5">
<path opacity="0.5" d="M85.7931 87.6398C85.7929 81.3145 84.1585 75.097 81.049 69.5925C77.9395 64.088 73.4609 59.484 68.049 56.2286C62.6372 52.9732 56.4765 51.1774 50.1666 51.0159C43.8567 50.8543 37.6125 52.3326 32.0419 55.3069C26.4712 58.2811 21.7639 62.6499 18.378 67.9882C14.9921 73.3264 13.043 79.4521 12.7205 85.7692C12.398 92.0862 13.713 98.3793 16.5375 104.036C19.362 109.693 23.5998 114.52 28.8384 118.049L28.8626 118.211C30.0565 119.359 31.4657 120.258 33.0085 120.856L33.0569 120.694C34.7844 122.165 41.9741 124.519 50.2591 124.502H50.4387C55.6833 124.502 61.3771 123.574 66.3867 120.86C66.3867 120.86 66.4316 120.763 66.5007 120.583C67.772 119.986 68.9387 119.188 69.9557 118.218C69.9764 118.077 69.996 117.939 70.0144 117.803C74.8873 114.433 78.8697 109.927 81.6184 104.673C84.3672 99.4181 85.7999 93.5726 85.7931 87.6398Z" fill="url(#paint3_linear)"/>
</g>
<path d="M49.233 123.179C68.8178 123.179 84.6945 107.269 84.6945 87.6428C84.6945 68.0166 68.8178 52.1064 49.233 52.1064C29.6481 52.1064 13.7714 68.0166 13.7714 87.6428C13.7714 107.269 29.6481 123.179 49.233 123.179Z" fill="#F5F5F5"/>
<path d="M33.8791 101.537C33.8791 101.537 25.4284 102.23 27.6602 117.657C28.8183 118.77 30.1852 119.642 31.6818 120.223L36.4358 104.103L33.8791 101.537Z" fill="#6062C3"/>
<path d="M61.3149 101.537C61.3149 101.537 69.7657 102.23 67.5338 117.657C66.3757 118.77 65.0088 119.642 63.5122 120.223L58.7548 104.099L61.3149 101.537Z" fill="#6062C3"/>
<path d="M47.8268 90.9111C56.5087 90.9111 63.5467 83.8582 63.5467 75.158C63.5467 66.4577 56.5087 59.4048 47.8268 59.4048C39.1449 59.4048 32.1068 66.4577 32.1068 75.158C32.1068 83.8582 39.1449 90.9111 47.8268 90.9111Z" fill="#333333"/>
<path d="M61.1525 101.537H33.7306L31.1705 112.53C31.1705 112.53 29.6676 117.619 31.5367 119.856C33.4059 122.092 50.8844 127.182 63.7092 120.223C64.8265 117.295 64.9551 114.08 64.0754 111.072C62.6139 105.945 63.7092 110.705 63.7092 110.705L61.1525 101.537Z" fill="#4D8AF0"/>
<path d="M61.5187 101.537H34.0968L31.5367 112.53C31.5367 112.53 30.0338 117.619 31.903 119.856C33.7721 122.092 51.2506 127.182 64.0754 120.223C65.1927 117.295 65.3213 114.08 64.4416 111.072C62.9802 105.945 64.0754 110.705 64.0754 110.705L61.5187 101.537Z" fill="#4D8AF0"/>
<path d="M61.3149 101.537H33.8792L31.3191 112.53C31.3191 112.53 29.8162 117.619 31.6853 119.856C33.5544 122.092 51.033 127.182 63.8577 120.223C64.9796 117.296 65.1131 114.082 64.2378 111.072C62.7763 105.945 63.8715 110.705 63.8715 110.705L61.3149 101.537Z" fill="#6062C3"/>
<path opacity="0.1" d="M42.3023 92.4175H53.2717V101.419C53.2717 102.824 52.7148 104.172 51.7235 105.165C50.7322 106.158 49.3876 106.717 47.9857 106.717H47.5884C46.1864 106.717 44.8419 106.158 43.8506 105.165C42.8592 104.172 42.3023 102.824 42.3023 101.419V92.4175Z" fill="black"/>
<path d="M42.3023 92.0127H53.2717V101.015C53.2717 102.419 52.7148 103.767 51.7235 104.76C50.7322 105.754 49.3876 106.312 47.9857 106.312H47.5884C46.1864 106.312 44.8419 105.754 43.8506 104.76C42.8592 103.767 42.3023 102.419 42.3023 101.015V92.0127Z" fill="#FDB797"/>
<path opacity="0.1" d="M42.3231 93.5945C45.8583 94.9186 49.7499 94.9297 53.2925 93.6257V92.2754H42.3231V93.5945Z" fill="black"/>
<path d="M47.8268 94.332C56.5087 94.332 63.5467 87.2791 63.5467 78.5788C63.5467 69.8786 56.5087 62.8257 47.8268 62.8257C39.1449 62.8257 32.1068 69.8786 32.1068 78.5788C32.1068 87.2791 39.1449 94.332 47.8268 94.332Z" fill="#FDB797"/>
<path opacity="0.1" d="M32.7978 72.9873H62.7763C62.7763 72.9873 60.2162 60.8694 48.884 61.6311C37.5518 62.3928 32.7978 72.9873 32.7978 72.9873Z" fill="black"/>
<path d="M32.7978 72.5928H62.7763C62.7763 72.5928 60.2162 60.4749 48.884 61.2366C37.5518 61.9983 32.7978 72.5928 32.7978 72.5928Z" fill="#333333"/>
<path d="M32.4315 80.6562C33.2387 80.6562 33.893 79.4255 33.893 77.9072C33.893 76.389 33.2387 75.1582 32.4315 75.1582C31.6244 75.1582 30.9701 76.389 30.9701 77.9072C30.9701 79.4255 31.6244 80.6562 32.4315 80.6562Z" fill="#FDB797"/>
<path d="M63.1391 80.6562C63.9462 80.6562 64.6005 79.4255 64.6005 77.9072C64.6005 76.389 63.9462 75.1582 63.1391 75.1582C62.3319 75.1582 61.6776 76.389 61.6776 77.9072C61.6776 79.4255 62.3319 80.6562 63.1391 80.6562Z" fill="#FDB797"/>
<path d="M35.1264 64.557C35.4487 63.3592 36.1598 62.3031 37.1475 61.5552C37.9145 61.022 38.8301 60.7658 39.7077 60.4542C41.0084 59.9931 42.2568 59.3954 43.4321 58.6712C44.7657 57.8472 46.0164 56.857 47.4847 56.3134C50.0103 55.3786 52.8226 55.8841 55.4311 56.5557C56.0816 56.6927 56.7081 56.9261 57.2899 57.2482C57.9228 57.6874 58.4796 58.2278 58.9379 58.8477L63.0838 63.8507C63.4824 64.2938 63.8301 64.7804 64.1203 65.3013C64.3693 65.8162 64.5283 66.3702 64.5902 66.939C64.7381 67.8589 64.5828 68.8021 64.1479 69.6257C63.4569 70.8236 62.0059 71.426 60.6239 71.4814C59.2419 71.5368 57.8841 71.1352 56.554 70.744C52.2698 69.4872 47.9166 68.3204 43.4874 67.7942C41.2826 67.522 39.0578 67.4501 36.8401 67.5795C36.1491 67.6245 35.2231 67.9465 34.8016 67.2333C34.4181 66.6135 34.9364 65.1732 35.1264 64.557Z" fill="#333333"/>
<g opacity="0.5">
<path opacity="0.5" d="M109.449 197.548C109.449 191.223 111.084 185.006 114.193 179.501C117.303 173.997 121.781 169.393 127.193 166.137C132.605 162.882 138.766 161.086 145.076 160.925C151.386 160.763 157.63 162.241 163.2 165.216C168.771 168.19 173.478 172.559 176.864 177.897C180.25 183.235 182.199 189.361 182.522 195.678C182.844 201.995 181.529 208.288 178.705 213.945C175.88 219.601 171.643 224.429 166.404 227.957L166.38 228.12C165.186 229.268 163.777 230.167 162.234 230.765L162.185 230.602C160.458 232.074 153.268 234.428 144.983 234.411H144.804C139.559 234.411 133.865 233.483 128.856 230.769C128.856 230.769 128.811 230.672 128.742 230.492C127.47 229.895 126.304 229.097 125.287 228.127C125.266 227.986 125.246 227.848 125.228 227.711C120.355 224.342 116.373 219.836 113.624 214.581C110.875 209.327 109.442 203.481 109.449 197.548Z" fill="url(#paint4_linear)"/>
</g>
<path d="M146.006 233.088C165.591 233.088 181.467 217.178 181.467 197.552C181.467 177.925 165.591 162.015 146.006 162.015C126.421 162.015 110.544 177.925 110.544 197.552C110.544 217.178 126.421 233.088 146.006 233.088Z" fill="#F5F5F5"/>
<path d="M132.103 211.085C132.103 211.085 123.652 211.778 125.884 227.206C127.042 228.319 128.409 229.191 129.906 229.771L134.66 213.651L132.103 211.085Z" fill="#BE7C5E"/>
<path d="M159.522 211.085C159.522 211.085 167.972 211.778 165.74 227.206C164.58 228.32 163.211 229.192 161.712 229.771L156.958 213.651L159.522 211.085Z" fill="#BE7C5E"/>
<path d="M132.469 185.808C132.469 185.808 131.82 187.705 130.897 189.9C128.887 194.702 131.181 213.142 135.993 215.105C141.394 217.311 148.493 218.723 155.87 216.026C162.282 213.682 164.258 192.694 159.725 187.58C159.193 186.981 158.637 186.386 158.057 185.804L132.469 185.808Z" fill="#333333"/>
<path d="M146.034 200.463C154.715 200.463 161.754 193.41 161.754 184.71C161.754 176.01 154.715 168.957 146.034 168.957C137.352 168.957 130.314 176.01 130.314 184.71C130.314 193.41 137.352 200.463 146.034 200.463Z" fill="#333333"/>
<path opacity="0.1" d="M159.359 211.085H131.941L129.381 222.078C129.381 222.078 127.878 227.168 129.747 229.404C131.616 231.641 149.095 236.73 161.919 229.771C163.038 226.841 163.167 223.624 162.286 220.614C160.824 215.486 161.919 220.247 161.919 220.247L159.359 211.085Z" fill="black"/>
<path opacity="0.1" d="M159.725 211.085H132.307L129.747 222.078C129.747 222.078 128.244 227.168 130.113 229.404C131.982 231.641 149.461 236.73 162.286 229.771C163.404 226.841 163.533 223.624 162.652 220.614C161.19 215.486 162.286 220.247 162.286 220.247L159.725 211.085Z" fill="black"/>
<path d="M159.522 211.085H132.103L129.543 222.078C129.543 222.078 128.04 227.168 129.909 229.404C131.778 231.641 149.257 236.73 162.082 229.771C163.201 226.841 163.329 223.624 162.448 220.614C160.987 215.486 162.082 220.247 162.082 220.247L159.522 211.085Z" fill="#6062C3"/>
<path opacity="0.1" d="M140.509 201.969H151.478V210.971C151.478 212.376 150.922 213.723 149.93 214.717C148.939 215.71 147.594 216.268 146.192 216.268H145.799C144.397 216.268 143.052 215.71 142.061 214.717C141.069 213.723 140.512 212.376 140.512 210.971V201.969H140.509Z" fill="black"/>
<path d="M140.509 201.561H151.478V210.563C151.478 211.968 150.922 213.315 149.93 214.309C148.939 215.302 147.594 215.86 146.192 215.86H145.799C144.397 215.86 143.052 215.302 142.061 214.309C141.069 213.315 140.512 211.968 140.512 210.563V201.561H140.509Z" fill="#BE7C5E"/>
<path opacity="0.1" d="M140.533 203.143C144.068 204.467 147.96 204.478 151.503 203.174V201.824H140.533V203.143Z" fill="black"/>
<path d="M146.034 203.88C154.715 203.88 161.754 196.827 161.754 188.127C161.754 179.427 154.715 172.374 146.034 172.374C137.352 172.374 130.314 179.427 130.314 188.127C130.314 196.827 137.352 203.88 146.034 203.88Z" fill="#BE7C5E"/>
<path d="M131.005 182.145H160.983C160.983 182.145 158.423 170.027 147.091 170.788C135.759 171.55 131.005 182.145 131.005 182.145Z" fill="#333333"/>
<path d="M130.638 190.205C131.445 190.205 132.1 188.974 132.1 187.456C132.1 185.938 131.445 184.707 130.638 184.707C129.831 184.707 129.177 185.938 129.177 187.456C129.177 188.974 129.831 190.205 130.638 190.205Z" fill="#BE7C5E"/>
<path d="M161.349 190.205C162.156 190.205 162.811 188.974 162.811 187.456C162.811 185.938 162.156 184.707 161.349 184.707C160.542 184.707 159.888 185.938 159.888 187.456C159.888 188.974 160.542 190.205 161.349 190.205Z" fill="#BE7C5E"/>
<path opacity="0.1" d="M131.005 182.55H160.983C160.983 182.55 158.423 170.432 147.091 171.194C135.759 171.955 131.005 182.55 131.005 182.55Z" fill="black"/>
<path d="M232.207 83.2461V215.784H196.724" stroke="#6062C3" stroke-width="2" stroke-miterlimit="10" stroke-dasharray="12 12"/>
<path d="M48.3381 131.734V215.784H99.9481" stroke="#6062C3" stroke-width="2" stroke-miterlimit="10" stroke-dasharray="12 12"/>
<g opacity="0.5">
<path opacity="0.5" d="M47.4502 144.091C54.4186 144.091 60.0676 138.43 60.0676 131.447C60.0676 124.464 54.4186 118.803 47.4502 118.803C40.4818 118.803 34.8327 124.464 34.8327 131.447C34.8327 138.43 40.4818 144.091 47.4502 144.091Z" fill="url(#paint5_linear)"/>
</g>
<path d="M47.4502 143.347C54.0084 143.347 59.3248 138.019 59.3248 131.447C59.3248 124.875 54.0084 119.547 47.4502 119.547C40.892 119.547 35.5756 124.875 35.5756 131.447C35.5756 138.019 40.892 143.347 47.4502 143.347Z" fill="#69F0AE"/>
<path d="M42.2954 129.861L46.7488 133.95L53.0541 124.654L55.2826 126.514L46.7488 137.669L40.4401 130.606L42.2954 129.861Z" fill="white"/>
<g opacity="0.5">
<path opacity="0.5" d="M234.186 89.8551C241.155 89.8551 246.804 84.1941 246.804 77.211C246.804 70.2278 241.155 64.5669 234.186 64.5669C227.218 64.5669 221.569 70.2278 221.569 77.211C221.569 84.1941 227.218 89.8551 234.186 89.8551Z" fill="url(#paint6_linear)"/>
</g>
<path d="M234.186 89.1109C240.745 89.1109 246.061 83.7832 246.061 77.2112C246.061 70.6392 240.745 65.3115 234.186 65.3115C227.628 65.3115 222.312 70.6392 222.312 77.2112C222.312 83.7832 227.628 89.1109 234.186 89.1109Z" fill="#69F0AE"/>
<path d="M229.032 75.6257L233.485 79.7146L239.794 70.4185L242.019 72.2777L233.485 83.433L227.176 76.3666L229.032 75.6257Z" fill="white"/>
<g opacity="0.5">
<path opacity="0.5" d="M147.091 254C154.059 254 159.708 248.339 159.708 241.356C159.708 234.373 154.059 228.712 147.091 228.712C140.122 228.712 134.473 234.373 134.473 241.356C134.473 248.339 140.122 254 147.091 254Z" fill="url(#paint7_linear)"/>
</g>
<path d="M147.091 253.255C153.649 253.255 158.965 247.928 158.965 241.356C158.965 234.784 153.649 229.456 147.091 229.456C140.533 229.456 135.216 234.784 135.216 241.356C135.216 247.928 140.533 253.255 147.091 253.255Z" fill="#69F0AE"/>
<path d="M141.936 239.77L146.389 243.859L152.698 234.563L154.923 236.422L146.389 247.578L140.081 240.515L141.936 239.77Z" fill="white"/>
</g>
<defs>
<linearGradient id="paint0_linear" x1="149.834" y1="238.309" x2="150.093" y2="40.522" gradientUnits="userSpaceOnUse">
<stop stop-color="#808080" stop-opacity="0.25"/>
<stop offset="0.54" stop-color="#808080" stop-opacity="0.12"/>
<stop offset="1" stop-color="#808080" stop-opacity="0.1"/>
</linearGradient>
<linearGradient id="paint1_linear" x1="21.0848" y1="140.174" x2="278.378" y2="139.816" gradientUnits="userSpaceOnUse">
<stop stop-opacity="0.09"/>
<stop offset="0.55" stop-opacity="0.07"/>
<stop offset="1" stop-opacity="0.02"/>
</linearGradient>
<linearGradient id="paint2_linear" x1="61445.2" y1="21715.1" x2="61445.2" y2="6114.13" gradientUnits="userSpaceOnUse">
<stop stop-color="#808080" stop-opacity="0.25"/>
<stop offset="0.54" stop-color="#808080" stop-opacity="0.12"/>
<stop offset="1" stop-color="#808080" stop-opacity="0.1"/>
</linearGradient>
<linearGradient id="paint3_linear" x1="22346.6" y1="32594.6" x2="22346.6" y2="16992.4" gradientUnits="userSpaceOnUse">
<stop stop-color="#808080" stop-opacity="0.25"/>
<stop offset="0.54" stop-color="#808080" stop-opacity="0.12"/>
<stop offset="1" stop-color="#808080" stop-opacity="0.1"/>
</linearGradient>
<linearGradient id="paint4_linear" x1="39100.4" y1="56036.6" x2="39100.4" y2="40434.3" gradientUnits="userSpaceOnUse">
<stop stop-color="#808080" stop-opacity="0.25"/>
<stop offset="0.54" stop-color="#808080" stop-opacity="0.12"/>
<stop offset="1" stop-color="#808080" stop-opacity="0.1"/>
</linearGradient>
<linearGradient id="paint5_linear" x1="3500.6" y1="10643.2" x2="3500.6" y2="8796.44" gradientUnits="userSpaceOnUse">
<stop stop-color="#808080" stop-opacity="0.25"/>
<stop offset="0.54" stop-color="#808080" stop-opacity="0.12"/>
<stop offset="1" stop-color="#808080" stop-opacity="0.1"/>
</linearGradient>
<linearGradient id="paint6_linear" x1="17326.5" y1="6627.61" x2="17326.5" y2="4780.81" gradientUnits="userSpaceOnUse">
<stop stop-color="#808080" stop-opacity="0.25"/>
<stop offset="0.54" stop-color="#808080" stop-opacity="0.12"/>
<stop offset="1" stop-color="#808080" stop-opacity="0.1"/>
</linearGradient>
<linearGradient id="paint7_linear" x1="10878" y1="18780.9" x2="10878" y2="16934.1" gradientUnits="userSpaceOnUse">
<stop stop-color="#808080" stop-opacity="0.25"/>
<stop offset="0.54" stop-color="#808080" stop-opacity="0.12"/>
<stop offset="1" stop-color="#808080" stop-opacity="0.1"/>
</linearGradient>
<clipPath id="clip0">
<rect width="302" height="254" fill="white"/>
</clipPath>
</defs>
</svg>
