<svg width="288" height="214" viewBox="0 0 288 214" fill="none" xmlns="http://www.w3.org/2000/svg">
<g clip-path="url(#clip0)">
<path d="M265.324 52.0204C232.637 6.51851 163.586 -11.939 95.6772 7.94018C59.7757 18.4497 25.1601 39.5071 8.00538 80.2811C-22.6605 153.169 41.7263 176.447 83.8283 183.867C104.187 187.454 123.361 193.48 140.882 201.685C172.404 216.446 228.202 229.526 270.276 168.039C300.772 123.474 287.097 82.3291 265.324 52.0204Z" fill="#F2F2F2"/>
<path d="M75.8136 61.0224C75.7222 60.2993 75.5373 59.5911 75.2635 58.9155C75.2286 58.7878 75.1675 58.6687 75.084 58.5659C75.0006 58.4631 74.8966 58.3788 74.7788 58.3184C74.6213 58.2774 74.4563 58.2756 74.2979 58.313L71.8288 58.6909C71.6222 58.7004 71.4243 58.7773 71.2655 58.9099C70.9439 59.2482 71.2606 59.793 71.2507 60.2598C71.2396 60.7846 70.7735 61.2106 70.268 61.3516C69.7519 61.4559 69.2197 61.4493 68.7064 61.3322L65.2539 60.7955C66.2707 60.4708 67.1757 59.8666 67.8657 59.0519C68.3201 58.5135 68.5618 57.5083 67.9052 57.2533C67.7101 57.1998 67.5066 57.1834 67.3055 57.2052C65.7413 57.2173 64.5104 55.9109 63.046 55.3606C62.1087 55.0312 61.0914 55.0067 60.1394 55.2906C59.1874 55.5745 58.3495 56.1522 57.7455 56.9413L59.5847 57.03C59.7578 57.0204 59.9293 57.0662 60.0746 57.1607C60.4777 57.4919 59.9766 58.1283 60.0334 58.647C60.1071 59.321 61.0017 59.4649 61.676 59.533C62.3504 59.6012 63.2058 60.1492 62.8815 60.7446C59.4922 61.9124 56.0433 58.4617 52.4838 58.8865C51.5829 58.994 50.7323 59.348 49.8527 59.5706C44.4798 60.9305 38.9251 57.3022 33.4364 58.0706C32.2162 58.2787 31.0169 58.5951 29.8528 59.016C29.1058 59.2614 28.3266 59.5266 27.7838 60.0956C27.241 60.6647 27.0345 61.6378 27.5487 62.2329C26.1314 62.3496 24.7046 62.2139 23.3347 61.8322C23.7052 62.0382 24.0134 62.3401 24.2269 62.7063C24.4405 63.0726 24.5516 63.4895 24.5485 63.9135C22.3356 64.2745 20.1813 64.9316 18.1435 65.8672C18.5238 66.4999 18.968 67.0918 19.4692 67.6338L16.6677 69.4342C17.6141 69.6728 18.1035 70.9638 17.5531 71.7701C18.5345 71.3334 19.1427 70.2036 20.1921 69.9745C20.8796 69.8244 21.5792 70.1058 22.2314 70.3701C22.8836 70.6344 23.6005 70.8907 24.2757 70.6923C24.9509 70.4939 25.4489 69.6182 25.0198 69.0602C27.9057 68.2179 30.8883 67.7517 33.8935 67.6733C34.1253 67.6442 34.3605 67.6889 34.5655 67.8009C34.9567 68.0724 34.8538 68.6588 34.8327 69.1347C34.8117 69.6105 35.1824 70.2359 35.6075 70.0214C35.1074 70.4553 35.5349 71.2721 36.0148 71.7283C36.4946 72.1845 37.073 72.8141 36.7792 73.4075C36.7026 73.5624 36.5725 73.6864 36.4987 73.8427C36.281 74.304 36.6267 74.8419 37.0345 75.1483C37.4424 75.4546 37.9419 75.6688 38.2252 76.093C38.5085 76.5173 38.3798 77.2599 37.8733 77.3191L36.4334 75.4903C35.9415 76.0006 35.6042 76.6399 35.4608 77.3342C36.9876 78.5828 37.2173 81.1241 35.939 82.6264C35.2858 83.3941 34.3569 83.8605 33.5461 84.4593C32.7354 85.0581 31.9852 85.9108 31.9872 86.9189C31.9907 88.6606 31.8485 90.2787 32.5009 91.8935C33.704 94.871 35.093 97.7699 36.6597 100.573C37.0711 101.309 37.6028 102.116 38.4363 102.243C37.383 99.6775 36.4348 97.0724 35.5917 94.4275C36.1408 94.4296 36.7754 94.4732 37.0973 94.9183C37.3638 95.2868 37.3066 95.7878 37.3894 96.2351C37.4947 96.6684 37.6704 97.0815 37.9094 97.458L42.9393 106.421C43.3563 107.164 43.8346 107.961 44.6315 108.262C45.141 108.455 45.7305 108.419 46.1995 108.695C46.5671 108.913 46.8147 109.298 47.1894 109.502C48.249 110.081 49.7224 108.972 50.7126 109.662C50.9958 109.86 51.1759 110.173 51.4368 110.399C52.3513 111.191 53.8515 110.661 54.9073 111.252C55.5877 111.633 55.9403 112.395 56.3032 113.085C57.2123 114.815 58.6832 116.509 60.6314 116.646C61.2434 116.69 61.8685 116.574 62.4667 116.71C63.0649 116.846 63.6538 117.368 63.5577 117.974C63.3931 119.013 63.9064 120.151 63.7685 121.194C63.5174 123.094 60.8234 123.929 60.592 125.832C60.5413 126.248 60.6206 126.678 60.5215 127.086C60.4 127.586 60.0248 127.993 59.8915 128.489C59.6389 129.431 60.313 130.367 61.0536 131.001C61.7942 131.634 62.6776 132.18 63.0825 133.066C63.5104 134.003 63.3002 135.096 63.4394 136.117C63.7432 138.345 65.6672 139.997 67.6472 141.062C68.2505 141.386 68.8982 141.701 69.2887 142.264C69.7983 142.998 69.7476 143.967 69.9177 144.845C70.3345 146.995 72.144 148.767 72.1954 150.957C72.2319 152.513 71.3671 153.925 70.8505 155.393C70.3661 156.8 70.1908 158.295 70.3366 159.776C70.4824 161.257 70.9457 162.689 71.6951 163.975C72.0815 164.627 72.5438 165.243 72.8171 165.95C73.305 167.213 73.1467 168.649 73.5965 169.926C74.1912 171.614 75.8253 173.008 75.6689 174.792C76.4108 176.333 78.049 177.09 79.6963 177.549L82.6486 178.371C83.2139 178.528 83.8046 178.687 84.3803 178.573C84.9559 178.459 85.5052 177.981 85.4904 177.394C84.0426 177.067 82.5484 176.72 81.3549 175.837C80.1615 174.955 79.3439 173.383 79.7967 171.969C80.0067 171.314 80.4534 170.557 80.0287 170.015C79.7856 169.705 79.3409 169.624 79.0666 169.341C78.6388 168.899 78.7858 168.158 79.0934 167.626C79.4009 167.093 79.8454 166.618 79.9695 166.016C80.0321 165.679 79.9903 165.331 79.8496 165.018C79.7089 164.706 79.4761 164.444 79.1823 164.268C79.7298 164.061 80.2276 163.741 80.6436 163.33C81.0279 162.891 81.2054 162.214 80.9031 161.715C81.8008 161.829 82.8607 161.885 83.45 161.198C83.9205 160.649 83.8882 159.829 83.7023 159.13C83.5163 158.432 83.2021 157.754 83.1923 157.031C85.2631 157.129 87.3385 157.059 89.398 156.82C89.1002 155.817 88.4234 154.969 87.5112 154.456C88.444 154.299 89.2937 153.182 89.5884 152.282C89.8831 151.383 89.8079 150.404 89.6258 149.475C89.5558 149.236 89.5462 148.983 89.5979 148.74C89.7029 148.405 90.0317 148.2 90.3359 148.026L94.9656 145.366C95.2419 145.227 95.4923 145.042 95.706 144.819C96.191 144.249 96.1192 143.389 95.8708 142.683C95.6225 141.977 95.2246 141.313 95.129 140.57C94.8428 138.35 97.2187 136.757 98.0206 134.667C98.3352 133.847 98.3993 132.955 98.4602 132.079C98.5257 131.137 98.5305 130.044 97.808 129.437C97.1154 128.856 96.0333 128.986 95.3086 128.445C94.6442 127.949 94.4149 126.986 93.6891 126.585C93.0299 126.222 92.2034 126.453 91.4703 126.282C90.1794 125.981 89.3671 124.492 88.0488 124.355C87.305 124.277 86.4631 124.641 85.8535 124.207C85.3163 123.826 85.2948 123.058 85.1926 122.407C85.0134 121.395 84.5284 120.462 83.803 119.734C83.0777 119.006 82.1467 118.518 81.1355 118.335C80.3686 118.212 79.5338 118.259 78.8814 117.837C78.2208 117.41 77.9179 116.611 77.3989 116.02C76.5626 115.067 75.2453 114.729 74.0114 114.438L68.9922 113.258C68.1012 113.049 66.9527 112.937 66.4746 113.718C66.333 114.015 66.2328 114.331 66.1768 114.655C65.9976 115.242 65.6371 115.757 65.1469 116.126C64.6568 116.495 64.0623 116.699 63.4489 116.709C63.0283 115.991 62.3468 115.464 61.5467 115.237C61.0377 115.095 60.493 115.079 60.0076 114.87C59.7432 114.741 59.508 114.56 59.3162 114.336C59.1245 114.113 58.9803 113.853 58.8925 113.572C58.8047 113.292 58.7751 112.996 58.8055 112.703C58.8359 112.41 58.9257 112.127 59.0695 111.87C59.3588 111.355 59.4706 110.758 59.3875 110.173C59.3044 109.588 59.031 109.046 58.6096 108.632C57.756 107.865 56.5213 107.68 55.3768 107.757C55.077 107.103 55.5782 106.364 56.1183 105.889C56.6584 105.413 57.3143 104.946 57.4319 104.236C57.6169 103.119 56.1923 102.271 55.1106 102.604C54.029 102.937 53.3386 103.988 52.8822 105.024C52.6204 105.618 52.3978 106.244 51.9847 106.745C51.5717 107.246 50.9066 107.605 50.2774 107.444C49.3868 107.217 49.0428 106.158 48.8457 105.26C48.5812 104.055 48.3152 102.833 48.3706 101.6C48.426 100.368 48.8414 99.1023 49.75 98.2679C51.2305 96.9081 53.5018 97.0414 55.5 97.2583C55.0279 96.7263 55.1446 95.8295 55.6497 95.3287C55.9163 95.0917 56.2367 94.9234 56.5831 94.8383C56.9294 94.7531 57.2914 94.7538 57.6374 94.8402C58.2395 94.9656 58.7819 95.29 59.1773 95.7613C59.7451 96.4538 59.9066 97.3888 60.3358 98.1749C60.765 98.961 61.7301 99.6314 62.52 99.2097C63.2022 98.8454 63.3105 97.8991 63.1407 97.1443C62.9709 96.3895 62.6103 95.6556 62.6718 94.8844C62.7891 93.4129 64.314 92.5272 65.6596 91.9212C67.0051 91.3152 68.5459 90.5001 68.7591 89.0394C68.7664 88.7534 68.8203 88.4706 68.9188 88.202C69.068 87.9647 69.2754 87.7696 69.5212 87.6352C73.4483 85.039 77.4407 82.4111 81.9292 80.9925C82.1628 80.9187 82.1902 81.0007 82.4281 80.9429C82.7612 80.7503 82.5405 80.2176 82.2212 80.003C81.9018 79.7884 81.475 79.6239 81.394 79.2477C81.3344 78.9711 81.4973 78.6996 81.5396 78.4199C81.6436 77.7326 80.8217 77.098 80.1834 77.3728C79.8228 76.8951 80.5362 76.3401 81.1131 76.1812C82.8453 75.7043 84.6235 75.4137 86.4174 75.3144C86.6244 75.2815 86.8365 75.3176 87.021 75.4171C87.3223 75.6259 87.2838 76.1047 87.0703 76.4028C86.8567 76.7008 86.5246 76.8879 86.2585 77.14C85.9678 77.4233 85.7604 77.7811 85.659 78.1742C85.5577 78.5674 85.5662 78.9808 85.6837 79.3694C86.6202 79.846 87.6384 80.3365 88.6756 80.1687C89.7128 80.0008 90.6334 78.835 90.1459 77.9039C89.6918 77.0369 88.3281 76.8413 88.0936 75.8911C87.819 74.7785 89.3934 73.789 89.0388 72.6993C88.8834 72.222 88.4079 71.941 88.043 71.5964C87.6121 71.1739 87.319 70.6309 87.2021 70.0387C87.0853 69.4465 87.1502 68.8328 87.3884 68.2782C86.7941 68.3828 86.1833 68.3433 85.6074 68.163C85.0315 67.9827 84.5072 67.6669 84.0784 67.2421C83.2867 66.4428 82.6551 65.182 81.5309 65.2177C80.4992 65.2505 79.6106 66.4546 78.6459 66.0872C78.4086 65.9969 78.1584 65.8129 77.9284 65.9207C77.8531 65.9697 77.7898 66.0351 77.7434 66.1121C77.6971 66.1891 77.6688 66.2756 77.6608 66.3651C77.4156 67.5376 77.8373 68.8735 77.1985 69.8866C76.5034 70.9892 74.8955 71.142 74.0528 72.1362C73.5954 72.6759 73.4181 73.4031 72.9976 73.9721C72.5772 74.5411 71.6847 74.9028 71.1801 74.407C71.4281 73.8969 71.4958 73.3179 71.3722 72.7643C71.2486 72.2108 70.9409 71.7156 70.4995 71.3597C70.031 71.0539 69.526 70.8082 68.9963 70.6283C68.4045 70.3777 67.8414 70.0637 67.317 69.692C67.0543 69.5335 66.8409 69.305 66.7005 69.0321C66.5895 68.6904 66.6045 68.3203 66.7427 67.9886C66.9986 67.2548 67.45 66.6048 68.0482 66.1088C68.6464 65.6128 69.3686 65.2897 70.137 65.1743C70.8088 65.0829 71.5908 65.1151 72.0354 64.603C72.2707 64.332 72.3941 63.9224 72.7356 63.8123C72.9541 63.7684 73.1808 63.7964 73.3821 63.892L75.8899 64.775C76.1697 64.9013 76.4776 64.9523 76.7832 64.9228C76.9347 64.9024 77.0729 64.8254 77.1701 64.7073C77.2672 64.5892 77.3161 64.4387 77.3069 64.286C77.2268 63.8694 76.586 63.6695 76.6443 63.2493C76.677 63.1131 76.7502 62.9901 76.8542 62.8964C77.7592 61.9328 78.866 61.1813 80.0954 60.6956C81.3247 60.21 82.6462 60.0023 83.9651 60.0873C84.2817 60.6073 83.7811 61.2232 83.3645 61.6671C82.948 62.111 82.6133 62.9042 83.117 63.2459C83.3235 63.3513 83.5531 63.4031 83.7847 63.3964C84.4022 63.48 85.0022 63.662 85.562 63.9356C86.4286 64.3129 87.2785 64.7256 88.1118 65.1739C88.0382 64.6243 87.9679 64.0452 88.1762 63.5313C88.3845 63.0174 88.9763 62.6143 89.4933 62.8144C89.9916 63.0073 90.2471 63.6673 90.7779 63.7277C91.486 63.8084 91.7654 62.762 91.4696 62.1134C91.1738 61.4648 90.5883 60.9217 90.5394 60.2104C90.5064 59.7306 90.689 59.1355 90.3058 58.845C90.1695 58.7578 90.0147 58.7035 89.8538 58.6864L80.2872 56.9254C79.7191 56.8208 78.8983 56.901 78.8731 57.4782C78.859 57.8005 79.1468 58.1193 79.0193 58.4155C78.8833 58.7317 78.4365 58.7028 78.111 58.8147C77.606 58.9882 77.3526 59.588 77.4011 60.12C77.4899 60.6485 77.6946 61.1508 78.0003 61.5909C77.3781 61.3306 76.4359 61.2828 75.8136 61.0224Z" fill="#3F3D56"/>
<path d="M68.1804 52.8986C67.5772 52.6989 66.9271 52.6896 66.3184 52.872C65.7097 53.0543 65.1717 53.4195 64.7775 53.9181C64.62 54.1256 64.4877 54.4116 64.6196 54.6362C64.8086 54.9583 65.2904 54.8311 65.6455 54.7159C66.1676 54.5293 66.7358 54.5158 67.2661 54.6772C67.5996 54.7918 67.898 54.9942 68.2329 55.1044C68.396 55.1726 68.5745 55.1952 68.7494 55.1696C68.9243 55.144 69.0889 55.0713 69.2256 54.9593C69.4555 54.7248 69.47 54.3601 69.4704 54.0317C69.4863 53.9217 69.4775 53.8097 69.4446 53.7036C69.4118 53.5975 69.3556 53.5001 69.2803 53.4185C69.1462 53.3408 68.9956 53.2962 68.8408 53.2884C68.4942 53.2243 68.1809 53.0411 67.9549 52.7706" fill="#3F3D56"/>
<path d="M71.63 51.9382C71.4949 51.9308 71.3603 51.9583 71.239 52.0181C71.1177 52.0778 71.0138 52.1678 70.9373 52.2793C70.8608 52.3908 70.8143 52.5201 70.8022 52.6548C70.7901 52.7895 70.8129 52.9251 70.8683 53.0484C71.2829 53.1616 71.716 53.1898 72.1418 53.1315C72.3542 53.0985 72.552 53.0034 72.7105 52.8581C72.8689 52.7128 72.9807 52.5239 73.032 52.3151C72.5307 52.4064 72.0134 52.3075 71.581 52.0379" fill="#3F3D56"/>
<path d="M83.2035 50.3338C82.0751 50.5738 80.9789 50.9463 79.9378 51.4435C80.4286 51.6322 80.8458 51.9737 81.1279 52.4175C81.4101 52.8614 81.5422 53.3842 81.5049 53.9089C81.4609 54.1103 81.466 54.3194 81.5198 54.5184C81.6397 54.8093 81.9873 54.9184 82.2928 54.9931C82.8418 55.1602 83.415 55.2334 83.9884 55.2096C84.2752 55.1945 84.5537 55.1082 84.7987 54.9584C85.0438 54.8086 85.2476 54.6001 85.3918 54.3516C85.4749 54.1158 85.5724 53.8853 85.6837 53.6615C86.4161 52.5456 88.5919 53.8948 89.3782 52.8164C89.6552 52.4365 89.6299 51.8646 89.991 51.5636C90.1778 51.4324 90.3943 51.3498 90.6209 51.3231C92.2023 51.0088 93.7996 50.7812 95.4058 50.6414C96.1669 50.5751 97.1588 50.3018 97.1652 49.5376C94.2986 48.9744 91.3263 49.3744 88.7105 50.6754C87.768 51.1476 86.5215 52.1409 85.6136 51.5149C85.2737 51.2805 85.2905 50.6493 84.8227 50.3857C84.3444 50.1162 83.7113 50.2258 83.2035 50.3338Z" fill="#3F3D56"/>
<path d="M92.5781 52.0873L93.9237 52.3459C93.676 52.335 93.4288 52.377 93.1986 52.4691C92.9684 52.5613 92.7606 52.7015 92.5888 52.8804C92.4171 53.0593 92.2855 53.2727 92.2028 53.5066C92.12 53.7404 92.0881 53.9891 92.1091 54.2363C93.3692 54.6574 94.743 54.2476 96.0704 54.3036C97.3978 54.3595 98.9422 55.308 98.7156 56.6176C98.6471 57.0136 98.4185 57.4093 98.5374 57.7931C98.6207 58.0621 98.8579 58.253 98.9918 58.5008C99.2707 59.0172 99.0478 59.6702 98.6955 60.1396C98.3432 60.609 97.8698 60.9835 97.5605 61.4823C96.7915 62.7228 97.2284 64.3267 97.6866 65.7126C97.819 66.2363 98.0636 66.725 98.4034 67.1448C99.0821 67.8667 100.188 67.9294 101.179 67.9439C101.9 67.9544 102.726 67.9188 103.182 67.36C103.777 66.6305 103.361 65.4923 103.752 64.636C104.108 63.8584 105.015 63.5248 105.837 63.2882C107.342 62.8548 108.876 62.4863 110.299 61.8315C112.066 61.0185 113.717 59.7516 115.659 59.6469C116.204 59.6175 116.762 59.6819 117.287 59.5325C117.812 59.3832 118.31 58.9293 118.271 58.3849C118.237 57.9198 117.843 57.5783 117.536 57.2276C117.229 56.877 116.987 56.3378 117.27 55.9668L122.36 55.0157C121.999 54.032 121.718 52.7364 122.547 52.0961C122.846 51.8651 123.247 51.7728 123.502 51.4935C123.936 51.0174 123.718 50.1974 123.216 49.7926C122.715 49.3878 122.038 49.2938 121.396 49.2405C119.164 49.055 116.919 49.1776 114.682 49.3002C110.311 49.5399 105.939 49.7796 101.568 50.0193C100.688 50.0676 99.6716 49.9938 98.8645 50.2942C98.1812 50.5484 97.6954 51.0152 96.9139 51.1792C95.4712 51.4819 93.8836 51.277 92.5781 52.0873Z" fill="#3F3D56"/>
<path d="M116.684 62.7271C116.547 62.7054 116.407 62.7372 116.293 62.8159C116.217 62.8992 116.172 63.0058 116.165 63.1181C116.078 63.6136 116.182 64.1237 116.455 64.5461C116.594 64.7534 116.786 64.9196 117.011 65.0275C117.236 65.1355 117.486 65.1811 117.734 65.1599C118.34 65.0826 118.787 64.5655 119.344 64.3132C120.202 63.9246 123.848 63.3189 121.326 61.9559C120.457 61.4861 119.896 61.9008 119.211 62.2102C118.431 62.609 117.558 62.7877 116.684 62.7271Z" fill="#3F3D56"/>
<path d="M138.775 51.3177C138.48 51.438 138.234 51.6526 138.074 51.9278C138.001 52.0675 137.984 52.2302 138.027 52.3822C138.069 52.5342 138.169 52.6639 138.305 52.7444C138.415 52.7843 138.532 52.8028 138.649 52.7989L139.846 52.8347C140.355 52.8499 140.99 52.9583 141.127 53.4487C141.228 53.8128 141.001 54.2807 141.275 54.5409C141.393 54.6321 141.534 54.6873 141.683 54.6999C142.077 54.8012 142.489 54.8145 142.889 54.7388C143.76 54.5051 143.303 53.9731 143.577 53.4994C143.997 52.7747 143.924 53.2134 144.664 52.798C145.21 52.4913 145.916 51.9348 145.46 51.153C144.667 49.7934 139.945 50.7336 138.775 51.3177Z" fill="#3F3D56"/>
<path d="M162.41 50.6343L161.714 50.7271C160.147 50.9364 158.57 51.1476 157.059 51.6187C157.713 51.8772 158.399 52.0456 159.098 52.1191C159.483 52.1379 159.865 52.1923 160.24 52.2815C160.907 52.4801 161.579 52.9931 162.224 52.7303C162.623 52.5674 162.754 52.1512 163.085 51.9306C163.313 51.7783 164.18 51.5318 164.277 51.3781C165.06 50.1353 163.012 50.5539 162.41 50.6343Z" fill="#3F3D56"/>
<path d="M165.463 53.7955C164.534 54.3151 163.673 54.9464 162.897 55.6753C162.57 55.9826 162.237 56.3647 162.266 56.8122C162.306 57.4071 162.939 57.7521 163.488 57.9845L165.711 58.926C165.98 58.5458 165.734 58.0209 165.455 57.6473C165.176 57.2737 164.845 56.8414 164.968 56.3918C165.109 55.8787 165.734 55.7039 166.258 55.6155C167.113 55.4714 169.418 55.483 169.141 54.1055C168.815 52.4824 166.321 53.3159 165.463 53.7955Z" fill="#3F3D56"/>
<path d="M165.016 145.649C164.804 146.261 164.784 146.983 165.15 147.518C165.561 148.119 166.383 148.343 167.094 148.19C167.803 148.002 168.434 147.596 168.899 147.029C169.325 146.555 169.675 146.018 169.937 145.437C170.304 144.532 170.562 143.586 170.707 142.621L171.397 138.996C171.551 138.186 171.545 135.702 170.057 136.511C169.65 136.732 168.709 138.478 168.282 138.972C167.514 139.865 167.413 140.73 167.009 141.811C166.502 143.164 165.484 144.293 165.016 145.649Z" fill="#3F3D56"/>
<path d="M243.632 164.198C243.145 164.008 242.673 163.783 242.218 163.524C241.762 164.778 241.52 166.1 241.501 167.434L244.834 165.547C245.335 165.263 245.903 164.869 245.893 164.293C245.897 164.222 245.882 164.15 245.85 164.087C245.818 164.023 245.769 163.97 245.708 163.932C245.634 163.902 245.554 163.893 245.475 163.904C244.981 163.946 244.53 164.189 244.064 164.358C243.598 164.527 243.052 164.617 242.625 164.366" fill="#3F3D56"/>
<path d="M261.214 165.318C260.848 165.418 260.49 165.546 260.145 165.702C259.38 166.091 258.86 166.83 258.171 167.343C257.513 167.834 256.72 168.103 255.942 168.365C255.713 168.567 255.818 168.975 256.066 169.153C256.334 169.305 256.64 169.374 256.947 169.351C257.755 169.369 258.607 169.377 259.315 168.986C259.714 168.727 260.088 168.43 260.431 168.1C261.259 167.409 262.253 166.953 263.237 166.513C263.596 166.377 263.927 166.179 264.216 165.927C264.834 165.318 264.878 164.377 263.986 164.17C263.265 164.002 261.9 165.096 261.214 165.318Z" fill="#3F3D56"/>
<path d="M268.982 160.242C269.022 159.823 268.966 159.4 268.819 159.005C268.671 158.61 268.436 158.254 268.131 157.963C268.122 158.803 268.096 159.697 267.625 160.391C267.288 160.885 266.761 161.219 266.393 161.69C266.024 162.161 265.861 162.908 266.293 163.321C266.569 163.532 266.906 163.647 267.253 163.652C268.113 163.753 269.108 163.81 269.711 163.188C270.041 162.849 270.201 162.346 270.602 162.097C270.752 162.034 270.885 161.938 270.993 161.817C271.159 161.553 270.896 161.206 270.599 161.111C270.302 161.016 269.976 161.061 269.678 160.97C269.38 160.88 269.106 160.545 269.259 160.273" fill="#3F3D56"/>
<path d="M255.175 129.471C254.724 129.581 254.257 129.608 253.796 129.552C253.03 129.411 252.434 128.834 251.816 128.361C250.346 127.241 248.56 126.617 246.714 126.577C245.034 126.546 243.338 127.001 241.689 126.683C241.796 127.283 242.309 127.733 242.857 128C243.404 128.267 244.008 128.402 244.558 128.664C245.439 129.087 246.138 129.815 246.526 130.712C246.703 131.125 246.815 131.575 247.083 131.937C247.631 132.675 248.671 132.837 249.588 132.777C250.784 132.698 252.034 132.354 253.146 132.8C253.998 133.141 254.607 133.886 255.318 134.465C256.029 135.045 257.03 135.475 257.846 135.057C256.998 134.782 256.26 134.244 255.74 133.52C255.22 132.796 254.945 131.925 254.954 131.034C255.755 131.108 258.06 131.079 257.936 129.718C257.831 128.565 255.863 129.346 255.175 129.471Z" fill="#3F3D56"/>
<path d="M244.703 138.853C244.845 138.073 245.623 137.384 245.381 136.63C245.213 136.108 244.608 135.85 244.06 135.837C243.512 135.824 242.974 135.987 242.426 136.003C242.07 135.984 241.712 135.989 241.357 136.018C240.269 136.197 239.599 137.337 238.574 137.742C237.951 137.989 237.251 137.942 236.603 138.112C235.132 138.499 234.201 139.89 233.173 141.011C231.511 142.814 229.347 144.077 226.96 144.635C226.123 144.829 225.224 144.953 224.559 145.497C223.679 146.216 223.462 147.45 223.266 148.57C222.725 151.664 221.898 154.701 220.796 157.642L224.289 158.088C224.953 158.173 225.641 158.256 226.281 158.059C226.746 157.884 227.186 157.649 227.591 157.361C229.147 156.395 230.888 155.766 232.702 155.516C233.617 155.39 234.576 155.367 235.434 155.707C236.292 156.047 237.029 156.819 237.101 157.74C237.472 157.624 237.868 157.612 238.245 157.703C238.623 157.795 238.969 157.988 239.246 158.261C239.792 158.819 240.151 159.534 240.269 160.306C240.361 160.784 240.454 161.357 240.897 161.557C241.259 161.721 241.674 161.545 242.07 161.513C243.412 161.406 244.527 162.972 245.847 162.702C247.262 162.413 247.61 160.292 248.991 159.867C249.784 159.623 250.897 159.92 251.277 159.182C251.612 158.531 250.944 157.781 251.012 157.052C251.097 156.155 252.155 155.775 252.97 155.392C255.781 154.073 257.115 150.288 255.753 147.497C254.946 145.843 253.358 144.541 253.065 142.724C252.839 141.326 253.39 139.696 252.499 138.596C252.046 138.036 251.278 137.727 251.009 137.059C250.839 136.639 250.907 136.162 250.816 135.718C250.724 135.274 250.337 134.809 249.899 134.925C248.626 135.259 248.22 139.191 247.539 140.147C246.503 141.599 244.377 140.642 244.703 138.853Z" fill="#3F3D56"/>
<path d="M221.182 130.957C220.747 130.835 220.272 130.714 219.856 130.889C219.439 131.063 219.196 131.675 219.53 131.979C222.146 131.877 224.779 131.775 227.373 132.131C230.361 132.54 233.319 133.555 236.321 133.256C234.606 132.75 232.863 132.346 231.101 132.045L228.162 131.483C227.374 131.318 226.577 131.195 225.776 131.114C224.099 130.976 222.83 131.419 221.182 130.957Z" fill="#3F3D56"/>
<path d="M223.801 121.842C223.584 121.823 223.315 121.808 223.203 121.995C223.095 122.173 223.218 122.409 223.16 122.609C223.082 122.882 222.724 122.952 222.442 122.915C222.159 122.878 221.854 122.789 221.605 122.925C221.478 123.011 221.383 123.137 221.333 123.282C221.284 123.427 221.283 123.585 221.33 123.731C221.432 124.021 221.598 124.284 221.814 124.502C222.184 124.968 222.605 125.39 223.069 125.762C223.968 126.426 225.187 126.745 225.753 127.709C225.833 127.896 225.956 128.061 226.111 128.192C226.383 128.364 226.738 128.233 227.03 128.099L228.057 127.63C228.241 127.564 228.406 127.451 228.536 127.304C228.771 126.986 228.627 126.533 228.43 126.191C228.233 125.848 227.981 125.493 228.024 125.1C228.099 124.399 228.999 124.131 229.37 123.532C229.743 122.927 229.5 122.149 229.543 121.44C229.593 120.61 230.114 119.532 229.276 118.912C228.564 118.386 227.883 118.872 227.372 119.454C226.293 120.679 225.784 122.007 223.801 121.842Z" fill="#3F3D56"/>
<path d="M230.029 109.451C230.38 110.122 231.11 110.522 231.492 111.176C231.906 111.884 231.859 112.799 232.308 113.486C232.769 114.19 233.696 114.564 233.955 115.365C234.237 116.24 233.597 117.303 234.107 118.067C234.202 118.192 234.322 118.296 234.46 118.372C234.597 118.448 234.749 118.494 234.905 118.509C235.062 118.523 235.219 118.505 235.368 118.455C235.517 118.405 235.654 118.325 235.77 118.22C235.985 117.985 236.101 117.676 236.091 117.358C236.082 117.04 235.949 116.738 235.72 116.517C235.418 116.242 234.984 116.122 234.732 115.801C234.6 115.615 234.513 115.402 234.476 115.177C234.338 114.53 234.36 113.858 234.54 113.221C234.607 113.059 234.625 112.881 234.589 112.709C234.475 112.379 234.028 112.356 233.715 112.202C233.002 111.854 233.019 110.848 233.144 110.065C233.061 110.587 231.204 109.7 231.009 109.404C230.623 108.817 230.833 107.685 230.757 107.037C229.923 107.439 229.601 108.631 230.029 109.451Z" fill="#3F3D56"/>
<path d="M211.32 119.774C210.977 119.391 210.461 118.989 210.001 119.221C209.651 119.397 209.554 119.882 209.692 120.25C209.859 120.608 210.117 120.915 210.439 121.142C211.397 121.932 212.428 122.645 213.264 123.564C214.759 125.207 215.551 127.425 217.177 128.939C217.504 129.29 217.937 129.525 218.409 129.606C218.883 129.651 219.415 129.347 219.469 128.874C219.514 128.485 219.243 128.136 218.978 127.848C218.346 127.16 217.654 126.528 217.058 125.81C216.783 125.534 216.61 125.172 216.567 124.785C216.564 124.398 216.917 123.993 217.291 124.089C216.836 123.972 216.498 123.213 215.83 123.071C215.271 122.951 215.136 123.297 214.471 123.012C213.203 122.468 212.208 120.769 211.32 119.774Z" fill="#3F3D56"/>
<path d="M241.117 82.3978C240.753 82.2896 240.395 82.1618 240.045 82.0149C239.104 81.7322 237.858 82.4245 237.983 83.3999C238.067 84.0479 238.67 84.4848 239.003 85.0469C239.496 85.8805 239.365 86.9378 239.105 87.8713C239.042 88.1603 238.92 88.4336 238.749 88.6749C238.509 88.9296 238.223 89.1358 237.905 89.282C236.634 89.9953 235.513 90.9482 234.603 92.0882C234.505 92.1935 234.436 92.3233 234.404 92.4642C234.359 92.7935 234.69 93.0334 234.877 93.3081C235.293 93.9182 234.992 94.7392 235.033 95.4763C235.027 95.5805 235.047 95.6846 235.093 95.7788C235.138 95.8729 235.206 95.9539 235.292 96.0141C235.542 96.1414 235.839 95.9252 235.975 95.6792C236.425 94.8627 236.086 93.552 236.931 93.1583C237.091 93.0838 237.285 93.0524 237.391 92.912C237.561 92.6891 237.397 92.3591 237.483 92.0927C237.612 91.6927 238.159 91.6748 238.578 91.6925C239.301 91.7228 240.024 91.6265 240.714 91.4081C240.984 91.3438 241.23 91.2014 241.421 90.9986C241.673 90.6832 241.651 90.2347 241.6 89.8337C241.348 87.8344 240.714 85.902 239.735 84.1408C240.478 84.2357 241.286 84.3179 241.926 83.9308C242.285 83.7141 242.715 83.066 242.537 82.6248C242.256 81.9272 241.748 82.5144 241.117 82.3978Z" fill="#3F3D56"/>
<path d="M145.937 93.3937C146.026 93.8704 146.113 94.3723 145.957 94.8314C145.801 95.2904 145.31 95.674 144.846 95.5333C144.486 95.4242 144.278 95.062 144.022 94.786C142.601 93.2506 139.393 94.1395 138.515 92.2401C138.156 91.4649 138.4 90.5361 138.156 89.7178C138.001 89.2448 137.694 88.8365 137.283 88.5569C136.872 88.2774 136.379 88.1424 135.883 88.1733C135.43 88.2387 134.989 88.3703 134.575 88.5638C131.798 89.6763 128.883 90.4056 125.91 90.7319C125.345 90.7663 124.786 90.868 124.245 91.0349C123.024 91.4777 122.19 92.6099 121.596 93.7653C121.002 94.9207 120.564 96.1716 119.768 97.1981C118.932 98.2769 117.76 99.0323 116.666 99.8494C116.245 100.121 115.894 100.489 115.643 100.922C115.406 101.409 115.419 101.975 115.438 102.517L115.661 109.089C115.69 109.935 115.726 110.811 116.104 111.567C116.577 112.512 117.51 113.131 118.157 113.965C118.818 114.823 119.162 115.883 119.131 116.965C119.117 117.4 119.074 117.915 119.413 118.188C119.619 118.322 119.86 118.391 120.106 118.387L128.994 119.115C130.557 119.243 132.29 119.453 133.311 120.645C133.792 121.207 134.179 122.016 134.917 122.076C135.234 122.102 135.542 121.972 135.858 121.947C136.657 121.884 137.359 122.49 137.801 123.158C138.472 124.176 138.776 125.392 138.664 126.606C138.592 127.368 138.355 128.109 138.305 128.872C138.111 131.778 140.573 134.303 140.621 137.215C140.649 138.928 139.836 140.528 139.044 142.047C140.323 143.985 139.276 146.566 139.785 148.832C140.268 150.982 142.06 152.665 142.506 154.822C142.711 155.81 142.722 157.026 143.593 157.535C143.975 157.721 144.399 157.806 144.823 157.781C147.382 157.811 149.913 157.235 152.207 156.099C153.283 155.565 154.399 154.767 154.587 153.579C154.739 152.622 154.253 151.551 154.747 150.716C155.33 149.733 156.821 149.811 157.678 149.055C159.068 147.829 157.984 145.49 158.547 143.724C159.054 142.136 160.796 141.293 161.66 139.868C162 139.255 162.244 138.594 162.383 137.907C162.779 136.265 163.025 134.591 163.119 132.905C163.142 131.881 163.218 130.858 163.345 129.842C164.277 124.054 169.997 120.178 171.854 114.618C172.031 114.087 172.114 113.38 171.642 113.079C171.362 112.946 171.045 112.912 170.743 112.985L166.646 113.502C166.137 113.566 165.597 113.626 165.13 113.414C164.663 113.203 164.328 112.612 164.576 112.162C165.271 110.901 163.84 109.308 163.204 108.016C161.491 104.536 159.452 101.227 157.113 98.1342C156.963 97.975 156.869 97.7714 156.846 97.5542L158.009 97.5929C157.616 96.1839 156.968 94.642 155.6 94.1266C154.829 93.8362 153.975 93.9366 153.152 93.9816C150.796 94.1103 148.27 93.7544 145.937 93.3937Z" fill="#3F3D56"/>
<path d="M153.154 61.6413C153.771 62.2963 154.462 62.9908 155.354 63.105C156.93 63.3067 158.063 61.6766 158.784 60.2606C158.811 60.6216 158.977 60.9579 159.248 61.198C159.519 61.4382 159.873 61.5631 160.234 61.5464C160.623 61.4809 160.994 61.3357 161.325 61.1199C164.447 59.4131 167.944 58.5087 171.502 58.4881C171.468 58.2185 171.535 57.9457 171.69 57.7225C171.845 57.4993 172.077 57.3415 172.341 57.2794C173.065 57.1359 173.716 57.7616 174.065 58.4115C174.414 59.0614 174.632 59.8147 175.186 60.3012C175.741 60.7877 176.814 60.7665 177.033 60.062C177.243 59.3857 176.539 58.8089 175.954 58.4102C175.369 58.0115 174.752 57.2735 175.146 56.685C178.135 56.0231 181.143 55.3586 184.202 55.227C184.723 55.2451 185.242 55.1557 185.727 54.9643C186.193 54.7353 186.564 54.2155 186.439 53.711C185.771 53.868 185.072 53.8225 184.43 53.5804C183.789 53.3383 183.234 52.9105 182.836 52.3517C187.081 52.0013 191.595 51.7026 195.357 53.7006C195.808 54.6699 193.508 55.4765 194.123 56.3508C194.32 56.6297 194.713 56.6624 195.054 56.6687C197.668 56.7173 200.297 56.7649 202.882 56.3701C203.826 56.2258 204.78 56.0221 205.728 56.1391C207.308 56.334 208.659 57.3882 210.213 57.7319C210.845 57.8718 211.554 57.8766 212.087 57.5086C212.62 57.1406 212.85 56.3027 212.413 55.8243C213.876 54.3899 216.304 54.7454 218.234 55.4322C220.164 56.1189 221.993 57.2263 224.035 57.3794C225.5 57.4892 226.985 57.095 228.433 57.3455C229.343 57.503 230.189 57.9078 231.078 58.1565C232.76 58.6269 234.538 58.5276 236.284 58.5502C240.738 58.6102 245.144 59.486 249.283 61.1341C249.821 61.3094 250.315 61.601 250.728 61.9881C251.113 62.4007 251.309 63.0418 251.051 63.5433L246.774 62.9182C247.177 63.7117 248.219 63.847 249.066 64.1207C249.912 64.3945 250.79 65.3297 250.281 66.0599C249.364 65.7677 248.533 66.6851 248.07 67.5293C247.606 68.3734 247.041 69.3843 246.08 69.4357C245.219 69.4818 244.178 68.7485 243.617 69.4032C244.392 70.3815 245.056 71.4431 245.596 72.5684C246.151 73.7236 246.545 75.1793 245.796 76.2187C245.678 76.4043 245.5 76.543 245.291 76.611C244.679 76.766 244.281 76.0171 243.842 75.5633C243.289 74.9913 242.453 74.8293 241.704 74.5611C240.955 74.2929 240.166 73.7652 240.108 72.9717C240.071 72.478 240.332 72.019 240.524 71.5627C240.847 70.7936 240.988 69.9604 240.936 69.128C240.894 68.4582 240.706 67.7615 240.226 67.2936C239.745 66.8256 238.915 66.6772 238.399 67.1058C238.158 67.3058 237.965 67.6256 237.652 67.6376C237.099 67.6587 236.675 66.6949 236.23 67.0239C236.282 67.3745 236.21 67.7323 236.025 68.0347C234.698 69.189 232.66 68.7007 230.949 69.1084C230.136 69.3413 229.357 69.6815 228.634 70.1201C228.363 70.2359 228.133 70.4293 227.972 70.6759C227.758 71.0909 227.994 71.6225 228.37 71.8985C228.769 72.1434 229.218 72.2965 229.683 72.3469C231.768 72.742 233.884 73.3535 235.53 74.6934C237.177 76.0333 238.257 78.2483 237.736 80.3064L233.623 76.3756C233.779 78.0261 233.868 79.6811 233.889 81.3407C233.916 81.6647 233.871 81.9906 233.759 82.2957C233.466 82.9434 232.671 83.1614 231.975 83.3044C231.781 83.3412 231.597 83.4186 231.436 83.5315C231.274 83.6443 231.138 83.7901 231.037 83.9593C230.935 84.1284 230.871 84.3171 230.848 84.513C230.825 84.7088 230.843 84.9073 230.902 85.0955C231.149 85.9021 231.766 86.531 232.331 87.1577C232.896 87.7843 233.452 88.4965 233.525 89.337C233.599 90.1775 232.966 91.1249 232.124 91.0664C231.486 91.0221 231.013 90.4509 230.741 89.8721C230.469 89.2933 230.307 88.6485 229.898 88.1566C228.661 86.668 225.882 87.3058 224.773 85.7188C224.491 86.0394 224.295 86.427 224.204 86.8446C224.113 87.2623 224.131 87.6962 224.255 88.1052C224.771 87.7823 225.477 88.0823 225.864 88.5515C226.251 89.0207 226.434 89.6223 226.738 90.1493C227.149 90.8605 227.802 91.4909 227.86 92.3101C227.844 92.6199 227.85 92.9303 227.875 93.2394C227.977 93.7358 228.396 94.0922 228.687 94.5071C229.364 95.4725 229.33 96.7988 228.894 97.8941C228.458 98.9895 227.675 99.9048 226.899 100.792C225.543 102.342 224.16 103.883 222.553 105.17C222.095 105.537 221.605 105.899 221.32 106.412C221.034 106.926 221.019 107.646 221.458 108.037C221.144 108.053 220.581 108.207 220.267 108.223C220.157 106.963 220.133 105.697 220.195 104.433C218.956 103.838 217.622 105.432 217.782 106.798C217.942 108.163 218.929 109.26 219.632 110.441C220.146 111.305 220.528 112.313 220.357 113.304C220.185 114.294 219.301 115.208 218.3 115.121C216.707 114.982 216.04 112.695 214.463 112.433C214.324 112.4 214.178 112.415 214.048 112.474C213.814 112.603 213.773 112.916 213.76 113.183C213.695 114.493 213.639 115.854 214.151 117.062C214.898 118.829 216.83 120.312 216.425 122.188C214.242 121.173 213.107 118.724 212.592 116.372C212.076 114.019 211.991 111.55 211.067 109.326C210.365 110.226 208.891 109.482 208.25 108.539C207.643 107.644 207.269 106.61 206.679 105.703C206.09 104.797 205.187 103.985 204.107 103.935C202.975 103.883 201.993 104.66 201.129 105.395C200.419 105.999 199.69 106.626 199.275 107.461C198.671 108.676 198.829 110.108 198.8 111.464C198.769 112.93 198.458 114.477 197.459 115.551C196.46 116.624 194.616 116.998 193.514 116.031C192.939 115.526 192.66 114.771 192.412 114.047C191.216 110.555 190.22 106.998 189.429 103.393C189.243 104.216 188.521 105.276 187.831 104.791C187.676 104.661 187.551 104.499 187.463 104.317C186.176 102.135 183.793 100.826 181.384 100.041C178.976 99.2564 176.442 98.8903 174.061 98.0278C172.726 97.5442 171.451 96.909 170.261 96.1347C169.958 96.5804 169.781 97.1 169.749 97.6382C169.717 98.1765 169.831 98.7134 170.079 99.1921C170.607 100.128 171.803 100.669 172.826 100.342C173.355 100.173 173.801 99.8059 174.326 99.6246C174.851 99.4432 175.555 99.5323 175.784 100.038C176.004 100.522 175.672 101.108 175.837 101.613C176.088 102.383 177.248 102.442 177.654 103.143C177.956 103.664 177.707 104.356 177.276 104.776C176.845 105.197 176.27 105.428 175.744 105.72C174.036 106.67 172.822 108.292 171.33 109.553C169.837 110.815 167.732 111.736 165.953 110.927C166.377 108.779 163.82 107.203 163.35 105.065C163.195 104.361 163.275 103.614 163.054 102.928C162.734 101.935 161.853 101.253 161.131 100.5C160.255 99.578 159.573 98.4894 159.124 97.2988C158.675 96.1083 158.469 94.8399 158.519 93.5685C158.558 92.685 158.72 91.7871 158.519 90.926C158.318 90.0648 157.605 89.2313 156.722 89.2703C154.705 89.3595 152.163 89.5096 151.105 87.7894C150.727 87.1755 150.563 86.2763 151.109 85.8059C151.494 85.4741 152.063 85.5054 152.569 85.5552L157.114 86.0024C158.177 86.107 159.326 86.1934 160.238 85.6374C161.15 85.0815 161.546 83.6059 160.701 82.9518C160.084 82.4739 158.978 82.4998 158.799 81.74C158.649 81.1072 159.349 80.3892 158.971 79.8604C158.7 79.4812 158.09 79.5864 157.721 79.8706C157.352 80.1549 157.084 80.5706 156.67 80.7858C155.945 81.1634 155.078 80.8041 154.298 80.5599C153.518 80.3156 152.472 80.2949 152.093 81.0199C151.67 81.8306 152.469 82.893 152.049 83.7054C151.493 84.7796 149.613 84.1681 148.833 85.092C147.938 86.1522 149.442 87.7331 149.14 89.0875C148.755 89.2784 148.326 89.3661 147.897 89.3419C147.468 89.3178 147.052 89.1827 146.69 88.9498C146.335 88.7079 146.051 88.3741 145.87 87.9838C145.689 87.5936 145.617 87.1616 145.662 86.7337C145.737 86.1245 146.054 85.5025 145.842 84.9268C145.67 84.4612 145.202 84.1841 144.768 83.9441L140.351 81.5026C139.941 82.2635 140.46 83.2069 141.108 83.7784C141.757 84.35 142.569 84.7805 142.994 85.5326C143.264 86.0538 143.324 86.6582 143.163 87.2223C143.002 87.7865 142.632 88.268 142.128 88.5683C142.065 88.6119 141.993 88.6413 141.918 88.6545C141.842 88.6677 141.765 88.6644 141.691 88.6447C141.62 88.6033 141.559 88.5481 141.51 88.4825C141.461 88.4169 141.426 88.3422 141.407 88.2628C140.627 86.2678 139.457 84.3009 137.587 83.2588C135.716 82.2166 133.028 82.4309 131.802 84.1864C131.51 84.6034 131.315 85.0787 131.061 85.5195C129.713 87.8617 126.822 88.9708 124.121 88.8983C123.857 88.9129 123.594 88.8511 123.364 88.7203C122.927 88.4188 122.947 87.7788 123.014 87.2524L123.297 85.0182C123.354 84.5696 123.437 84.0737 123.792 83.7936C124.292 83.3989 125.014 83.648 125.651 83.6388C126.134 83.6162 126.598 83.4457 126.98 83.1503C127.363 82.8549 127.646 82.449 127.79 81.9876C127.918 81.5216 127.918 81.0294 127.787 80.5638C127.657 80.0983 127.402 79.6772 127.05 79.3458C126.758 79.0714 126.366 78.7267 126.521 78.3568C126.582 78.2544 126.665 78.1669 126.764 78.1001C126.863 78.0334 126.976 77.9893 127.094 77.9707C128.238 77.6382 129.448 77.551 130.573 77.1587C131.699 76.7664 132.79 75.9637 133.057 74.8016C133.138 74.4455 133.176 74.0141 133.495 73.8376C133.656 73.7698 133.828 73.7346 134.002 73.734C134.612 73.6471 135.168 73.3349 135.56 72.8588C135.951 72.3827 136.151 71.7772 136.118 71.1615C136.658 70.7845 137.413 71.0619 137.935 71.4629C138.457 71.8639 138.918 72.3937 139.553 72.5666C140.736 72.8887 141.879 71.8407 143.106 71.8358C143.621 71.8338 144.155 72.0162 144.64 71.8413C145.132 71.664 145.426 71.1742 145.803 70.8124C146.181 70.4506 146.843 70.2299 147.192 70.6197L146.895 68.4204C147.493 68.5714 148.116 68.5928 148.722 68.4831C149.329 68.3734 149.905 68.1351 150.412 67.7842L146.576 66.4876C146.443 66.4542 146.319 66.3883 146.218 66.2957C145.939 65.9953 146.216 65.5272 146.442 65.1857C146.985 64.3687 147.076 63.023 146.184 62.6163C145.575 62.3387 144.876 62.6719 144.291 62.9979L141.492 64.5596C141.403 65.092 142.053 65.3937 142.457 65.7524C142.701 65.9693 142.873 66.255 142.952 66.572C143.031 66.8889 143.012 67.2223 142.898 67.5282C142.784 67.8342 142.58 68.0985 142.313 68.2863C142.045 68.4742 141.728 68.5769 141.401 68.5809C141.586 68.8207 141.714 69.0989 141.776 69.3949C141.839 69.6909 141.834 69.9971 141.762 70.291L139.878 70.4265C139.666 70.469 139.447 70.4262 139.267 70.3072C139.065 70.1282 139.093 69.8145 139.046 69.549C138.933 68.9083 138.306 68.4592 137.666 68.344C137.026 68.2289 136.371 68.3765 135.737 68.5222C135.468 68.6191 135.172 68.6123 134.908 68.5031C134.756 68.4045 134.641 68.2591 134.58 68.0889C134.302 67.4149 134.562 66.6226 135.008 66.0462C135.454 65.4698 136.065 65.0484 136.614 64.5685C137.926 63.4168 138.89 61.9209 139.398 60.2498C140.435 59.8152 141.508 59.2246 142.545 58.7899C144.144 57.9802 145.937 57.6327 147.722 57.7865L151.234 57.8536C152.274 57.8735 153.342 57.8989 154.304 58.2955C155.265 58.692 156.11 59.5497 156.176 60.5879C156.196 60.7055 156.186 60.8261 156.147 60.9387C156.107 61.0512 156.04 61.1519 155.951 61.2313C155.815 61.3054 155.662 61.3401 155.507 61.3314C154.537 61.3655 154.124 61.6072 153.154 61.6413Z" fill="#3F3D56"/>
<path d="M125.161 72.6521C125.299 72.5222 125.397 72.357 125.447 72.1746C125.496 71.9922 125.494 71.7997 125.442 71.6182C125.108 71.4893 124.744 71.4562 124.393 71.5227C124.041 71.5891 123.715 71.7524 123.451 71.9942C123.243 72.2047 123.064 72.4418 122.918 72.6994C122.456 73.4526 122.048 74.3522 122.316 75.1942C122.337 75.286 122.377 75.3725 122.433 75.4487C122.489 75.5249 122.559 75.5892 122.64 75.6378C122.76 75.6859 122.889 75.7062 123.018 75.697C123.526 75.6964 124.034 75.6651 124.539 75.6034C124.849 75.5655 125.209 75.4779 125.328 75.1895C125.486 74.8104 125.105 74.3813 125.216 73.9861C125.289 73.8093 125.4 73.6507 125.54 73.5212C125.61 73.4559 125.664 73.3754 125.697 73.2858C125.73 73.1962 125.742 73.1001 125.732 73.0052C125.687 72.8197 125.403 72.7145 125.301 72.8756" fill="#3F3D56"/>
<path d="M127.798 69.233C127.346 69.1292 126.88 69.1 126.419 69.1464C126.317 69.1433 126.216 69.1663 126.126 69.2131C126.038 69.2779 125.974 69.3702 125.945 69.4753C125.847 69.788 125.871 70.1258 126.012 70.4216C126.152 70.7174 126.399 70.9494 126.703 71.0714C126.868 71.1095 127.027 71.1733 127.173 71.2604C127.563 71.563 127.314 72.1814 127.388 72.6693C127.471 73.2173 128.001 73.6773 127.904 74.2229C127.827 74.6527 127.368 74.9931 127.442 75.4234C127.519 75.8741 128.091 76.0096 128.547 76.0456C128.811 76.0919 129.083 76.0608 129.33 75.9559C129.577 75.7867 129.753 75.5318 129.824 75.2405C130.01 74.6849 130.089 74.0988 130.054 73.5137C130.052 73.2476 129.986 72.986 129.86 72.7516C129.723 72.5658 129.57 72.3916 129.405 72.2306C128.532 71.2146 129.451 69.6992 127.798 69.233Z" fill="#3F3D56"/>
<path opacity="0.8" d="M242.611 148.821C242.611 148.821 175.739 110.422 146.949 117.697C146.949 117.697 85.9362 124.265 78.8651 138.716C78.8651 138.716 59.4702 78.0855 52.3992 76.0645" stroke="#6062C3" stroke-width="2" stroke-miterlimit="10"/>
<path opacity="0.8" d="M78.8651 138.715C90.0778 108.804 191.093 75.6597 191.093 75.6597C176.749 79.2975 146.949 117.697 146.949 117.697C146.949 117.697 83.9159 71.8198 52.3992 76.0639C52.3992 76.0639 191.194 80.6111 242.611 148.82" stroke="#6062C3" stroke-width="2" stroke-miterlimit="10"/>
<path d="M52.3992 78.9947C54.0171 78.9947 55.3286 77.6827 55.3286 76.0643C55.3286 74.4458 54.0171 73.1338 52.3992 73.1338C50.7813 73.1338 49.4697 74.4458 49.4697 76.0643C49.4697 77.6827 50.7813 78.9947 52.3992 78.9947Z" fill="#6062C3"/>
<path d="M78.8651 141.646C80.483 141.646 81.7945 140.334 81.7945 138.716C81.7945 137.097 80.483 135.785 78.8651 135.785C77.2472 135.785 75.9357 137.097 75.9357 138.716C75.9357 140.334 77.2472 141.646 78.8651 141.646Z" fill="#6062C3"/>
<path d="M191.093 78.5904C192.711 78.5904 194.022 77.2784 194.022 75.66C194.022 74.0415 192.711 72.7295 191.093 72.7295C189.475 72.7295 188.163 74.0415 188.163 75.66C188.163 77.2784 189.475 78.5904 191.093 78.5904Z" fill="#6062C3"/>
<path d="M242.611 151.751C244.228 151.751 245.54 150.439 245.54 148.821C245.54 147.202 244.228 145.89 242.611 145.89C240.993 145.89 239.681 147.202 239.681 148.821C239.681 150.439 240.993 151.751 242.611 151.751Z" fill="#6062C3"/>
<path d="M146.949 120.627C148.567 120.627 149.879 119.315 149.879 117.697C149.879 116.078 148.567 114.766 146.949 114.766C145.331 114.766 144.02 116.078 144.02 117.697C144.02 119.315 145.331 120.627 146.949 120.627Z" fill="#6062C3"/>
</g>
<defs>
<clipPath id="clip0">
<rect width="288" height="214" fill="white"/>
</clipPath>
</defs>
</svg>
