<svg width="350" height="292" viewBox="0 0 350 292" fill="none" xmlns="http://www.w3.org/2000/svg">
<g clip-path="url(#clip0)">
<path opacity="0.1" d="M248.75 291.997C268.497 291.997 284.506 290.417 284.506 288.469C284.506 286.52 268.497 284.941 248.75 284.941C229.003 284.941 212.994 286.52 212.994 288.469C212.994 290.417 229.003 291.997 248.75 291.997Z" fill="#6062C3"/>
<path opacity="0.1" d="M153.235 4.27131C168.983 -1.58767 188.154 3.45126 204.526 10.8003C255.946 33.8873 293.406 77.7127 323.169 122.362C333.945 138.529 344.181 155.408 348.232 173.456C356.481 210.191 334.967 248.22 298.378 261.547C285.935 266.083 272.265 267.943 258.574 268.979C234.229 270.825 209.023 270.093 184.873 263.257C167.651 258.371 151.359 250.513 135.733 241.831C92.095 217.571 52.2427 186.067 23.5467 147.584C10.961 130.705 0.313767 111.677 0.0069697 92.2014C-0.299828 72.7261 12.38 53.1567 33.2422 49.8451C41.8674 48.4771 50.9911 49.9009 59.8917 51.3665C72.9969 53.5265 86.2798 55.7983 99.235 54.8561C112.619 53.8755 130.026 48.6412 132.467 35.8519C135.05 22.1204 137.508 10.1233 153.235 4.27131Z" fill="#C360A7"/>
<path d="M85.0735 268.282C85.0735 268.282 101.899 267.266 99.9148 279.068C99.9148 279.068 100.309 281.162 98.4192 282.1C98.4192 282.1 98.3913 281.224 96.6934 281.521C96.0904 281.625 95.477 281.655 94.8666 281.612C94.0411 281.555 93.2567 281.23 92.6319 280.687C92.6319 280.687 87.9009 278.733 86.0636 270.993C86.0636 270.993 84.7005 269.308 84.7562 268.871L87.5941 270.086C87.5941 270.086 86.6249 272.138 87.3884 273.841C87.3884 273.841 87.4791 270.163 88.0264 270.246C88.1345 270.264 89.5011 270.944 89.5011 270.944C89.5011 270.944 87.8312 274.514 89.0897 277.11C89.0897 277.11 88.6121 272.71 90.0206 271.202L92.0217 272.371C92.0217 272.371 90.0694 276.06 91.3942 279.068C91.3942 279.068 91.0456 274.451 92.4401 272.654L94.253 274.05C94.253 274.05 92.4192 277.686 93.5383 280.185C93.5383 280.185 93.6812 274.807 94.6435 274.402C94.6435 274.402 96.2297 275.798 96.4703 276.377C96.4703 276.377 95.2152 279.016 95.9927 280.408C95.9927 280.408 96.4703 276.828 96.8643 276.81C96.8643 276.81 98.4401 279.183 98.6074 280.809C98.6074 280.809 98.5377 278.391 97.2443 276.583C97.2443 276.583 98.7713 276.845 99.6638 277.836C99.6638 277.836 99.4162 276.158 96.8573 276.011C96.8573 276.011 95.5534 274.214 95.2013 274.102C95.2013 274.102 97.7498 273.889 99.2942 274.577C99.2942 274.577 97.9346 272.993 94.7341 273.711L92.9456 272.253C92.9456 272.253 96.303 271.792 97.7219 272.302C97.7219 272.302 96.0868 270.906 92.4645 271.921L90.5191 270.756C90.5191 270.756 93.3779 270.138 95.0827 270.361C95.0827 270.361 93.2838 269.391 89.9474 270.442L88.5529 269.817C88.5529 269.817 90.6446 269.405 91.2617 269.339C91.8788 269.273 91.9067 269.105 91.9067 269.105C90.5796 268.883 89.2169 269.034 87.9706 269.541C87.9706 269.541 85.0212 268.484 85.0735 268.282Z" fill="#6062C3"/>
<path opacity="0.1" d="M96.6621 285.143C103.239 285.143 108.571 284.242 108.571 283.13C108.571 282.018 103.239 281.116 96.6621 281.116C90.0848 281.116 84.7528 282.018 84.7528 283.13C84.7528 284.242 90.0848 285.143 96.6621 285.143Z" fill="#6062C3"/>
<path d="M62.5344 260.343C62.5344 260.343 72.0207 259.771 70.9016 266.425C70.9607 266.763 70.9112 267.11 70.7601 267.417C70.6091 267.725 70.3644 267.976 70.0614 268.135C70.0614 268.135 70.0439 267.643 69.0887 267.811C68.7491 267.869 68.4037 267.885 68.0602 267.859C67.5936 267.831 67.1498 267.648 66.7982 267.339C66.7982 267.339 64.1346 266.233 63.0887 261.871C63.0887 261.871 62.3217 260.919 62.3496 260.674L63.9533 261.372C63.9533 261.372 63.406 262.531 63.8348 263.491C63.8348 263.491 63.8871 261.414 64.1834 261.463C64.2462 261.463 65.0166 261.864 65.0166 261.864C65.0166 261.864 64.0753 263.878 64.7865 265.354C64.7865 265.354 64.5146 262.873 65.3095 262.021L66.4356 262.681C66.4356 262.681 65.3374 264.775 66.0869 266.457C66.0869 266.457 65.8952 263.853 66.6761 262.841L67.6976 263.637C67.6976 263.637 66.6517 265.685 67.2967 267.095C67.2967 267.095 67.3769 264.063 67.9208 263.836C67.9208 263.836 68.8133 264.625 68.9492 264.949C68.9492 264.949 68.252 266.436 68.6808 267.221C68.6808 267.221 68.9492 265.204 69.1724 265.193C69.1724 265.193 70.0614 266.53 70.152 267.448C70.1076 266.6 69.8432 265.779 69.385 265.064C69.8979 265.158 70.372 265.401 70.7482 265.762C70.7482 265.762 70.6122 264.817 69.1654 264.733C69.1654 264.733 68.4298 263.717 68.2345 263.658C68.2345 263.658 69.6709 263.536 70.5425 263.923C70.5425 263.923 69.7755 263.03 67.9696 263.435L66.962 262.611C66.962 262.611 68.8551 262.353 69.657 262.639C69.657 262.639 68.7331 261.85 66.6901 262.426L65.5954 261.767C66.4387 261.582 67.3024 261.508 68.1648 261.547C68.1648 261.547 67.1538 260.999 65.2711 261.592L64.4867 261.243C64.4867 261.243 65.6686 261.009 66.0137 260.975C66.3589 260.94 66.3798 260.842 66.3798 260.842C65.6309 260.718 64.8622 260.803 64.159 261.09C64.159 261.09 62.5065 260.458 62.5344 260.343Z" fill="#6062C3"/>
<path opacity="0.1" d="M69.0678 269.848C72.7762 269.848 75.7824 269.339 75.7824 268.71C75.7824 268.082 72.7762 267.573 69.0678 267.573C65.3594 267.573 62.3531 268.082 62.3531 268.71C62.3531 269.339 65.3594 269.848 69.0678 269.848Z" fill="#6062C3"/>
<path d="M295.913 266.739C295.913 266.739 307.366 266.041 306.023 274.067C306.092 274.475 306.031 274.894 305.848 275.265C305.665 275.635 305.37 275.939 305.005 276.133C305.005 276.133 304.985 275.536 303.831 275.738C303.42 275.808 303.002 275.828 302.586 275.798C302.024 275.761 301.49 275.541 301.066 275.17C301.066 275.17 297.844 273.84 296.593 268.571C296.593 268.571 295.666 267.423 295.704 267.13L297.635 267.953C297.635 267.953 296.976 269.349 297.496 270.511C297.496 270.511 297.559 268.006 297.928 268.068C298.005 268.068 298.932 268.55 298.932 268.55C298.932 268.55 297.796 270.993 298.653 272.737C298.653 272.737 298.329 269.743 299.288 268.718L300.648 269.51C300.648 269.51 299.319 272.022 300.222 274.07C300.222 274.07 299.989 270.93 300.919 269.705L302.154 270.668C302.154 270.668 300.905 273.142 301.666 274.856C301.666 274.856 301.767 271.199 302.422 270.919C302.422 270.919 303.499 271.872 303.663 272.263C303.663 272.263 302.809 274.06 303.339 275.009C303.339 275.009 303.663 272.567 303.932 272.567C303.932 272.567 305.005 274.182 305.117 275.288C305.065 274.266 304.747 273.274 304.193 272.413C304.813 272.53 305.385 272.826 305.839 273.264C305.839 273.264 305.671 272.123 303.925 272.022C303.925 272.022 303.039 270.797 302.802 270.724C302.802 270.724 304.545 270.577 305.591 271.045C305.591 271.045 304.664 269.97 302.485 270.459L301.268 269.464C301.268 269.464 303.552 269.15 304.521 269.496C304.521 269.496 303.405 268.543 300.94 269.237L299.616 268.445C299.616 268.445 301.561 268.027 302.722 268.177C302.722 268.177 301.498 267.517 299.236 268.232L298.287 267.807C298.287 267.807 299.713 267.524 300.132 267.482C300.55 267.44 300.571 267.322 300.571 267.322C299.668 267.171 298.741 267.274 297.893 267.618C297.893 267.618 295.878 266.872 295.913 266.739Z" fill="#6062C3"/>
<path opacity="0.1" d="M303.799 278.219C308.276 278.219 311.905 277.605 311.905 276.848C311.905 276.091 308.276 275.477 303.799 275.477C299.322 275.477 295.693 276.091 295.693 276.848C295.693 277.605 299.322 278.219 303.799 278.219Z" fill="#6062C3"/>
<path d="M284.502 182.023C284.283 180.794 284.156 179.55 284.122 178.303C284.122 176.806 282.09 175.48 282.09 175.48C282.09 175.48 280.835 172.573 279.998 172.144C279.161 171.714 276.578 167.911 276.578 167.911C276.548 167.16 276.275 166.44 275.8 165.859C275.026 164.841 274.319 163.773 273.684 162.662C273.335 162.237 273.51 161.937 272.987 159.456C272.959 159.326 272.928 159.201 272.889 159.082C272.889 159.026 272.854 158.977 272.833 158.922C273.388 158.364 273.775 157.662 273.95 156.895C274.124 156.128 274.079 155.327 273.82 154.584C273.726 154.289 273.555 154.024 273.325 153.816C272.736 153.335 271.795 153.534 271.188 153.077L271.833 150.222C271.986 149.524 272.066 148.641 271.456 148.265C271.227 148.156 270.986 148.075 270.738 148.024C269.692 147.675 269.086 146.569 268.814 145.504C268.552 144.479 268.481 143.415 268.605 142.364C268.723 141.352 269.019 140.368 269.127 139.352C269.324 137.474 268.873 135.585 267.848 133.999C267.45 133.315 266.862 132.76 266.157 132.401C265.512 132.111 264.763 132.052 264.159 131.703C262.863 130.876 262.929 128.911 261.893 127.784C260.858 126.657 259.024 126.661 257.515 127.048C256.005 127.435 254.502 128.095 252.954 127.931C251.957 127.819 251.023 127.366 250.022 127.261C249.736 127.234 249.447 127.247 249.165 127.299V127.268C248.426 127.4 247.746 127.812 247.571 128.514C247.532 128.68 247.516 128.852 247.523 129.023C247.523 129.431 247.62 129.857 247.627 130.248C247.64 130.403 247.622 130.559 247.573 130.707C247.525 130.856 247.447 130.992 247.345 131.11C247.146 131.323 246.853 131.434 246.648 131.654C246.564 131.738 246.498 131.839 246.454 131.949C246.41 132.059 246.39 132.178 246.393 132.296C246.393 132.917 247.167 133.465 247.687 133.717H247.707C247.568 133.856 247.429 134.003 247.3 134.153C245.81 135.836 244.989 138.007 244.992 140.256C245.004 142.072 245.547 143.845 246.553 145.356C247.559 146.868 248.984 148.052 250.653 148.764L250.58 148.99C250.433 149.439 250.262 149.879 250.068 150.309C249.707 150.188 249.324 150.147 248.946 150.189C248.568 150.231 248.203 150.356 247.878 150.554C246.881 151.252 244.932 151.196 244.413 151.067C243.893 150.938 238.486 150.254 238.05 150.425C237.615 150.596 236.753 149.828 236.192 150.854C235.631 151.88 235.369 152.435 234.798 152.693C234.226 152.951 233.239 153.761 233.372 153.932C233.504 154.103 231.942 155.128 231.942 155.128C231.942 155.128 230.6 156.524 229.823 156.709C229.045 156.894 227.4 157.952 227.4 157.952L225.493 159.445C225.493 159.445 224.067 159.661 224.499 158.677C224.931 157.693 223.718 156.455 223.718 156.455C223.718 156.455 221.295 151.538 221.295 150.522C221.295 149.507 219.304 145.176 219.304 145.176L219.06 145.152L218.949 144.834C218.583 143.805 218.108 142.542 217.746 141.802C217.049 140.389 216.62 140.242 216.62 140.242C216.62 140.242 208.225 133.933 202.772 135.856C197.319 137.778 212.726 143.508 214.11 144.108C214.594 144.318 214.943 144.995 215.187 145.787C213.959 146.38 212.925 147.311 212.206 148.47C212.206 148.47 215.539 155.865 215.626 157.704C215.713 159.543 217.92 164.683 217.92 164.683C217.92 164.683 218.743 168.49 223.199 168.274C223.199 168.274 229.345 169.404 230.687 168.274C232.029 167.143 233.239 166.257 233.891 166.128C234.371 165.97 234.792 165.672 235.101 165.273C235.101 165.273 233.068 178.097 232.071 179.21C231.074 180.323 222.264 194.721 225.426 197.296C227.931 199.237 230.577 200.987 233.344 202.531C233.612 202.663 234.418 201.32 235.568 200.367C235.568 200.608 235.568 200.852 235.568 201.111C235.589 206.233 236.265 214.022 237.2 215.767C238.594 218.332 238.022 223.29 238.022 223.29C238.756 223.636 239.552 223.827 240.362 223.852C240.404 224.02 240.452 224.201 240.498 224.375C241.261 227.261 242.499 231.724 243.13 232.911C244.082 234.708 244.772 240.396 244.772 240.396C244.772 240.396 245.337 245.979 245.121 246.765C245.037 247.061 245.403 249.385 245.978 252.348C245.63 256.357 244.967 264.087 244.856 266.882C244.856 266.934 244.856 266.987 244.856 267.035V267.084C244.857 267.116 244.857 267.147 244.856 267.178C244.856 267.241 244.856 267.297 244.856 267.349C244.845 267.525 244.852 267.702 244.877 267.876C244.92 268.143 244.899 268.415 244.817 268.672C244.571 269.445 244.257 270.194 243.879 270.912C243.721 271.265 243.581 271.626 243.461 271.994C243.112 272.148 242.687 272.521 242.45 273.432C242.018 275.1 241.369 279.713 241.369 279.713C241.369 279.713 241.108 282.536 240.592 283.178C240.076 283.82 239.546 287.837 243.231 288.35C246.916 288.863 248.509 286.396 248.509 286.396L248.38 275.201V275.18C248.455 275.086 248.519 274.984 248.572 274.876V274.849C248.596 274.796 248.624 274.74 248.649 274.678L248.68 274.594L248.736 274.458C248.734 274.441 248.734 274.425 248.736 274.409C249.094 273.337 249.201 272.197 249.05 271.076V271.021V270.933C249.05 270.905 249.05 270.874 249.05 270.846V270.672C249.05 270.651 249.05 270.626 249.05 270.605C249.05 270.531 249.057 270.454 249.071 270.375C249.071 270.375 249.071 270.347 249.071 270.333L249.092 270.197V270.138C249.092 270.092 249.092 270.047 249.119 269.998C249.118 269.986 249.118 269.975 249.119 269.963C249.154 269.803 249.196 269.614 249.241 269.461V269.422L249.294 269.255C249.346 269.077 249.405 268.906 249.468 268.717V268.682C249.468 268.627 249.506 268.571 249.527 268.518V268.498C249.59 268.327 249.656 268.149 249.719 268.002L249.736 267.957L249.792 267.817L249.81 267.775L249.942 267.465L250.964 270.623C250.964 270.623 251.528 272.975 251.225 273.53C250.922 274.084 251.574 276.394 252.003 276.436L251.602 279.343C251.385 280.946 251.256 282.559 251.215 284.176C251.187 284.361 251.159 284.525 251.138 284.637C250.859 286.127 251.528 288.437 251.528 288.437C254.945 292.481 259.017 288.751 259.017 288.751C259.017 288.751 259.491 286.612 259.017 286.186C258.543 285.76 258.756 284.218 258.756 284.218C258.756 284.218 258.972 280.411 259.014 277.633C259.055 274.856 256.744 272.399 256.744 272.399L256.615 272.514C256.193 271.425 255.712 270.155 255.813 269.586C255.987 268.602 255.336 258.214 255.336 258.214C255.576 255.429 255.628 252.631 255.489 249.839C255.545 249.368 255.597 248.904 255.649 248.443C255.911 246.21 256.123 244.301 256.207 243.299V243.181C256.228 242.912 256.239 242.72 256.235 242.629C256.235 242.28 256.235 241.883 256.27 241.446C256.35 240.246 256.538 238.91 256.538 238.91L257.445 233.393C257.445 233.393 258.142 230.699 259.136 229.205L259.254 229.017C259.293 228.95 259.331 228.877 259.373 228.8L259.39 228.769C259.429 228.696 259.47 228.619 259.509 228.539L259.526 228.507C259.666 228.231 259.815 227.914 259.972 227.565C259.972 227.537 259.997 227.513 260.007 227.485L260.126 227.219C260.126 227.185 260.154 227.15 260.171 227.115C260.189 227.08 260.244 226.937 260.283 226.85C260.3 226.814 260.315 226.778 260.328 226.741C260.373 226.637 260.422 226.529 260.467 226.417L260.534 226.256C260.565 226.176 260.6 226.096 260.635 226.016L260.718 225.803C260.743 225.75 260.764 225.698 260.785 225.646L260.879 225.405C260.879 225.37 260.91 225.332 260.924 225.297C261.172 224.679 261.409 224.068 261.621 223.514C261.688 223.339 261.754 223.165 261.813 223.011C264.03 223.147 265.537 223.269 265.537 223.269C265.537 223.269 266.234 218.269 266.011 214.978C265.864 212.731 266.283 209.904 266.558 208.348C266.589 208.177 266.617 208.023 266.645 207.884L266.704 207.933C267.789 208.788 268.566 205.965 268.566 205.965C268.566 205.965 268.273 203.33 267.869 200.137L267.827 199.819C268.452 199.953 269.084 200.049 269.72 200.109C269.72 200.109 270.069 200.078 270.546 200.018C271.868 200.784 273.262 201.415 274.709 201.903L277.014 197.645C277.447 196.763 277.954 195.919 278.53 195.122C279.227 194.267 281.689 191.532 281.647 191.019C281.605 190.506 282.47 187.554 283.334 186.228C284.199 184.901 284.544 182.235 284.502 182.023ZM274.894 185.271C273.984 185.655 273.119 187.794 273.077 188.436C273.036 189.078 272.08 191.898 271.087 192.24C270.17 192.554 268.42 194.166 268.141 194.425C267.855 194.449 267.531 194.487 267.193 194.543C266.813 191.846 266.436 189.612 266.195 189.162C265.498 187.878 266.959 183.774 266.959 183.774C266.959 183.774 267.102 179.629 268.005 178.645C268.908 177.661 268.702 175.18 268.702 175.18C268.702 175.18 268.918 174.154 269.005 173.686C269.093 173.218 270.292 173.686 270.302 173.686C270.302 173.686 272.638 174.967 272.987 176.889C273.335 178.812 275.887 182.148 275.887 182.148C275.887 182.148 275.497 183.303 275.887 183.893C276.278 184.483 275.804 184.888 274.894 185.271Z" fill="url(#paint0_linear)"/>
<path d="M212.304 148.732C213.014 147.559 214.055 146.622 215.295 146.037C216.535 145.452 217.92 145.246 219.276 145.445V150.439H216.247L213.876 149.839L212.304 148.732Z" fill="#4C4981"/>
<path opacity="0.1" d="M212.304 148.732C213.014 147.559 214.055 146.622 215.295 146.037C216.535 145.452 217.92 145.246 219.276 145.445V150.439H216.247L213.876 149.839L212.304 148.732Z" fill="black"/>
<path d="M219.503 146.768L215.79 149.371C215.79 149.371 215.759 148.851 215.665 148.139C215.48 146.792 215.065 144.772 214.169 144.381C212.806 143.781 197.63 138.065 203.013 136.142C208.396 134.219 216.655 140.522 216.655 140.522C216.655 140.522 217.08 140.668 217.76 142.075C218.109 142.814 218.586 144.074 218.945 145.103C219.276 146.032 219.503 146.768 219.503 146.768Z" fill="#AE6E79"/>
<path d="M249.165 150.778L249.587 150.579L250.772 151.933L249.803 154.002L248.15 153.339L248.534 151.685L249.165 150.778Z" fill="#4C4981"/>
<path d="M243.548 271.973C243.548 271.973 242.482 271.848 242.056 273.512C241.631 275.177 240.989 279.793 240.989 279.793C240.989 279.793 240.735 282.61 240.222 283.252C239.71 283.894 239.201 287.903 242.823 288.413C246.445 288.922 248.025 286.462 248.025 286.462L247.896 275.271L243.548 271.973Z" fill="#444053"/>
<path d="M256.19 272.476C256.19 272.476 258.47 274.918 258.428 277.689C258.386 280.46 258.17 284.26 258.17 284.26C258.17 284.26 257.961 285.799 258.428 286.224C258.895 286.65 258.428 288.786 258.428 288.786C258.428 288.786 254.419 292.509 251.051 288.472C251.051 288.472 250.395 286.165 250.667 284.679C250.939 283.192 251.699 276.51 251.699 276.51L256.19 272.476Z" fill="#444053"/>
<path d="M261.838 221.448C261.838 221.448 259.537 227.889 258.554 229.383C257.57 230.876 256.894 233.57 256.894 233.57L255.998 239.073C255.823 240.304 255.723 241.544 255.698 242.786C255.74 244.025 253.481 262.073 253.481 262.073L249.9 266.641C249.9 266.641 248.325 269.841 248.579 271.177C248.834 272.514 248.408 274.636 247.882 275.274C247.882 275.274 247.798 279.462 247.669 280.393C247.54 281.325 248.14 283.981 247.669 284.448C247.199 284.916 240.934 284.707 240.763 283.935C240.592 283.164 241.53 279.455 241.53 279.455L242.084 275.871C242.084 275.871 243.193 273.91 242.938 273.268C242.684 272.626 243.405 271.136 243.447 271.006C243.489 270.877 244.643 268.787 244.43 267.978C244.218 267.168 245.773 249.95 245.773 249.95L250.162 219.099L261.838 221.448Z" fill="#AE6E79"/>
<path opacity="0.1" d="M261.838 221.448C261.838 221.448 261.489 222.418 261.011 223.692C260.251 225.702 259.157 228.469 258.554 229.383C257.574 230.877 256.891 233.571 256.891 233.571L255.995 239.077C255.821 240.308 255.722 241.548 255.698 242.79C255.698 243.279 255.371 246.395 254.952 249.986C254.307 255.475 253.481 262.077 253.481 262.077L249.9 266.645C249.9 266.645 249.719 266.994 249.493 267.545C249.043 268.592 248.408 270.291 248.579 271.167C248.834 272.49 248.408 274.622 247.882 275.264C247.882 275.264 247.795 279.452 247.669 280.383C247.544 281.315 248.14 283.967 247.669 284.438C247.199 284.909 240.934 284.696 240.763 283.929C240.592 283.161 241.53 279.448 241.53 279.448L242.084 275.861C242.084 275.861 243.193 273.9 242.935 273.258C242.677 272.616 243.405 271.125 243.447 270.996C243.489 270.867 244.643 268.777 244.43 267.967C244.267 267.35 245.128 257.24 245.529 252.446C245.665 250.938 245.752 249.958 245.752 249.958L249.527 223.416L249.834 221.277L250.141 219.106L261.838 221.448Z" fill="black"/>
<path d="M258.003 285.624C258.041 286.095 251.989 286.779 251.124 286.266C250.259 285.753 251.124 279.395 251.124 279.395L251.518 276.496C251.096 276.45 250.455 274.147 250.751 273.592C251.047 273.037 250.497 270.692 250.497 270.692L249.493 267.552L248.879 265.629C247.882 263.427 246.438 257.146 245.543 252.456C244.978 249.511 244.619 247.19 244.699 246.894C244.911 246.126 244.35 240.536 244.35 240.536C244.35 240.536 243.653 234.858 242.733 233.068C242.108 231.881 240.892 227.425 240.139 224.55C239.755 223.074 239.49 222.013 239.49 222.013C239.49 222.013 245.933 221.472 249.841 221.284C251.637 221.196 252.899 221.186 252.752 221.332C252.606 221.479 252.567 222.261 252.574 223.391C252.592 226.319 253 231.47 253.432 232.855C254.028 234.774 254.624 240.532 254.37 241.09C254.115 241.649 254.199 245.358 254.199 245.358C254.638 246.865 254.891 248.42 254.952 249.989C255.088 252.768 255.04 255.553 254.806 258.325C254.806 258.325 255.444 268.696 255.273 269.677C255.102 270.657 256.636 273.732 256.636 274.328C256.636 274.925 257.061 278.98 257.061 278.98C257.061 278.98 257.975 285.157 258.003 285.624Z" fill="#AE6E79"/>
<path d="M261.367 160.977L260.635 161.769L260.157 162.285L257.368 165.286L250.162 166.099L246.327 165.074L245.379 164.819C245.379 164.819 245.379 162.893 245.549 160.582C245.794 157.62 246.376 154.022 247.767 153.042C248.463 152.496 249.019 151.791 249.388 150.986C249.666 150.431 249.899 149.855 250.085 149.262C250.113 149.186 250.134 149.112 250.158 149.036C250.472 148.001 250.698 146.943 250.835 145.87C250.835 145.87 251.755 145.361 253.035 144.768C256.371 143.208 262.134 141.055 260.129 145.87C259.835 146.576 259.583 147.298 259.376 148.034C259.345 148.142 259.317 148.25 259.293 148.355C258.623 151.035 259.066 152.661 259.565 153.558C259.649 153.713 259.746 153.862 259.854 154.001C259.99 154.188 260.153 154.354 260.339 154.493L261.168 159.766L261.238 160.202L261.367 160.977Z" fill="#AE6E79"/>
<path opacity="0.1" d="M260.133 146.129C259.753 147.043 260.318 145.382 260.133 146.129C258.613 147.211 255.032 150.292 253.021 150.292C251.661 150.292 251.253 150.044 250.089 149.517C250.441 148.413 250.692 147.279 250.838 146.129C250.838 146.129 262.904 139.471 260.133 146.129Z" fill="black"/>
<path d="M263.204 140.521C263.202 142.82 262.351 145.036 260.815 146.744C259.279 148.451 257.166 149.53 254.882 149.772C254.562 149.804 254.237 149.825 253.91 149.825C252.071 149.825 250.274 149.279 248.746 148.257C247.217 147.234 246.026 145.782 245.323 144.082C244.619 142.382 244.435 140.511 244.794 138.706C245.152 136.902 246.038 135.244 247.337 133.943C248.637 132.642 250.293 131.756 252.096 131.397C253.899 131.038 255.768 131.222 257.467 131.926C259.165 132.631 260.617 133.823 261.638 135.353C262.659 136.883 263.204 138.681 263.204 140.521Z" fill="#AE6E79"/>
<path opacity="0.1" d="M264.526 181.761L263.201 185.219C263.201 185.219 262.124 185.265 260.443 185.317C254.771 185.498 242.272 185.729 241.715 184.27C241.589 183.9 241.524 183.513 241.519 183.122C241.446 180.899 242.482 177.486 242.482 177.486C242.482 177.486 243.078 170.657 243.078 170.361C243.078 170.064 242.565 165.28 242.565 165.28L243.59 161.441L246.445 159.435C246.445 159.435 247.725 161.4 248.492 161.567C249.259 161.735 250.284 162.68 250.284 162.68C250.284 162.68 252.798 164.216 253.61 163.361C254.422 162.506 260.729 158.751 260.729 158.751L264.055 162.422L264.526 181.761Z" fill="black"/>
<path d="M264.526 182.291L263.201 185.746C263.201 185.746 262.123 185.795 260.443 185.847H260.279C259.554 185.872 258.724 185.896 257.839 185.914C253.331 186.018 247.122 186.046 243.876 185.565C242.656 185.39 241.857 185.139 241.725 184.797C241.651 184.591 241.6 184.378 241.572 184.162C241.551 184.001 241.537 183.813 241.53 183.649C241.456 181.426 242.492 178.013 242.492 178.013C242.492 178.013 243.088 171.184 243.088 170.888C243.088 170.591 242.576 165.807 242.576 165.807L243.601 161.968L245.563 160.593L246.456 159.965C246.756 160.415 247.083 160.846 247.436 161.256C247.711 161.626 248.079 161.916 248.502 162.097C249.273 162.268 250.294 163.211 250.294 163.211C250.294 163.211 252.808 164.746 253.62 163.891C254.237 163.238 258.072 160.89 259.843 159.819C260.387 159.487 260.739 159.281 260.739 159.281L261.186 159.777L264.065 162.952L264.526 182.291Z" fill="white"/>
<path opacity="0.1" d="M219.503 146.768L215.79 149.371C215.79 149.371 215.759 148.851 215.665 148.139C217.498 147.365 218.614 145.651 218.935 145.104C219.276 146.032 219.503 146.768 219.503 146.768Z" fill="black"/>
<path d="M232.549 155.603L231.74 155.387C231.74 155.387 230.415 156.783 229.648 156.968C228.881 157.153 227.264 158.203 227.264 158.203L225.384 159.697C225.384 159.697 223.99 159.913 224.405 158.929C224.82 157.945 223.638 156.71 223.638 156.71C223.638 156.71 221.25 151.803 221.25 150.777C221.25 149.751 219.276 145.445 219.276 145.445C219.276 145.445 216.801 150.268 212.283 148.732C212.283 148.732 215.567 156.113 215.651 157.948C215.734 159.784 217.91 164.903 217.91 164.903C217.91 164.903 218.722 168.703 223.111 168.49C223.111 168.49 229.167 169.618 230.488 168.49C231.81 167.363 233.002 166.477 233.626 166.348C234.25 166.219 234.818 165.496 234.818 165.496V160.423L232.549 155.603Z" fill="#4C4981"/>
<path opacity="0.1" d="M224.959 160.422C224.959 160.422 226.026 164.393 225.343 164.819L224.959 160.422Z" fill="black"/>
<path opacity="0.1" d="M260.443 185.83C254.771 186.011 242.272 186.238 241.715 184.783C241.589 184.413 241.524 184.025 241.519 183.635L260.049 184.612L260.443 185.83Z" fill="black"/>
<path opacity="0.1" d="M261.838 221.448C261.838 221.448 261.489 222.418 261.011 223.691C258.658 223.548 255.541 223.398 252.581 223.377C251.536 223.377 250.511 223.377 249.541 223.412C247.484 223.475 245.706 223.643 244.573 223.964C243.141 224.405 241.643 224.599 240.146 224.536C239.762 223.06 239.497 221.999 239.497 221.999C239.497 221.999 245.94 221.458 249.848 221.27L250.155 219.099L261.838 221.448Z" fill="black"/>
<path d="M266.827 205.829L266.101 207.364C266.101 207.364 266 207.821 265.871 208.547C265.599 210.11 265.174 212.93 265.334 215.177C265.547 218.464 264.864 223.454 264.864 223.454C264.864 223.454 249.175 222.132 244.573 223.454C239.971 224.777 237.705 223.454 237.705 223.454C237.705 223.454 238.263 218.506 236.896 215.945C235.966 214.2 235.31 206.411 235.289 201.289C235.289 198.926 235.408 197.136 235.704 196.773C236.642 195.622 240.648 184.099 240.648 184.099L241.561 184.148L244.002 184.277L257.877 185.01L260.056 185.125L260.286 185.823L266.827 205.829Z" fill="#444053"/>
<path d="M273.733 200.706L273.862 202.074C273.862 202.074 266.99 199.833 267.339 197.08C267.688 194.327 267.339 194.637 267.339 194.637L272.861 195.105L273.733 200.706Z" fill="#4C4981"/>
<path opacity="0.1" d="M273.733 200.706L273.862 202.074C273.862 202.074 266.99 199.833 267.339 197.08C267.688 194.327 267.339 194.637 267.339 194.637L272.861 195.105L273.733 200.706Z" fill="black"/>
<path opacity="0.1" d="M229.544 161.525C230.245 162.121 231.072 162.552 231.963 162.784C231.705 162.728 231.465 162.608 231.266 162.436C230.774 162.087 230.307 161.706 229.833 161.336C229.45 161.036 228.972 160.537 228.501 160.415C228.809 160.82 229.159 161.192 229.544 161.525Z" fill="black"/>
<path opacity="0.1" d="M229.648 163.322C229.869 163.572 230.048 163.856 230.178 164.163C230.398 165.032 230.385 165.943 230.14 166.805L229.038 164.146C228.846 163.692 228.655 163.238 228.425 162.806C228.324 162.621 227.689 161.85 227.762 161.689C227.957 161.235 229.443 163.067 229.648 163.322Z" fill="black"/>
<path opacity="0.1" d="M260.387 178.048C261.138 177.957 261.841 177.628 262.392 177.109C261.259 177.252 260.185 177.699 259.069 177.933C258.034 178.174 256.948 178.073 255.974 177.647C257.257 178.275 259.021 178.296 260.387 178.048Z" fill="black"/>
<path opacity="0.1" d="M257.183 170.235C256.98 170.265 256.773 170.214 256.608 170.092C255.757 169.604 254.918 169.094 254.091 168.564C253.286 168.044 252.313 167.517 251.626 166.861C253.317 168.389 254.893 169.68 257.183 170.235Z" fill="black"/>
<path opacity="0.1" d="M259.547 179.287C259.994 179.307 260.441 179.271 260.879 179.179C261.322 179.087 261.713 178.83 261.974 178.46C261.815 178.423 261.649 178.45 261.51 178.533C260.159 179.102 258.676 179.28 257.229 179.046C257.922 179.343 258.811 179.283 259.547 179.287Z" fill="black"/>
<path opacity="0.1" d="M251.473 199.101C250.585 199.369 249.673 199.548 248.75 199.635C248.032 199.668 247.312 199.654 246.595 199.593L243.109 199.373L241.366 199.261C241.16 199.261 240.32 199.261 240.735 198.846C240.944 198.644 242.108 198.773 242.408 198.762C242.987 198.744 243.568 198.733 244.151 198.731C245.305 198.731 246.463 198.731 247.617 198.801C248.91 198.864 250.183 198.961 251.473 199.101Z" fill="black"/>
<path opacity="0.1" d="M247.432 200.828C246.839 200.804 246.076 201.156 245.466 201.233C244.783 201.313 244.096 201.34 243.409 201.313C242.05 201.28 240.708 201.006 239.445 200.503C242.105 200.64 244.772 200.72 247.432 200.828Z" fill="black"/>
<path opacity="0.1" d="M239.964 202.657C240.222 202.709 240.476 202.779 240.724 202.866C242.196 203.285 243.761 202.915 245.257 202.545C244.884 203.107 244.211 203.348 243.538 203.501C242.443 203.779 241.303 203.82 240.191 203.623C239.842 203.553 238.967 203.428 238.796 203.065C238.511 202.531 239.637 202.604 239.964 202.657Z" fill="black"/>
<path opacity="0.1" d="M248.213 205.41C248.654 205.5 249.09 205.617 249.517 205.759C251.173 206.171 252.892 205.605 254.555 205.225C256.554 204.77 258.604 204.58 260.652 204.66C260.286 204.66 259.704 204.981 259.345 205.089C258.874 205.232 258.397 205.364 257.919 205.483C256.981 205.713 256.029 205.902 255.071 206.038C253.135 206.318 251.177 206.403 249.224 206.293C248.332 206.244 246.784 206.335 246.02 205.884C246.68 205.492 247.45 205.325 248.213 205.41Z" fill="black"/>
<path opacity="0.1" d="M248.837 152.78C248.837 152.78 248.921 156.71 248.283 158.503C248.081 159.062 247.767 160.091 247.425 161.246C247.052 162.527 246.644 163.961 246.33 165.085C246.017 166.208 245.807 166.962 245.807 166.962C245.807 166.962 244.368 178.701 243.995 184.295C243.995 184.392 243.995 184.494 243.974 184.588C243.953 184.902 243.918 185.23 243.866 185.568C243.036 191.124 238.249 199.691 236.642 200.375C236.141 200.605 235.683 200.92 235.289 201.306C235.289 198.944 235.408 197.154 235.704 196.791C236.642 195.639 240.648 184.117 240.648 184.117L241.561 184.166C241.54 184.005 241.526 183.817 241.519 183.653C241.446 181.43 242.481 178.017 242.481 178.017C242.481 178.017 243.078 171.188 243.078 170.891C243.078 170.595 242.565 165.811 242.565 165.811L243.59 161.972L245.553 160.597C245.797 157.634 246.379 154.037 247.77 153.056C248.467 152.51 249.023 151.806 249.391 151.001C249.667 151.039 249.165 150.795 249.165 150.795L248.837 152.78Z" fill="black"/>
<path d="M249.587 150.579C249.231 150.457 248.853 150.416 248.48 150.458C248.107 150.5 247.748 150.625 247.429 150.823C246.445 151.521 244.528 151.461 244.015 151.336C243.503 151.21 238.176 150.523 237.74 150.694C237.304 150.865 236.461 150.097 235.906 151.123C235.352 152.149 235.097 152.7 234.543 152.955C233.989 153.21 233.006 154.023 233.149 154.194C233.291 154.365 231.754 155.387 231.754 155.387L234.864 165.507C234.864 165.507 232.859 178.307 231.88 179.416C230.9 180.526 222.201 194.907 225.315 197.468C227.779 199.408 230.388 201.158 233.117 202.702C233.466 202.873 234.693 200.57 236.398 199.844C238.103 199.118 243.391 189.515 243.719 184.054C244.047 178.593 245.553 166.432 245.553 166.432C245.553 166.432 247.387 159.774 248.025 157.98C248.663 156.186 248.579 152.257 248.579 152.257L249.587 150.579Z" fill="#4C4981"/>
<path opacity="0.1" d="M266.827 205.829L266.101 207.364C266.101 207.364 266 207.821 265.871 208.547C265.742 208.531 265.621 208.476 265.523 208.39C264.456 207.535 258.201 201.093 257.891 195.374C257.671 191.155 257.776 187.519 257.846 185.9C257.867 185.39 257.888 185.083 257.888 185.017C257.888 185.017 262.748 179.127 262.193 177.04C261.639 174.953 260.359 163.78 260.359 163.78L260.171 162.314L259.847 159.836L259.073 153.841L259.875 154.03C260.011 154.217 260.174 154.383 260.359 154.522L261.189 159.795L264.069 162.97L264.54 182.302L263.215 185.757C263.215 185.757 262.137 185.806 260.457 185.858H260.293L266.827 205.829Z" fill="black"/>
<path d="M269.511 173.917C269.511 173.917 268.319 173.446 268.235 173.917C268.151 174.388 267.935 175.407 267.935 175.407C267.935 175.407 268.148 177.884 267.238 178.865C266.328 179.845 266.192 183.984 266.192 183.984C266.192 183.984 264.756 188.081 265.435 189.361C265.683 189.826 266.066 192.153 266.45 194.945C266.694 196.69 266.935 198.605 267.147 200.357C267.534 203.54 267.824 206.174 267.824 206.174C267.824 206.174 267.053 208.99 265.986 208.135C264.919 207.28 258.665 200.839 258.358 195.119C258.149 191.103 258.233 187.613 258.302 185.893C258.33 185.164 258.358 184.752 258.358 184.752C258.358 184.752 263.218 178.861 262.664 176.771C262.11 174.681 260.83 163.511 260.83 163.511L260.607 161.783L260.366 159.927L260.311 159.519L259.54 153.586C259.676 153.618 264.459 154.7 265.09 155.331C265.721 155.963 269.623 156.867 269.623 156.867C270.211 157.026 270.746 157.341 271.171 157.778C271.597 158.215 271.898 158.758 272.042 159.351C272.08 159.47 272.108 159.595 272.136 159.725C272.649 162.202 272.485 162.499 272.833 162.928C273.182 163.357 269.511 173.917 269.511 173.917Z" fill="#4C4981"/>
<path opacity="0.1" d="M267.175 200.353C265.432 200.004 262.845 199.198 262.904 197.419C262.957 195.754 264.958 195.154 266.474 194.941C266.718 196.679 266.959 198.601 267.175 200.353Z" fill="black"/>
<path d="M272.582 199.467C272.513 199.617 272.234 199.746 271.836 199.862C270.904 200.084 269.957 200.239 269.002 200.326C269.002 200.326 263.075 199.855 263.159 197.164C263.222 195.234 265.899 194.721 267.402 194.606C267.734 194.575 268.068 194.561 268.402 194.564C268.402 194.564 272.837 198.916 272.582 199.467Z" fill="#AE6E79"/>
<path opacity="0.1" d="M272.582 199.467C272.513 199.617 272.234 199.746 271.836 199.862C270.292 197.792 268.137 195.137 267.081 194.903L267.402 194.606C267.734 194.575 268.068 194.561 268.402 194.564C268.402 194.564 272.837 198.916 272.582 199.467Z" fill="black"/>
<path d="M271.09 162.642L272.834 162.9C273.463 164.009 274.161 165.078 274.925 166.1C275.394 166.683 275.663 167.401 275.692 168.148C275.692 168.148 278.251 171.945 279.06 172.371C279.869 172.796 281.107 175.7 281.107 175.7C281.107 175.7 283.111 177.022 283.111 178.516C283.147 179.761 283.275 181.002 283.495 182.229C283.54 182.441 283.198 185.09 282.344 186.416C281.49 187.742 280.636 190.666 280.681 191.19C280.727 191.713 278.293 194.435 277.613 195.286C277.046 196.083 276.547 196.926 276.121 197.806L273.862 202.074C273.862 202.074 269.086 195.032 267.339 194.648C267.339 194.648 269.298 192.771 270.278 192.429C271.258 192.087 272.199 189.288 272.241 188.632C272.283 187.976 273.137 185.858 274.029 185.491C274.922 185.125 275.396 184.724 275.012 184.123C274.629 183.523 275.012 182.379 275.012 182.379C275.012 182.379 272.495 179.05 272.154 177.144C271.812 175.239 269.511 173.944 269.511 173.944L268.19 170.699L271.09 162.642Z" fill="#4C4981"/>
<path opacity="0.1" d="M277.432 178.571C278.397 177.756 279.611 177.295 280.873 177.266C280.064 177.406 279.213 177.584 278.621 178.149C278.388 178.394 278.179 178.66 277.997 178.945C277.795 179.234 276.149 181.328 275.905 180.996C275.497 180.511 277.101 178.854 277.432 178.571Z" fill="black"/>
<path opacity="0.1" d="M273.569 176.551C273.83 176.528 274.08 176.437 274.294 176.285C274.508 176.134 274.678 175.928 274.786 175.689C274.994 175.208 275.122 174.697 275.166 174.175C275.291 173.301 275.466 172.435 275.692 171.582C275.76 171.413 275.789 171.231 275.776 171.05C275.763 170.869 275.71 170.692 275.619 170.535C275.526 170.262 275.399 170.002 275.243 169.76C274.929 170.109 274.838 170.922 274.709 171.39C274.549 171.969 274.402 172.552 274.263 173.135C274.19 173.414 273.611 176.551 273.569 176.551Z" fill="black"/>
<path opacity="0.1" d="M272.06 159.323C271.888 159.548 271.69 159.752 271.47 159.93C270.773 160.485 269.849 160.953 269.762 161.828C269.786 162.113 269.751 162.399 269.657 162.669C269.434 163.053 268.887 163.018 268.451 162.945C268.083 162.912 267.731 162.782 267.43 162.568C266.973 162.177 266.931 161.479 266.583 160.987C266.371 160.733 266.103 160.532 265.801 160.398C265.499 160.264 265.17 160.202 264.839 160.216C264.187 160.195 263.539 160.342 262.887 160.37C262.468 160.391 262.048 160.363 261.635 160.286C261.499 160.265 261.364 160.237 261.231 160.202C260.94 160.13 260.655 160.034 260.38 159.913C260.238 159.856 260.1 159.791 259.965 159.717C259.529 159.493 259.125 159.211 258.763 158.88C258.125 158.293 257.595 157.484 257.647 156.615C257.678 156.081 257.919 155.589 257.996 155.062C258.257 153.555 257.257 152.131 256.172 151.053C255.74 150.623 255.28 150.208 254.848 149.772C254.174 149.15 253.643 148.391 253.289 147.546C252.998 146.646 252.903 145.694 253.01 144.754C253.108 143.801 253.135 142.842 253.09 141.886C252.77 138.494 249.876 135.894 246.982 134.481L246.853 134.414C247.712 133.428 248.768 132.635 249.954 132.085C251.14 131.535 252.428 131.242 253.735 131.225C255.041 131.208 256.337 131.466 257.537 131.984C258.737 132.502 259.814 133.267 260.698 134.23C261.583 135.193 262.254 136.332 262.669 137.572C263.084 138.813 263.232 140.126 263.105 141.428C262.978 142.73 262.578 143.99 261.931 145.127C261.285 146.263 260.406 147.25 259.352 148.024C259.32 148.132 259.293 148.24 259.268 148.345C258.599 151.025 259.042 152.651 259.54 153.548C259.676 153.579 264.459 154.661 265.09 155.292C265.721 155.924 269.623 156.828 269.623 156.828C270.215 156.986 270.755 157.301 271.184 157.74C271.613 158.179 271.915 158.726 272.06 159.323Z" fill="black"/>
<path d="M246.24 131.955C246.432 131.735 246.721 131.623 246.916 131.41C247.519 130.754 246.916 129.683 247.136 128.818C247.373 127.858 248.551 127.439 249.534 127.54C250.517 127.642 251.438 128.095 252.421 128.207C253.948 128.378 255.426 127.715 256.915 127.328C258.404 126.94 260.203 126.919 261.228 128.06C262.253 129.202 262.183 131.145 263.459 131.972C264.048 132.353 264.791 132.394 265.429 132.67C266.127 133.029 266.706 133.583 267.095 134.265C268.105 135.853 268.55 137.735 268.357 139.607C268.249 140.619 267.956 141.603 267.838 142.615C267.717 143.666 267.788 144.73 268.047 145.756C268.315 146.803 268.897 147.934 269.94 148.269C270.181 148.322 270.415 148.402 270.637 148.509C271.24 148.886 271.16 149.773 271.007 150.463L270.386 153.328C270.982 153.782 271.91 153.587 272.478 154.065C272.706 154.273 272.874 154.538 272.966 154.832C273.246 155.634 273.277 156.501 273.053 157.32C272.83 158.139 272.363 158.87 271.714 159.418C271.017 159.973 270.093 160.44 270.006 161.313C270.033 161.597 269.997 161.884 269.902 162.154C269.682 162.537 269.131 162.502 268.695 162.429C268.329 162.395 267.978 162.265 267.677 162.052C267.217 161.661 267.179 160.964 266.83 160.472C266.618 160.218 266.35 160.017 266.048 159.883C265.746 159.749 265.417 159.687 265.087 159.7C264.431 159.679 263.786 159.826 263.131 159.857C261.619 159.919 260.144 159.386 259.021 158.371C258.379 157.781 257.853 156.975 257.902 156.103C257.933 155.572 258.173 155.077 258.25 154.55C258.508 153.046 257.511 151.618 256.427 150.54C255.343 149.462 254.07 148.467 253.54 147.033C252.878 145.257 253.519 143.275 253.341 141.391C253.021 137.995 250.131 135.399 247.233 133.982C246.588 133.651 245.49 132.81 246.24 131.955Z" fill="#444053"/>
<path opacity="0.1" d="M269.04 161.26C268.58 160.865 268.542 160.171 268.193 159.679C267.981 159.425 267.714 159.223 267.411 159.089C267.109 158.955 266.78 158.892 266.45 158.904C265.795 158.883 265.146 159.03 264.494 159.061C262.977 159.128 261.495 158.592 260.37 157.571C259.728 156.985 259.205 156.175 259.254 155.306C259.286 154.773 259.526 154.277 259.603 153.754C259.864 152.246 258.864 150.819 257.78 149.741C256.695 148.662 255.426 147.668 254.893 146.234C254.234 144.461 254.893 142.479 254.698 140.591C254.373 137.196 251.483 134.599 248.59 133.183C247.913 132.851 246.815 132.01 247.565 131.155C247.753 130.935 248.042 130.824 248.237 130.611C248.841 129.958 248.237 128.883 248.461 128.022C248.503 127.85 248.578 127.688 248.68 127.543C247.952 127.68 247.286 128.091 247.108 128.789C246.895 129.655 247.491 130.726 246.888 131.382C246.693 131.595 246.404 131.707 246.212 131.923C245.462 132.778 246.561 133.622 247.237 133.95C250.134 135.367 253.024 137.967 253.345 141.359C253.523 143.247 252.881 145.229 253.544 147.005C254.074 148.436 255.346 149.447 256.43 150.512C257.515 151.576 258.522 153.014 258.254 154.521C258.107 155.032 257.99 155.55 257.905 156.074C257.856 156.943 258.383 157.753 259.024 158.339C260.147 159.361 261.629 159.896 263.145 159.829C263.8 159.798 264.445 159.654 265.101 159.672C265.431 159.66 265.76 159.723 266.062 159.857C266.364 159.991 266.632 160.193 266.844 160.447C267.193 160.939 267.231 161.637 267.691 162.027C267.992 162.239 268.343 162.368 268.709 162.401C269.145 162.481 269.696 162.509 269.915 162.129C269.994 161.973 270.027 161.799 270.013 161.626C269.662 161.592 269.327 161.465 269.04 161.26Z" fill="black"/>
<path d="M218.29 140.521H194.175V116.737H218.307L218.29 140.521ZM217.941 104.659H194.524C194.524 67.6977 229.624 69.8577 229.624 46.4741C229.624 33.5941 219.092 23.2755 206.224 23.2755C193.356 23.2755 182.827 34.4002 182.827 46.8405H159.427C159.416 40.6864 160.619 34.5907 162.967 28.903C165.315 23.2152 168.762 18.0474 173.11 13.6957C177.457 9.3441 182.62 5.89426 188.303 3.54405C193.985 1.19385 200.075 -0.0105032 206.224 6.90047e-05C232.071 6.90047e-05 253.021 20.6409 253.021 46.4741C253.021 75.7132 217.924 79.0423 217.924 104.659H217.941Z" fill="#6062C3"/>
<path opacity="0.1" d="M98.0148 133.438H91.7952V127.289H98.0148V133.438ZM97.9206 124.19H91.8893C91.8893 114.664 100.936 115.219 100.936 109.185C100.933 108.396 100.775 107.615 100.47 106.887C100.165 106.159 99.7196 105.498 99.1595 104.942C98.5994 104.386 97.9353 103.946 97.2053 103.648C96.4753 103.349 95.6937 103.197 94.905 103.201C93.3122 103.237 91.7956 103.89 90.6736 105.023C89.5516 106.155 88.9115 107.678 88.8876 109.272H82.8562C82.8962 106.104 84.1785 103.078 86.4267 100.848C88.6749 98.6171 91.7088 97.3601 94.8744 97.3477C98.0399 97.3354 101.084 98.5687 103.349 100.782C105.615 102.995 106.92 106.01 106.985 109.178C106.968 116.716 97.9206 117.574 97.9206 124.176V124.19Z" fill="#6062C3"/>
<path opacity="0.1" d="M145.108 176.154H138.889V170.022H145.108V176.154ZM145.018 166.91H138.986C138.986 157.38 148.033 157.938 148.033 151.905C148.03 151.115 147.871 150.334 147.566 149.607C147.262 148.879 146.816 148.218 146.256 147.663C145.696 147.107 145.032 146.668 144.302 146.369C143.572 146.071 142.79 145.919 142.002 145.924C140.402 145.952 138.877 146.603 137.748 147.737C136.619 148.872 135.975 150.401 135.953 152.002H129.922C129.962 148.834 131.244 145.808 133.492 143.578C135.74 141.347 138.774 140.09 141.94 140.078C145.105 140.065 148.149 141.299 150.415 143.512C152.68 145.725 153.986 148.74 154.051 151.908C154.061 159.446 145.018 160.308 145.018 166.91Z" fill="#6062C3"/>
<path opacity="0.1" d="M173.745 100.535H169.237V96.0994H173.745V100.535ZM173.679 93.8312H169.307C169.307 86.9288 175.865 87.3301 175.865 82.9612C175.862 82.3892 175.747 81.8235 175.525 81.2962C175.304 80.7688 174.981 80.2903 174.575 79.8878C174.17 79.4854 173.688 79.1669 173.159 78.9506C172.63 78.7343 172.064 78.6244 171.493 78.6271C170.336 78.6505 169.233 79.1229 168.418 79.9445C167.602 80.7661 167.137 81.8728 167.121 83.0309H162.749C162.74 80.7098 163.652 78.4801 165.285 76.8322C166.919 75.1844 169.139 74.2535 171.458 74.2442C173.777 74.235 176.005 75.1481 177.651 76.7829C179.297 78.4176 180.227 80.64 180.237 82.9612C180.23 88.4223 173.679 89.047 173.679 93.8312Z" fill="#6062C3"/>
<path opacity="0.1" d="M250.737 106.795H248.189V104.282H250.737V106.795ZM250.699 103.008H248.213C248.213 99.1071 251.919 99.334 251.919 96.8633C251.919 96.5402 251.855 96.2203 251.731 95.9221C251.606 95.6239 251.424 95.3533 251.194 95.1262C250.965 94.899 250.692 94.7196 250.393 94.5985C250.094 94.4774 249.774 94.417 249.451 94.4206C248.797 94.4341 248.174 94.701 247.713 95.1651C247.252 95.6292 246.989 96.2543 246.979 96.9087H244.507C244.536 95.6192 245.067 94.3919 245.986 93.4884C246.906 92.5848 248.142 92.0763 249.43 92.0713C250.719 92.0663 251.959 92.5652 252.885 93.4616C253.812 94.358 254.352 95.5811 254.391 96.8703C254.405 99.9376 250.699 100.304 250.699 103.008Z" fill="#6062C3"/>
<path opacity="0.1" d="M289.7 221.068H287.152V218.555H289.7V221.068ZM289.662 217.281H287.19C287.19 213.377 290.9 213.607 290.9 211.136C290.895 210.484 290.632 209.861 290.169 209.403C289.705 208.945 289.079 208.69 288.428 208.694C287.774 208.706 287.15 208.973 286.689 209.437C286.228 209.901 285.965 210.527 285.956 211.182H283.484C283.513 209.892 284.044 208.665 284.963 207.761C285.883 206.858 287.119 206.349 288.407 206.344C289.696 206.339 290.936 206.838 291.862 207.734C292.789 208.631 293.329 209.854 293.368 211.143C293.382 214.225 289.676 214.577 289.676 217.281H289.662Z" fill="#6062C3"/>
</g>
<defs>
<linearGradient id="paint0_linear" x1="243.067" y1="290.349" x2="243.067" y2="126.776" gradientUnits="userSpaceOnUse">
<stop stop-color="#808080" stop-opacity="0.25"/>
<stop offset="0.54" stop-color="#808080" stop-opacity="0.12"/>
<stop offset="1" stop-color="#808080" stop-opacity="0.1"/>
</linearGradient>
<clipPath id="clip0">
<rect width="350" height="292" fill="white"/>
</clipPath>
</defs>
</svg>
