<svg width="309" height="204" viewBox="0 0 309 204" fill="none" xmlns="http://www.w3.org/2000/svg">
<path d="M154.5 204C239.828 204 309 199.299 309 193.5C309 187.701 239.828 183 154.5 183C69.172 183 0 187.701 0 193.5C0 199.299 69.172 204 154.5 204Z" fill="#E6E6E6"/>
<path d="M229.792 1.36391C229.792 1.36391 224.377 -0.616663 220.896 7.30564C217.415 15.2279 212 23.9425 212 23.9425L215.094 24.7347C215.094 24.7347 215.868 19.1891 217.802 18.3969L217.028 25.5269C217.028 25.5269 240.236 33.8454 250.679 24.7347L250.292 21.9619C250.292 21.9619 251.84 22.358 251.84 24.7347L253 23.5464C253 23.5464 251.84 21.1697 248.359 18.0007C246.074 15.9208 245.288 11.9637 245.019 9.48969C244.817 7.42386 244.009 5.46882 242.703 3.88097C240.39 1.13526 236.175 -1.78302 229.792 1.36391Z" fill="#2F2E41"/>
<path d="M198 68.7776L202.889 75L206 71.4443L203.333 67L198 68.7776Z" fill="#FBBEBE"/>
<path d="M195.882 169L194 178.692L198.706 181L202 178.692V169H195.882Z" fill="#FBBEBE"/>
<path d="M228.117 168L230 177.692L225.294 180L222 177.692V168H228.117Z" fill="#FBBEBE"/>
<path d="M208.962 81L202.39 127.392L193 169.608L204.267 171L213.187 131.567L224.454 98.1652L223.045 138.062L220.698 171H229.148L235.251 126.464L242 93.3522L241.824 81H208.962Z" fill="#2F2E41"/>
<path d="M196.852 177.802C196.852 177.802 194.581 174.986 193.218 176.394C191.855 177.802 188.675 183.435 188.675 183.435C188.675 183.435 181.407 187.66 187.313 188.598C193.218 189.537 195.035 188.598 195.035 188.129C195.035 187.66 195.943 186.251 195.943 186.251L198.215 186.721L201.394 185.782C201.394 185.782 202.757 177.133 201.394 177.468C200.032 177.802 197.306 179.211 196.852 177.802Z" fill="#2F2E41"/>
<path d="M227.148 177.802C227.148 177.802 229.419 174.986 230.782 176.394C232.145 177.802 235.325 183.435 235.325 183.435C235.325 183.435 242.593 187.66 236.687 188.598C230.782 189.537 228.965 188.598 228.965 188.129C228.965 187.66 228.057 186.251 228.057 186.251L225.785 186.721L222.606 185.782C222.606 185.782 221.243 177.133 222.606 177.468C223.968 177.802 226.694 179.211 227.148 177.802Z" fill="#2F2E41"/>
<path d="M230.5 39C235.747 39 240 34.9706 240 30C240 25.0294 235.747 21 230.5 21C225.253 21 221 25.0294 221 30C221 34.9706 225.253 39 230.5 39Z" fill="#FBBEBE"/>
<path d="M238.062 22C238.062 22 237.125 29.6774 237.594 31.4839C238.062 33.2903 239 36 239 36L224 33.2903C224 33.2903 228.219 24.7097 227.281 23.3548C226.344 22 238.062 22 238.062 22Z" fill="#FBBEBE"/>
<path d="M238.797 33.2293L223.695 30L215 83.5135C218.919 82.4347 223.073 82.5957 226.898 83.9748C233.305 86.2815 242 83.9748 242 83.9748L240.169 33.6906L238.797 33.2293Z" fill="#6062C3"/>
<path d="M226.413 26L221.033 28.858L214.148 30.2437L206.803 47.7962L207.721 60.2677C207.721 60.2677 199.918 74.5869 199 82.4393C199 82.4393 199.918 94.4489 215.066 93.987L225.164 65.8106C225.164 65.8106 229.295 44.5629 225.164 38.5581C225.164 38.5581 228.121 27.2992 226.413 26Z" fill="#2F2E41"/>
<path d="M217 30.2553L215.519 30L214.256 30.2553C214.256 30.2553 211.055 30.7174 207.396 33.9525C203.738 37.1875 191.39 47.3548 190.476 50.1276C189.561 52.9005 190.019 57.522 191.39 60.2949C192.762 63.0678 195.506 66.765 195.506 66.765L196.878 70L204.653 67.6893C204.653 67.6893 199.622 57.9842 200.079 53.8248L209.226 46.4305L217 30.2553Z" fill="#2F2E41"/>
<path d="M237.317 28L244.302 36.6988L248 41.359L243.377 57.2035L241.065 70.718C241.065 70.718 246.613 92.1548 241.99 98.679C241.99 98.679 239.216 101.941 238.292 98.213C237.367 94.4848 237.367 76.7762 237.367 76.7762C237.367 76.7762 233.669 53.4754 235.518 47.4172C237.367 41.359 235.419 29.0875 237.317 28Z" fill="#2F2E41"/>
<path d="M244.072 95.4463V99.9087C244.072 99.9087 243.186 114.635 247.616 112.85C252.046 111.065 248.945 99.9087 248.945 99.9087L248.502 95L244.072 95.4463Z" fill="#FBBEBE"/>
<path d="M220.361 31C223.902 28.4188 226.769 25.4457 228.665 21.9091C228.665 21.9091 235.164 29.1818 239.136 29.5455C243.108 29.9091 239.497 20.8182 239.497 20.8182L232.276 19L225.416 19.7273L220 23.3636L220.361 31Z" fill="#2F2E41"/>
<path d="M244.042 40L247.708 41.3885L248.167 46.0165L250 74.2478L249.083 95.5369L242.208 96L239.916 72.3967L239 46.4796L244.042 40Z" fill="#2F2E41"/>
<path d="M0 114V165H183V114H0ZM109.643 156.443H11.3196V149.255H109.643V156.443ZM109.643 143.094H11.3196V135.906H109.643V143.094ZM171.68 129.745H11.3196V122.557H171.68V129.745Z" fill="#6062C3"/>
<path d="M0 45V95H183V45H0ZM109.643 86.6108H11.3196V79.5638H109.643V86.6108ZM109.643 73.5235H11.3196V66.4765H109.643V73.5235ZM171.68 60.4362H11.3196V53.3893H171.68V60.4362Z" fill="#6062C3"/>
<path opacity="0.2" d="M131.042 86.7309C136.476 86.7309 140.88 82.3263 140.88 76.8929C140.88 71.4596 136.476 67.0549 131.042 67.0549C125.609 67.0549 121.204 71.4596 121.204 76.8929C121.204 82.3263 125.609 86.7309 131.042 86.7309Z" fill="white"/>
<path d="M131.042 84.7634C135.389 84.7634 138.913 81.2397 138.913 76.893C138.913 72.5462 135.389 69.0226 131.042 69.0226C126.696 69.0226 123.172 72.5462 123.172 76.893C123.172 81.2397 126.696 84.7634 131.042 84.7634Z" fill="#6062C3"/>
<path d="M130.215 80.0411L127.501 76.6294L129.079 75.4291L130.364 77.0445L134.706 72.5642L136.158 73.9087L130.215 80.0411Z" fill="white"/>
<path opacity="0.2" d="M131.042 154.416C136.476 154.416 140.88 150.012 140.88 144.578C140.88 139.145 136.476 134.74 131.042 134.74C125.609 134.74 121.204 139.145 121.204 144.578C121.204 150.012 125.609 154.416 131.042 154.416Z" fill="white"/>
<path d="M131.042 152.449C135.389 152.449 138.913 148.925 138.913 144.578C138.913 140.232 135.389 136.708 131.042 136.708C126.696 136.708 123.172 140.232 123.172 144.578C123.172 148.925 126.696 152.449 131.042 152.449Z" fill="#6062C3"/>
<path d="M130.215 147.727L127.501 144.315L129.079 143.115L130.364 144.73L134.706 140.25L136.158 141.594L130.215 147.727Z" fill="white"/>
</svg>
