<svg width="235" height="190" viewBox="0 0 235 190" fill="none" xmlns="http://www.w3.org/2000/svg">
<g clip-path="url(#clip0)">
<path opacity="0.1" d="M61.4347 0.211483C83.3555 3.20492 101.154 24.0203 120.904 37.0099C125.304 39.9045 129.917 42.4536 134.794 43.2084C150.949 45.7104 165.846 28.3729 182.077 29.7885C195.231 30.936 206.387 44.838 211.12 61.1902C215.854 77.5424 215.128 95.8323 212.499 112.998C208.384 139.805 199.267 166.177 183.397 183.613C180.778 186.491 177.853 189.184 174.489 189.838C168.884 190.94 163.687 186.202 158.836 182.285C136.943 164.597 109.267 160.105 84.8239 170.273C76.5459 173.716 68.6285 178.739 60.1572 181.217C43.8439 185.981 25.3833 179.961 14.3074 163.346C3.23153 146.73 1.43073 119.42 11.9833 102.207C16.3887 95.0234 22.4605 89.9512 27.0851 83.019C38.7055 65.618 34.4156 48.0242 32.9778 27.618C31.5612 7.51049 48.6287 -1.53567 61.4347 0.211483Z" fill="#6062C3"/>
<g opacity="0.2">
<path opacity="0.2" d="M161.078 128.156C161.078 128.156 167.562 134.625 163.906 144.223C160.25 153.822 170.181 169.784 170.181 169.784L169.877 169.735C156.559 167.383 149.943 152.195 157.349 140.908C160.097 136.72 162.357 131.796 161.078 128.156Z" fill="#6062C3"/>
<path opacity="0.1" d="M161.078 128.273C161.078 128.273 167.562 134.742 163.906 144.341C160.25 153.94 170.181 169.902 170.181 169.902L169.877 169.852C156.559 167.501 149.943 152.313 157.349 141.026C160.097 136.826 162.357 131.904 161.078 128.273Z" fill="black"/>
<path opacity="0.2" d="M161.078 128.156C161.078 128.156 164.738 136.085 161.078 142.554C157.417 149.023 160.451 167.176 170.176 169.784" stroke="#535461" stroke-miterlimit="10"/>
<path opacity="0.2" d="M149.53 154.328C149.53 154.328 156.929 153.152 157.603 159.767C158.277 166.382 171.83 167.292 171.83 167.292L171.576 167.461C160.385 174.791 149.688 172.129 151.305 162.398C151.901 158.789 151.852 155.153 149.53 154.328Z" fill="#6062C3"/>
<path opacity="0.2" d="M149.53 154.328C149.53 154.328 155.274 155.586 154.801 160.795C154.327 166.003 163.329 172.249 171.83 167.299" stroke="#535461" stroke-miterlimit="10"/>
</g>
<g opacity="0.2">
<path opacity="0.2" d="M84.171 117.969C84.171 117.969 89.5593 123.345 86.5281 131.319C83.4969 139.293 91.7419 152.557 91.7419 152.557L91.4897 152.515C80.4256 150.566 74.9266 137.936 81.0785 128.563C83.3555 125.075 85.234 120.986 84.171 117.969Z" fill="#6062C3"/>
<path opacity="0.1" d="M84.171 118.059C84.171 118.059 89.5593 123.434 86.5281 131.408C83.4969 139.382 91.7419 152.647 91.7419 152.647L91.4779 152.611C80.4138 150.662 74.9148 138.032 81.0667 128.659C83.3555 125.165 85.234 121.076 84.171 118.059Z" fill="black"/>
<path opacity="0.2" d="M84.171 117.969C84.171 117.969 87.2116 124.553 84.171 129.931C81.1304 135.309 83.6501 150.389 91.7302 152.557" stroke="#535461" stroke-miterlimit="10"/>
<path opacity="0.2" d="M74.5754 139.709C74.5754 139.709 80.7297 138.738 81.2836 144.228C81.8375 149.719 93.1043 150.495 93.1043 150.495L92.8922 150.636C83.5935 156.727 74.705 154.516 76.0462 146.429C76.5435 143.412 76.5035 140.384 74.5754 139.709Z" fill="#6062C3"/>
<path opacity="0.2" d="M74.5754 139.708C74.5754 139.708 79.3461 140.753 78.9548 145.082C78.5635 149.411 86.0402 154.6 93.0972 150.49" stroke="#535461" stroke-miterlimit="10"/>
</g>
<g opacity="0.2">
<path opacity="0.2" d="M61.5431 84.1079C61.5431 84.1079 66.9314 89.4834 63.9002 97.4573C60.869 105.431 69.114 118.696 69.114 118.696L68.8618 118.654C57.7977 116.704 52.2987 104.074 58.4507 94.7013C60.7276 91.2141 62.6062 87.1249 61.5431 84.1079Z" fill="#6062C3"/>
<path opacity="0.1" d="M61.5431 84.1973C61.5431 84.1973 66.9314 89.5728 63.9002 97.5467C60.869 105.521 69.1141 118.785 69.1141 118.785L68.8501 118.75C57.786 116.801 52.2869 104.171 58.4389 94.7978C60.7276 91.3035 62.6062 87.2142 61.5431 84.1973Z" fill="black"/>
<path opacity="0.2" d="M61.5431 84.1079C61.5431 84.1079 64.5838 90.6921 61.5431 96.0699C58.5025 101.448 61.0222 116.528 69.1023 118.696" stroke="#535461" stroke-miterlimit="10"/>
<path opacity="0.2" d="M51.9475 105.848C51.9475 105.848 58.1018 104.876 58.6557 110.367C59.2096 115.858 70.4764 116.634 70.4764 116.634L70.2643 116.775C60.9656 122.865 52.0771 120.655 53.4183 112.568C53.9156 109.551 53.8756 106.522 51.9475 105.848Z" fill="#6062C3"/>
<path opacity="0.2" d="M51.9475 105.847C51.9475 105.847 56.7182 106.891 56.3269 111.22C55.9357 115.549 63.4123 120.739 70.4694 116.629" stroke="#535461" stroke-miterlimit="10"/>
</g>
<path d="M3.47903 139.297V136.092L69.3097 117.673L81.0832 116.337V119.274L15.5213 142.766L3.47903 139.297Z" fill="#DFE5EE"/>
<path opacity="0.05" d="M3.47903 139.297V136.092L69.3097 117.673L81.0832 116.337V119.274L15.5213 142.766L3.47903 139.297Z" fill="black"/>
<path d="M3.47903 136.092L69.3097 114.468L80.8169 116.337L15.5213 139.563L3.47903 136.092Z" fill="#DFE5EE"/>
<path d="M17.9302 87.2378H13.6474V136.894H17.9302V87.2378Z" fill="#DFE5EE"/>
<path d="M69.3097 75.7578H65.0269V119.274H69.3097V75.7578Z" fill="#DFE5EE"/>
<path d="M80.0131 62.1428V75.4922L26.5571 87.4048L20.2331 88.8157L4.54915 92.31L0 90.9743V75.4922L24.2566 70.8785L30.2931 69.731L74.3939 61.3433L80.0131 62.1428Z" fill="#DFE5EE"/>
<path opacity="0.05" d="M80.0131 62.1428V75.4922L26.5571 87.4048L20.2331 88.8157L4.54915 92.31L0 90.9743V75.4922L24.2566 70.8785L30.2931 69.731L74.3939 61.3433L80.0131 62.1428Z" fill="black"/>
<path opacity="0.05" d="M17.9302 87.2378V89.8621L13.6474 90.8168V87.2378H17.9302Z" fill="black"/>
<path opacity="0.05" d="M69.3097 75.7578V78.4126L65.0269 79.365V75.7578H69.3097Z" fill="black"/>
<path d="M80.0132 62.1426V75.492L58.3092 80.329L51.997 81.7352L26.5571 87.4046L20.2331 88.8155L4.54916 92.3098L4.81786 77.0933L26.6137 72.7595L32.7114 71.5485H32.7138L57.6304 66.5939L63.7164 65.3829L80.0132 62.1426Z" fill="#DFE5EE"/>
<path d="M32.7138 71.5487L26.5571 87.4047L20.2331 88.8156L26.6137 72.7597L24.2566 70.8785L30.2931 69.731L32.7114 71.5487H32.7138Z" fill="#6062C3"/>
<path d="M64.0228 65.6136L58.3092 80.3292L51.997 81.7354L57.9227 66.8246L57.6304 66.5942L55.5656 64.9434L61.6021 63.7959L63.7163 65.3832L64.0204 65.6136H64.0228Z" fill="#6062C3"/>
<path opacity="0.05" d="M14.5856 136.027L18.866 135.025V136.027L14.5856 137.028V136.027Z" fill="black"/>
<path opacity="0.05" d="M65.6963 118.407L69.9767 117.405V118.407L65.6963 119.409V118.407Z" fill="black"/>
<path d="M155.503 81.9512C148.679 85.5372 141.615 81.4809 141.615 81.4809C141.504 81.6881 141.378 81.8862 141.236 82.0735C141.149 82.0077 141.059 81.9395 140.969 81.8666C138.037 79.4751 134.791 73.8292 134.791 73.8292L128.467 61.9989C127.693 60.5772 127.109 59.06 126.73 57.4864C125.688 52.9762 122.363 52.7834 122.363 52.7834H118.466C116.581 52.7834 113.856 53.1785 111.159 53.724C111.231 53.6507 111.278 53.557 111.294 53.4559L111.164 53.4818L112.611 52.0709C112.611 52.0709 116.753 50.3967 117.241 46.8106L119.433 44.659C119.433 44.659 119.504 44.4709 119.603 44.1394L120.331 43.2246C123.503 39.2624 123.732 39.1965 123.732 39.1965L133.351 33.5177C133.351 33.5177 136.804 33.0286 135.364 23.3946C133.924 13.7605 134.893 12.5777 134.893 12.5777C134.893 12.5777 137.509 2.92489 132.493 4.1265C127.477 5.32811 129.745 13.5795 129.745 13.5795L130.094 15.4019C130.531 17.6841 130.507 20.0306 130.023 22.3035C129.502 24.7608 128.92 27.7965 129.066 28.5208C129.323 29.7835 126.426 31.3826 126.426 31.3826L124.788 32.3373C123.054 33.3472 121.011 33.6948 119.039 33.3155L118.952 33.1838L117.971 32.4501C117.942 32.5506 117.919 32.6527 117.901 32.7558L117.5 32.4501V32.4736C117.5 32.389 117.5 32.309 117.519 32.2197C117.634 31.3153 117.847 30.426 118.153 29.5672C118.179 29.4873 118.212 29.4026 118.24 29.3321C120.073 29.2212 121.794 28.4201 123.057 27.0908C124.32 25.7615 125.03 24.0032 125.043 22.1718C125.043 21.4175 124.922 20.6681 124.684 19.952C124.87 19.9864 125.06 19.9864 125.245 19.952C126.127 19.8109 127.063 19.3594 127.52 18.5811C127.762 18.1536 127.873 17.665 127.84 17.1753C127.807 16.6857 127.631 16.2163 127.334 15.8251C127.221 15.6821 127.095 15.5506 126.957 15.4324C126.12 14.4918 124.72 14.2567 123.607 13.6241C122.549 13.0292 121.745 12.0792 120.76 11.3714C118.898 10.0287 116.517 9.62427 114.245 9.25509C113.269 9.09754 112.277 8.93999 111.296 9.06932C110.056 9.23392 108.916 9.85236 107.944 10.626C107.6 10.8728 107.312 11.1893 107.098 11.5548C106.738 12.2603 106.896 13.088 106.832 13.8687C106.676 15.7687 105.182 17.316 103.532 18.3248C102.518 18.9432 101.411 19.437 100.56 20.2671C99.7088 21.0972 99.2068 22.4069 99.7371 23.4557C100.018 24.0106 100.572 24.4739 100.576 25.1017C100.558 25.3779 100.477 25.6463 100.341 25.8871C99.7744 27.0663 99.0098 28.1401 98.0801 29.0616C94.6388 28.2339 90.924 30.054 90.924 30.054L79.7162 30.5243C79.7162 30.5243 76.5483 29.0899 72.4092 37.9361C68.2702 46.7824 66.8041 47.2621 66.8041 47.2621C66.8041 47.2621 59.2615 53.9568 64.1241 55.6311C68.9868 57.3053 71.6668 49.1739 71.6668 49.1739L74.3656 44.1699C74.3656 44.1699 80.4563 38.43 80.9442 37.2354C81.4321 36.0408 84.3549 36.0408 84.3549 36.0408L96.2369 36.5111C96.2525 36.6068 96.262 36.7035 96.2652 36.8004C96.2934 38.1266 95.0466 39.1519 93.7926 39.6433C93.0006 39.9584 92.0955 40.1959 91.6123 40.8873C91.1291 41.5786 91.2446 42.5827 91.7302 43.2881C91.8782 43.4989 92.0516 43.6908 92.2463 43.8595C92.756 44.3837 93.3781 44.7857 94.066 45.0353C94.6365 45.2621 95.23 45.4261 95.8362 45.5244C95.5897 46.5393 95.2545 47.5307 94.8344 48.4873L95.3058 48.6895L95.1503 49.1033C94.4856 50.8646 93.1161 54.3401 91.9046 56.4423C91.8928 56.4423 89.7031 58.2953 88.0036 59.9696C86.7049 61.2441 83.5747 73.5141 92.7343 73.7351L94.825 75.273H94.8674C96.7271 77.8926 102.867 82.1958 102.867 82.1958L92.0083 82.8354C91.4667 82.8682 90.9275 82.9334 90.3937 83.0306C90.2161 83.0619 90.0386 83.0972 89.861 83.1364C87.947 83.5549 85.828 83.4068 84.6919 83.2728C83.94 81.8619 80.4492 82.4356 80.4492 82.4356C80.4492 82.4356 79.9613 89.61 80.6849 93.6734C81.4085 97.7367 84.0956 95.1078 84.0956 95.1078C83.6077 91.5218 87.6312 88.8834 87.6312 88.8834C88.1427 88.6271 88.7485 88.3167 89.4603 87.9428C91.7184 86.7341 102.46 88.5824 105.781 89.1938C106.512 89.3296 107.255 89.3926 107.999 89.3819C117.519 89.2267 115.046 84.5943 115.046 84.5943L113.13 80.8319C112.816 80.2064 112.535 79.5643 112.291 78.9084C110.599 74.4406 107.968 71.9809 105.953 70.6641C106.061 70.5277 106.17 70.3913 106.276 70.2479C106.276 70.2479 106.115 70.2103 105.873 70.1374C107.574 69.2697 108.701 68.576 108.701 68.576C108.701 68.576 119.909 61.8813 119.423 63.5556C118.938 65.2298 121.861 71.6846 127.221 76.2277C127.376 76.3594 127.527 76.4934 127.678 76.6298L127.824 76.7639L128.123 77.046L128.286 77.2036L128.564 77.4811L128.72 77.641L129.014 77.9561L129.132 78.083C129.266 78.2304 129.398 78.3793 129.528 78.5298L129.613 78.6309C129.714 78.7501 129.813 78.8692 129.912 78.9884L130.047 79.1553L130.282 79.4563L130.419 79.6327L130.655 79.9407L130.777 80.103L131.051 80.4816L131.117 80.5709C131.228 80.7277 131.338 80.8844 131.444 81.0412L131.525 81.1611L131.76 81.5162L131.859 81.669L132.069 81.9983L132.161 82.144L132.38 82.5038L132.444 82.6073C132.634 82.9208 132.815 83.2344 132.986 83.5479L133.014 83.5996L133.238 84.0041L133.274 84.0699L133.488 84.4744L133.502 84.5026C134.106 85.6535 134.647 86.8365 135.121 88.0463C134.848 88.112 134.57 88.1592 134.289 88.1874C132.828 94.6445 136.727 94.6445 136.727 94.6445C136.727 94.6445 151.105 92.4929 156.465 86.9928C161.825 81.4927 155.503 81.9512 155.503 81.9512Z" fill="url(#paint0_linear)"/>
<path d="M103.358 69.7217C103.358 69.7217 109.283 71.2548 112.239 79.1794C112.476 79.8204 112.748 80.4484 113.052 81.0605L114.907 84.7712C114.907 84.7712 117.3 89.326 108.091 89.4742C107.371 89.4844 106.653 89.4221 105.946 89.2884C102.733 88.6888 92.343 86.8711 90.1533 88.0586C88.9295 88.7501 87.6707 89.378 86.3819 89.9398L83.7892 87.118L84.732 83.3556C84.732 83.3556 87.8457 83.9388 90.5351 83.3391C91.2183 83.1854 91.9127 83.0863 92.6117 83.0428L103.122 82.4197C103.122 82.4197 94.8721 76.541 94.8721 74.4246C94.8721 72.3083 103.358 69.7217 103.358 69.7217Z" fill="#F8BDC5"/>
<path opacity="0.05" d="M85.6795 84.0658C85.6795 84.0658 83.0868 88.2843 88.3878 89.0039C88.3878 89.0039 84.501 91.5905 84.9724 95.1177C84.9724 95.1177 82.3796 97.7043 81.6725 93.7068C80.9654 89.7093 81.4368 82.6549 81.4368 82.6549C81.4368 82.6549 85.6795 81.9494 85.6795 84.0658Z" fill="black"/>
<path opacity="0.05" d="M103.358 69.7217C103.358 69.7217 109.283 71.2548 112.239 79.1794C112.476 79.8204 112.748 80.4484 113.052 81.0605L114.907 84.7712C114.907 84.7712 117.3 89.326 108.091 89.4742C107.371 89.4844 106.653 89.4221 105.946 89.2884C102.733 88.6888 92.343 86.8711 90.1533 88.0586C88.9295 88.7501 87.6707 89.378 86.3819 89.9398L83.7892 87.118L84.732 83.3556C84.732 83.3556 87.8457 83.9388 90.5351 83.3391C91.2183 83.1854 91.9127 83.0863 92.6117 83.0428L103.122 82.4197C103.122 82.4197 94.8721 76.541 94.8721 74.4246C94.8721 72.3083 103.358 69.7217 103.358 69.7217Z" fill="black"/>
<path opacity="0.05" d="M84.9724 87.593L85.9152 83.8306C85.9152 83.8306 89.0289 84.4138 91.7184 83.8141C92.4015 83.6604 93.0959 83.5614 93.7949 83.5178L104.3 82.89C104.3 82.89 96.0507 77.0113 96.0507 74.8949C96.0507 72.7786 104.536 70.192 104.536 70.192L104.6 70.2108C104.201 70.0122 103.785 69.8486 103.358 69.7217C103.358 69.7217 94.8721 72.3083 94.8721 74.4246C94.8721 76.541 103.122 82.4197 103.122 82.4197L92.6188 83.0475C91.9198 83.0911 91.2254 83.1901 90.5422 83.3438C87.8528 83.9435 84.7391 83.3603 84.7391 83.3603L83.7962 87.1227L86.389 89.9445C86.389 89.9445 86.5634 89.8739 86.9217 89.7093L84.9724 87.593Z" fill="black"/>
<path d="M85.6795 84.0658C85.6795 84.0658 83.0868 88.2843 88.3878 89.0039C88.3878 89.0039 84.501 91.5905 84.9724 95.1177C84.9724 95.1177 82.3796 97.7043 81.6725 93.7068C80.9654 89.7093 81.4368 82.6549 81.4368 82.6549C81.4368 82.6549 85.6795 81.9494 85.6795 84.0658Z" fill="#FFD97B"/>
<path d="M78.6696 152.23V149.025L144.5 130.606L156.274 129.271V132.208L90.7119 155.699L78.6696 152.23Z" fill="#DFE5EE"/>
<path opacity="0.05" d="M78.6696 152.23V149.025L144.5 130.606L156.274 129.271V132.208L90.7119 155.699L78.6696 152.23Z" fill="black"/>
<path d="M78.6696 149.025L144.5 127.401L156.007 129.27L90.7119 152.496L78.6696 149.025Z" fill="#DFE5EE"/>
<path d="M93.1208 100.171H88.838V149.827H93.1208V100.171Z" fill="#DFE5EE"/>
<path d="M144.5 88.6909H140.217V132.207H144.5V88.6909Z" fill="#DFE5EE"/>
<path d="M155.204 75.0759V88.4253L101.748 100.338L95.4237 101.749L79.7397 105.243L75.1906 103.907V88.4253L99.4448 83.8116L105.484 82.6641L149.584 74.2764L155.204 75.0759Z" fill="#DFE5EE"/>
<path opacity="0.05" d="M155.204 75.0759V88.4253L101.748 100.338L95.4237 101.749L79.7397 105.243L75.1906 103.907V88.4253L99.4448 83.8116L105.484 82.6641L149.584 74.2764L155.204 75.0759Z" fill="black"/>
<path opacity="0.05" d="M93.1208 100.171V102.795L88.838 103.75V100.171H93.1208Z" fill="black"/>
<path opacity="0.05" d="M144.5 88.6909V91.3457L140.217 92.2981V88.6909H144.5Z" fill="black"/>
<path d="M155.204 75.0757V88.4251L133.5 93.2621L127.188 94.6683L101.748 100.338L95.4237 101.749L79.7397 105.243L80.0084 90.0264L101.804 85.6926L107.902 84.4816H107.904L132.821 79.527L138.907 78.316L155.204 75.0757Z" fill="#DFE5EE"/>
<path d="M107.904 84.4818L101.748 100.338L95.4237 101.749L101.804 85.6928L99.4448 83.8116L105.484 82.6641L107.902 84.4818H107.904Z" fill="#6062C3"/>
<path d="M139.213 78.5467L133.5 93.2623L127.188 94.6685L133.113 79.7577L132.821 79.5273L130.756 77.8765L136.793 76.729L138.907 78.3163L139.211 78.5467H139.213Z" fill="#6062C3"/>
<path opacity="0.05" d="M89.7761 148.96L94.0566 147.958V148.96L89.7761 149.961V148.96Z" fill="black"/>
<path opacity="0.05" d="M140.887 131.34L145.167 130.338V131.34L140.887 132.339V131.34Z" fill="black"/>
<path d="M132.616 34.5431L123.31 40.1279C123.31 40.1279 123.089 40.1938 120.01 44.0902L118.905 45.5011C116.567 48.4992 111.706 49.4986 111.706 49.4986L108.623 44.7674L107.973 39.0204L108.656 36.6995L109.198 34.8606L113.941 35.5378L115.85 36.5654L118.207 34.2139C118.391 34.2633 118.577 34.308 118.763 34.3433C120.671 34.7186 122.651 34.3796 124.324 33.3909L125.908 32.4503C125.908 32.4503 128.708 30.8772 128.46 29.6285C128.319 28.9231 128.882 25.932 129.387 23.5147C129.855 21.2788 129.878 18.9731 129.455 16.7283L129.118 14.9365C129.118 14.9365 126.928 6.81914 131.777 5.6434C136.625 4.46765 134.098 13.9535 134.098 13.9535C134.098 13.9535 133.17 15.1152 134.57 24.5893C135.97 34.0634 132.616 34.5431 132.616 34.5431Z" fill="#F8BDC5"/>
<path d="M117.276 33.283C117.012 35.7709 118.207 36.1048 118.207 36.1048L118.914 38.9266V41.9835L116.793 45.5107H111.607L107.129 43.3944V33.5181L106.422 31.1667C106.818 31.1413 107.211 31.0903 107.6 31.0138C109.875 30.56 111.164 29.2996 111.89 27.931C113.022 25.7888 112.786 23.3973 112.786 23.3973C112.786 23.3973 122.214 20.8107 118.914 28.1003C118.476 29.0715 118.141 29.9251 117.889 30.687C117.593 31.5283 117.388 32.3985 117.276 33.283Z" fill="#F8BDC5"/>
<path d="M111.275 53.9267C111.26 54.031 111.211 54.1275 111.136 54.2019C111.013 54.3439 110.911 54.5022 110.832 54.6722C109.729 56.7485 107.6 64.0781 107.6 64.0781L96.0507 59.8454L95.8833 59.8031L91.3365 58.6697C92.6258 57.7503 94.7802 52.236 95.657 49.8704C95.8927 49.2097 96.0507 48.7935 96.0507 48.7935L108.307 49.9692C108.307 49.9692 111.485 52.7439 111.275 53.9267Z" fill="#F8BDC5"/>
<path d="M106.422 30.4518C106.422 30.4518 102.886 31.8627 99.3505 30.4518C95.8149 29.0409 91.5722 31.1572 91.5722 31.1572L80.7297 31.6275C80.7297 31.6275 77.6655 30.2166 73.6585 38.9171C69.6514 47.6176 68.2372 48.0879 68.2372 48.0879C68.2372 48.0879 60.9303 54.6721 65.6444 56.3181C70.3586 57.9642 72.9513 49.9691 72.9513 49.9691L75.5441 45.031C75.5441 45.031 81.4368 39.3874 81.9082 38.2117C82.3796 37.0359 85.2081 37.0359 85.2081 37.0359L96.9935 37.5062L96.9204 40.9441L100.529 44.0904L103.829 41.2686L106.422 36.0954V30.4518Z" fill="#F8BDC5"/>
<path opacity="0.1" d="M118.914 28.1003C118.476 29.0715 118.141 29.9251 117.889 30.6869C117.762 30.6869 117.63 30.6869 117.5 30.6869C116.414 30.6881 115.343 30.4391 114.37 29.9595C113.396 29.4798 112.547 28.7824 111.888 27.9216C113.022 25.7888 112.786 23.3973 112.786 23.3973C112.786 23.3973 122.214 20.8107 118.914 28.1003Z" fill="black"/>
<path d="M117.5 30.4517C121.405 30.4517 124.571 27.2933 124.571 23.3972C124.571 19.5012 121.405 16.3428 117.5 16.3428C113.595 16.3428 110.429 19.5012 110.429 23.3972C110.429 27.2933 113.595 30.4517 117.5 30.4517Z" fill="#F8BDC5"/>
<path opacity="0.1" d="M111.275 53.9266C111.26 54.0309 111.211 54.1274 111.136 54.2017C111.013 54.3438 110.911 54.502 110.832 54.672C106.639 54.4886 97.4625 50.6486 95.657 49.8797C95.8927 49.2189 96.0507 48.8027 96.0507 48.8027L108.307 49.9785C108.307 49.9785 111.485 52.7438 111.275 53.9266Z" fill="black"/>
<path opacity="0.1" d="M120.02 44.0904L118.914 45.5013C116.576 48.4994 111.716 49.4988 111.716 49.4988L108.633 44.7676L107.982 39.0206L108.19 33.3911C108.847 36.448 110.686 42.8253 113.493 43.3849C118.186 44.3255 117.849 37.6167 117.618 34.802C117.583 34.3673 117.623 33.9299 117.736 33.5087L118.679 34.2141L118.763 34.3435C121.01 37.8237 120.505 41.967 120.02 44.0904Z" fill="black"/>
<path d="M107.6 29.9814H105.243C105.243 29.9814 107.6 45.0309 96.5221 40.7983C96.5221 40.7983 97.4649 44.3255 95.3435 49.2636C95.3435 49.2636 106.657 54.2017 111.136 54.2017L112.55 52.7908C112.55 52.7908 116.557 51.1448 117.029 47.6176L119.15 45.5012C119.15 45.5012 121.507 39.1522 118.207 34.2141L117.264 33.5087C117.151 33.9298 117.111 34.3673 117.146 34.802C117.382 37.6238 117.714 44.3208 113.022 43.3849C107.129 42.2092 107.6 29.9814 107.6 29.9814Z" fill="#EB6576"/>
<path d="M91.5722 72.7785L95.3435 75.6003C95.3435 75.6003 101.472 77.4814 106.422 70.6621C106.422 70.6621 103.358 69.9567 103.829 68.3107C104.3 66.6646 91.5722 72.7785 91.5722 72.7785Z" fill="#5E52AD"/>
<path opacity="0.05" d="M91.5722 72.7785L95.3435 75.6003C95.3435 75.6003 101.472 77.4814 106.422 70.6621C106.422 70.6621 103.358 69.9567 103.829 68.3107C104.3 66.6646 91.5722 72.7785 91.5722 72.7785Z" fill="black"/>
<path opacity="0.1" d="M111.275 54.1616C111.26 54.2659 111.211 54.3624 111.136 54.4367C110.193 55.3773 107.6 64.313 107.6 64.313L96.0507 60.0803L95.8833 60.038C96.7783 59.4738 97.7254 58.9966 98.7118 58.613C99.5155 58.3026 100.324 57.9734 101.024 57.6583C101.591 57.4162 102.136 57.125 102.653 56.7882C103.64 56.0828 107.433 54.9541 111.275 54.1616Z" fill="black"/>
<path d="M138.006 87.5926L134.471 88.5332C134.471 88.5332 134.391 88.2981 134.235 87.8889C133.481 85.9748 130.968 80.2207 126.693 76.5406C121.507 72.0728 118.679 65.7238 119.15 64.0778C119.621 62.4317 108.779 69.0159 108.779 69.0159C108.779 69.0159 100.918 73.8952 95.723 73.9023C94.9468 73.9242 94.1747 73.7816 93.4579 73.4837C91.4544 72.5831 90.6435 71.0053 90.3725 69.4862C90.212 68.5247 90.2549 67.5403 90.4985 66.5963C90.742 65.6523 91.1808 64.7696 91.7867 64.0049C93.5828 61.6884 95.9789 59.9054 98.7165 58.8481C99.5203 58.5377 100.329 58.2085 101.029 57.8934C101.596 57.6513 102.141 57.3601 102.658 57.0233C104.307 55.8476 113.736 53.4961 118.214 53.4961H121.985C121.985 53.4961 125.201 53.6842 126.209 58.1191C126.573 59.6618 127.136 61.1509 127.883 62.5493L133.999 74.1892C133.999 74.1892 137.139 79.741 139.975 82.0925C140.783 82.765 141.568 83.1765 142.249 83.1248C145.313 82.8897 138.006 87.5926 138.006 87.5926Z" fill="#F8BDC5"/>
<path opacity="0.1" d="M126.966 19.8749C127.2 19.4538 127.307 18.9745 127.275 18.4941C127.244 18.0138 127.074 17.5528 126.787 17.1659C125.995 16.1383 124.564 15.9032 123.435 15.2589C122.41 14.6734 121.634 13.7398 120.682 13.0438C118.881 11.7246 116.585 11.3249 114.382 10.9651C113.439 10.8099 112.477 10.6547 111.53 10.784C110.33 10.9463 109.227 11.5553 108.286 12.3148C107.953 12.5584 107.674 12.8693 107.468 13.2272C107.119 13.9138 107.273 14.7369 107.211 15.5034C107.061 17.3729 105.613 18.8943 104.018 19.8843C103.037 20.4933 101.957 20.9777 101.142 21.7937C100.326 22.6096 99.8337 23.8982 100.348 24.9282C100.621 25.4737 101.156 25.9299 101.158 26.5413C101.143 26.8124 101.067 27.0766 100.937 27.315C100.379 28.4994 99.6177 29.5776 98.6882 30.5012C97.8538 31.3289 96.8568 32.072 96.4231 33.1655C96.0059 34.2166 96.1874 35.4158 96.5716 36.481C96.7507 36.989 96.9746 37.4969 96.9841 38.033C97.01 39.3381 95.8055 40.3398 94.5916 40.8289C93.8256 41.137 92.9417 41.3721 92.482 42.0517C92.0224 42.7313 92.1261 43.7189 92.5952 44.4032C93.0642 45.0875 93.8209 45.546 94.5987 45.8588C96.0427 46.4655 97.6433 46.5957 99.1667 46.2303C99.9224 46.042 100.63 45.6983 101.245 45.2213C101.86 44.7443 102.368 44.1445 102.738 43.4603C103.445 42.087 103.492 40.4033 104.472 39.2041C106.2 37.1089 109.844 37.638 111.647 35.6039C113.095 33.9697 112.701 31.4935 112.59 29.3161C112.526 28.103 112.577 26.8866 112.741 25.683C112.859 24.8271 113.076 23.9077 113.75 23.3668C114.294 22.9294 115.03 22.8307 115.723 22.746C117.17 22.565 118.836 22.2146 119.494 20.9142C119.768 20.3734 119.85 19.6914 120.343 19.3387C121.024 18.8496 121.978 19.3387 122.572 19.9266C123.228 20.578 123.777 21.3798 124.774 21.2176C125.62 21.0859 126.525 20.6414 126.966 19.8749Z" fill="black"/>
<path d="M126.711 19.621C126.945 19.1996 127.052 18.7202 127.02 18.2399C126.988 17.7596 126.818 17.2986 126.53 16.912C125.738 15.8844 124.307 15.6493 123.178 15.005C122.153 14.4195 121.377 13.4859 120.425 12.7899C118.624 11.4707 116.329 11.071 114.125 10.7112C113.182 10.556 112.22 10.4008 111.273 10.5301C110.073 10.6924 108.97 11.3014 108.029 12.0609C107.696 12.3045 107.417 12.6154 107.211 12.9733C106.863 13.6599 107.016 14.483 106.954 15.2495C106.804 17.119 105.356 18.6404 103.761 19.6304C102.78 20.2394 101.701 20.7238 100.885 21.5398C100.069 22.3557 99.5768 23.6443 100.091 24.6743C100.364 25.2198 100.899 25.676 100.902 26.2874C100.886 26.5585 100.81 26.8227 100.68 27.0611C100.122 28.2455 99.3608 29.3237 98.4313 30.2473C97.5969 31.075 96.5998 31.8181 96.1661 32.9116C95.7489 33.9627 95.9304 35.1619 96.3146 36.2271C96.4938 36.7351 96.7177 37.243 96.7271 37.7791C96.7531 39.0842 95.5486 40.0859 94.3347 40.575C93.5687 40.8831 92.6848 41.1182 92.2251 41.7978C91.7655 42.4774 91.8692 43.465 92.3383 44.1493C92.8073 44.8336 93.5639 45.2921 94.3418 45.6049C95.7857 46.2116 97.3864 46.3418 98.9098 45.9764C99.6655 45.7881 100.373 45.4444 100.988 44.9674C101.603 44.4904 102.112 43.8906 102.481 43.2064C103.188 41.8331 103.235 40.1494 104.216 38.9502C105.943 36.855 109.587 37.3841 111.39 35.35C112.838 33.7158 112.444 31.2396 112.333 29.0622C112.269 27.8491 112.32 26.6327 112.484 25.4291C112.602 24.5732 112.819 23.6537 113.493 23.1129C114.037 22.6755 114.773 22.5768 115.466 22.4921C116.913 22.3111 118.58 21.9607 119.237 20.6603C119.511 20.1195 119.593 19.4375 120.086 19.0848C120.767 18.5957 121.722 19.0848 122.316 19.6727C122.971 20.324 123.52 21.1259 124.517 20.9637C125.363 20.8296 126.271 20.3852 126.711 19.621Z" fill="#6E464E"/>
<path opacity="0.1" d="M102.297 47.5C102.297 47.5 104.89 49.6163 108.19 49.3812L102.297 47.5Z" fill="black"/>
<path opacity="0.05" d="M142.82 83.1675C141.467 84.4937 138.478 86.4172 138.478 86.4172L134.942 87.3578C134.942 87.3578 132.35 79.8331 127.164 75.3652C121.978 70.8974 119.15 64.5484 119.621 62.9024C120.093 61.2563 109.25 67.8405 109.25 67.8405C109.25 67.8405 101.389 72.7198 96.1944 72.7269C95.4182 72.7488 94.6461 72.6062 93.9293 72.3083C91.9258 71.4077 91.1149 69.8298 90.8439 68.3108C90.6609 67.2668 90.7271 66.1946 91.0372 65.181C90.3528 66.5061 90.1195 68.0174 90.3725 69.4865C90.6435 71.0056 91.4544 72.5834 93.4579 73.484C94.1747 73.7819 94.9468 73.9246 95.723 73.9026C100.909 73.9026 108.779 69.0162 108.779 69.0162C108.779 69.0162 119.621 62.4321 119.15 64.0781C118.679 65.7241 121.507 72.0732 126.693 76.541C131.878 81.0088 134.471 88.5336 134.471 88.5336L138.007 87.593C138.007 87.593 144.109 83.6636 142.82 83.1675Z" fill="black"/>
<path opacity="0.1" d="M101.236 57.9641L100.836 58.1499C97.9105 59.4899 95.5145 61.7612 94.0236 64.607C90.8651 70.7397 95.0395 73.5027 95.723 73.9025C94.9468 73.9244 94.1747 73.7818 93.4579 73.4839C91.4544 72.5833 90.6435 71.0054 90.3725 69.4864C90.212 68.5249 90.2549 67.5405 90.4985 66.5965C90.742 65.6525 91.1808 64.7698 91.7867 64.0051C93.5828 61.6886 95.979 59.9055 98.7165 58.8483C99.5203 58.5379 100.329 58.2087 101.029 57.8936L101.236 57.9641Z" fill="black"/>
<path d="M100.765 57.964C100.765 57.964 95.815 56.2098 92.515 57.0869C92.515 57.0869 90.3937 58.9046 88.7437 60.5506C87.4002 61.891 84.0296 75.6001 95.3435 73.9541C95.3435 73.9541 90.1203 71.2687 93.5522 64.6069C95.0429 61.761 97.439 59.4897 100.364 58.1498L100.765 57.964Z" fill="#5E52AD"/>
<path opacity="0.1" d="M138.007 87.5929L134.471 88.5335C134.471 88.5335 134.391 88.2983 134.235 87.8892C135.058 87.6729 136.121 87.1837 136.121 86.182C136.121 86.182 138.82 83.6683 139.975 82.0928C140.783 82.7653 141.568 83.1768 142.249 83.1251C145.313 82.8899 138.007 87.5929 138.007 87.5929Z" fill="black"/>
<path d="M136.357 86.4168C136.357 86.4168 139.892 83.1248 140.599 81.7139C140.599 81.7139 147.435 85.7114 154.035 82.1842C154.035 82.1842 160.163 81.7139 154.977 87.1223C149.792 92.5307 135.885 94.647 135.885 94.647C135.885 94.647 132.114 94.647 133.528 88.298C133.528 88.298 136.357 88.0629 136.357 86.4168Z" fill="#FFD97B"/>
<path d="M157.396 168.691V165.486L223.226 147.067L235 145.731V148.668L169.438 172.159L157.396 168.691Z" fill="#DFE5EE"/>
<path opacity="0.05" d="M157.396 168.691V165.486L223.226 147.067L235 145.731V148.668L169.438 172.159L157.396 168.691Z" fill="black"/>
<path d="M157.396 165.486L223.226 143.861L234.734 145.731L169.438 168.956L157.396 165.486Z" fill="#DFE5EE"/>
<path d="M171.847 116.631H167.564V166.288H171.847V116.631Z" fill="#DFE5EE"/>
<path d="M223.226 105.151H218.944V148.668H223.226V105.151Z" fill="#DFE5EE"/>
<path d="M233.93 91.5363V104.886L180.474 116.798L174.15 118.209L158.466 121.704L153.917 120.368V104.886L178.171 100.272L184.21 99.1246L228.311 90.7368L233.93 91.5363Z" fill="#DFE5EE"/>
<path opacity="0.05" d="M233.93 91.5363V104.886L180.474 116.798L174.15 118.209L158.466 121.704L153.917 120.368V104.886L178.171 100.272L184.21 99.1246L228.311 90.7368L233.93 91.5363Z" fill="black"/>
<path opacity="0.05" d="M171.847 116.631V119.256L167.564 120.21V116.631H171.847Z" fill="black"/>
<path opacity="0.05" d="M223.226 105.151V107.806L218.944 108.759V105.151H223.226Z" fill="black"/>
<path d="M233.93 91.5361V104.886L212.226 109.722L205.914 111.129L180.474 116.798L174.15 118.209L158.466 121.703L158.735 106.487L180.53 102.153L186.628 100.942H186.631L211.547 95.9875L217.633 94.7765L233.93 91.5361Z" fill="#DFE5EE"/>
<path d="M186.631 100.942L180.474 116.798L174.15 118.209L180.53 102.153L178.171 100.272L184.21 99.1245L186.628 100.942H186.631Z" fill="#6062C3"/>
<path d="M217.94 95.0072L212.226 109.723L205.914 111.129L211.839 96.2182L211.547 95.9877L209.482 94.337L215.519 93.1895L217.633 94.7767L217.937 95.0072H217.94Z" fill="#6062C3"/>
<path opacity="0.05" d="M168.502 165.42L172.783 164.418V165.42L168.502 166.422V165.42Z" fill="black"/>
<path opacity="0.05" d="M219.613 147.8L223.893 146.798V147.8L219.613 148.799V147.8Z" fill="black"/>
</g>
<defs>
<linearGradient id="paint0_linear" x1="110.561" y1="95.9402" x2="110.561" y2="4.01362" gradientUnits="userSpaceOnUse">
<stop stop-color="#808080" stop-opacity="0.25"/>
<stop offset="0.54" stop-color="#808080" stop-opacity="0.12"/>
<stop offset="1" stop-color="#808080" stop-opacity="0.1"/>
</linearGradient>
<clipPath id="clip0">
<rect width="235" height="190" fill="white"/>
</clipPath>
</defs>
</svg>
